/* XPM */
static char *result[] = {
/* columns rows colors chars-per-pixel */
"50 50 244 2 ",
"   c #1D151C",
".  c #3D1706",
"X  c #29171B",
"o  c #390E0C",
"O  c #11192F",
"+  c #261B23",
"@  c #271D3B",
"#  c #3A1935",
"$  c #18243E",
"%  c #3D283C",
"&  c #322E38",
"*  c #470703",
"=  c #530000",
"-  c #5B0000",
";  c #590A07",
":  c #461707",
">  c #551A07",
",  c #4D0D1B",
"<  c #560B16",
"1  c #4B1715",
"2  c #640201",
"3  c #6C0302",
"4  c #690C08",
"5  c #760201",
"6  c #7B0301",
"7  c #7B0A02",
"8  c #770A0B",
"9  c #661804",
"0  c #751802",
"q  c #650C15",
"w  c #691515",
"e  c #562805",
"r  c #5A3401",
"t  c #572118",
"y  c #4C2C0A",
"u  c #632608",
"i  c #682E19",
"p  c #722E0D",
"a  c #471428",
"s  c #541729",
"d  c #44132A",
"f  c #661726",
"g  c #552924",
"h  c #4D263A",
"j  c #4D2E2C",
"k  c #6A2B2C",
"l  c #782928",
"z  c #773D3B",
"x  c #703232",
"c  c #5E4C3F",
"v  c #704E37",
"b  c #0C2446",
"n  c #1A2758",
"m  c #153558",
"M  c #11274E",
"N  c #262446",
"B  c #3B3447",
"V  c #222656",
"C  c #32304A",
"Z  c #0C3668",
"A  c #153867",
"S  c #053879",
"D  c #193877",
"F  c #152D62",
"G  c #263667",
"H  c #281C41",
"J  c #432C4B",
"K  c #39445C",
"L  c #324346",
"P  c #09407F",
"I  c #2C4466",
"U  c #38486B",
"Y  c #2A4875",
"T  c #2C527A",
"R  c #534C53",
"E  c #675858",
"W  c #765657",
"Q  c #7C534C",
"!  c #7B605C",
"~  c #4C5265",
"^  c #655E62",
"/  c #696569",
"(  c #7A6866",
")  c #797774",
"_  c #6D6F72",
"`  c #880603",
"'  c #930200",
"]  c #990806",
"[  c #8A1407",
"{  c #9A1405",
"}  c #871B1C",
"|  c #971A16",
" . c #890C11",
".. c #A40903",
"X. c #B70801",
"o. c #A61605",
"O. c #BB1405",
"+. c #BD1B14",
"@. c #A01512",
"#. c #8A2406",
"$. c #97241B",
"%. c #8C2C12",
"&. c #AC2A08",
"*. c #B52605",
"=. c #AD2E19",
"-. c #882B28",
";. c #8A3734",
":. c #87312A",
">. c #B02F25",
",. c #C30401",
"<. c #C70805",
"1. c #D30401",
"2. c #DC0200",
"3. c #D90C03",
"4. c #C31D01",
"5. c #CB1406",
"6. c #D71603",
"7. c #E20701",
"8. c #F20400",
"9. c #FB0400",
"0. c #ED1400",
"q. c #C42604",
"w. c #D92500",
"e. c #D62211",
"r. c #E82200",
"t. c #CF3A2B",
"y. c #93443D",
"u. c #A65C35",
"i. c #CB4B34",
"p. c #8A4D4B",
"a. c #865754",
"s. c #955556",
"d. c #8D4C4B",
"f. c #9A6C6A",
"g. c #87756C",
"h. c #997777",
"j. c #89746D",
"k. c #A27978",
"l. c #A26966",
"z. c #B47252",
"x. c #9A8473",
"c. c #A88079",
"v. c #0B3E85",
"b. c #174587",
"n. c #18599B",
"m. c #0C4892",
"M. c #235A94",
"N. c #295387",
"B. c #2C619A",
"V. c #32679A",
"C. c #074DA2",
"Z. c #0753AB",
"A. c #175AA8",
"S. c #0858B5",
"D. c #1258AD",
"F. c #205FA0",
"G. c #0D61BC",
"H. c #1C68B7",
"J. c #1A60AE",
"K. c #2666A7",
"L. c #3469A7",
"P. c #256BB7",
"I. c #2971BB",
"U. c #3974B0",
"Y. c #5B7A9B",
"T. c #4F6695",
"R. c #767C81",
"E. c #4A77AA",
"W. c #497DB6",
"Q. c #015EC9",
"!. c #015EC5",
"~. c #0063CE",
"^. c #0965CC",
"/. c #0B6BCD",
"(. c #0866CA",
"). c #136CCA",
"_. c #176AC2",
"`. c #1372CD",
"'. c #1D73CB",
"]. c #1D79CF",
"[. c #0466D1",
"{. c #0C6CD2",
"}. c #0669D2",
"|. c #116ED2",
" X c #1472D4",
".X c #1A75D3",
"XX c #1E79D4",
"oX c #1775D8",
"OX c #0F70D6",
"+X c #2274C9",
"@X c #2478CD",
"#X c #2977C6",
"$X c #347DC9",
"%X c #247CD4",
"&X c #2A7ED2",
"*X c #257EDA",
"=X c #2274D0",
"-X c #887E81",
";X c #748596",
":X c #5685B9",
">X c #4782BE",
",X c #738DAA",
"<X c #3B83CB",
"1X c #2B81D5",
"2X c #2B83DB",
"3X c #2780D8",
"4X c #3283D3",
"5X c #3389DB",
"6X c #3B8CDC",
"7X c #3887D5",
"8X c #368BE1",
"9X c #2A86E3",
"0X c #4586C9",
"qX c #418FDA",
"wX c #4192E2",
"eX c #968685",
"rX c #939494",
"tX c #8D8E8E",
"yX c #AB9B9A",
"uX c #9099A5",
"iX c #9EA0A3",
"pX c #ABA7A8",
"aX c #B9B7B5",
"sX c #B5ACA8",
"dX c #AE9EA2",
"fX c #C9B7AE",
"gX c #D3C8BD",
"hX c #BFC6CA",
"jX c #C7C6C6",
"kX c #D0CFCB",
"lX c #DCCBC6",
"zX c #CBD2D3",
"xX c #D4D5D4",
"cX c #D9DAD8",
"vX c #D3D2CF",
"bX c #E7E4DC",
"nX c #DEDEE0",
"mX c #DDE6E8",
"MX c #E9EAE9",
"NX c #EBF1F4",
"BX c #F5F5F3",
"VX c #FBFAF7",
"CX c #F5F1E7",
"ZX c #E0DBD2",
/* pixels */
"~.~.~.~.~.~.~.~.~.~.~.~.~.~.~.~.~.~.~.Q.~.~.~.~.~.~.~.~.~.~.~.~.~.~.~.~.~.~.~.~.~.~.~.~.~.~.~.~.~.~.",
"~.~.~.~.~.~.~.~.~.~.~.~.~.~.~.~.~.~.[.[.~.~.~.~.~.~.~.~.~.~.~.~.~.~.~.[.~.~.~.~.~.~.~.~.~.~.~.~.~.~.",
"~.~.~.~.~.~.~.~.~.~.~.~.~.~.~.~.[.Q.Q.[.~.~.~.~.~.~.~.~.~.~.~.~.~.~.~.~.~.~.~.~.~.~.~.~.~.~.~.~.~.~.",
"~.~.~.~.~.~.~.~.~.~.~.~.[.~.~.~.[.[.Q.[.~.~.~.~.~.~.~.~.~.~.~.~.~.~.~.~.~.~.~.~.~.~.~.~.~.~.~.~.~.~.",
"~.~.~.~.~.~.~.~.~.~.~.~.~.~.~.~.Q.[.~.~.~.~.~.~.~.~.~.~.~.~.~.~.~.~.~.~.~.~.~.~.~.~.~.~.~.Q.~.~.~.~.",
"~.~.~.~.~.~.[.~.~.~.~.~.~.~.~.~.Q.[.~.~.~.~.~.~.~.~.~.~.~.~.~.~.~.~.~.~.~.~.~.~.Q.[.~.[.[.[.~.~.~.~.",
"~.~.~.~.~.~.~.~.~.~.~.~.~.~.~.~.[.~.~.~.~.~.~.~.~.~.[.[.~.[.~.~.~.~.~.~.~.~.~.~.[.~.~.Q.Q.Q.[.~.~.~.",
"~.~.~.~.~.~.*X8X8XoX[.[.~.~.~.^.}.).`.%X%X%X.X.X&X>X,XrXrX,XW.+X/.(.~.~.~.~.~.~.~.~.~.[.[.[.~.~.~.~.",
"~.~.~.~.~.~.oX9X3X|.[.~.~.~.[.|.G.3X1X1X1X1X`.`.+XW.,XiX,X:X<X1X]./.(.(.[.[.~.~.~.~.~.~.~.~.Q.~.~.~.",
"~.~.~.~.~.~.{.oXoX}.~.~.(./. XXX3X3X1X1XH.F.n.n.T.Y.;X;X;X>XI.#X].].`./.(.~.~.~.~.~.~.~.~.~.[.~.~.~.",
"~.~.~.~.~.~.[.}./.~.~.(./.].&X*X3X3X`.Z.P m L L ~ R.;X_ ~ T T n.H.3X2X'.).(.~.~.~.~.~.~.~.~.~.~.~.~.",
"~.~.~.~.~.~.~.~.~.~.(.`.XX1X&X@XH.S.C.m.Z   . j v x.) R c j & I B.I.4X1X@X/.(.[.~.~.~.~.~.~.~.~.~.~.",
"[.Q.Q.[.~.~.~.~.~.(./.1X5X2X=XJ.C.P P m $ X . p u.x.f.v p %.%.j L n.I.7X7X@X`.(.[.~.~.~.~.~.~.~.~.~.",
"~.[.[.[.~.~.~.[.(./.].5X5X3X).C.P b $ $ # 1 u =.u.z.z.=.o.4.*.u j I F.<X6X4X'./.Q.~.~.~.~.~.~.~.~.~.",
"~.~.[.Q.~.~.~.Q./.XX1X2X3X`.S.C.S O   y #.{ *.&.t.i.i.e.3.0.6.q.:.C b.P.5X6X1X`.~.~.~.~.~.~.~.~.~.~.",
"~.~.Q.[.~.~.[.~.`.2X4X*X`.Z.C.D n + o 0 o.4.q.&.=.i.t.6.7.8.0.w.&.& Z J.%X5X5X@X`.(.(.~.~.~.~.~.~.~.",
"~.~.~.~.~.~.^.).=XqX8X.XS.S n d , < 3 ` { X.O.@.:.y.>.| X.7.0.e.&.& m n._.&X5X5X3X/.{.[.~.~.~.~.~.~.",
"~.~.~.~.~.~./.=X$XqX$XD.v.N , 8 ' ' ' ' ] ] $.d.l.k.l.;.$.<.6.w.&.t $ P D._.&X7X4XOX X~.~.~.~.~.~.~.",
"~.~.~.~.~.~.|.*X7X$XF.Z @ < ] ,.2.2.,.' 8 l Q yXfXlXfXeXa.%.o.w.q.9 X M S m.J.4X5XoX X[.Q.~.~.~.~.~.",
"~.~.~.~.~.~.OX8X7XI.N.H < ..1.8.9.9.1.| l W tXhXNXBXbXfXx.x [ 6.6.[ ; # N G b.U.#X.X.X{.(.~.~.~.~.~.",
"~.~.~.~.~.~.|.9X7XK.U f ..1.8.8.8.2.+.z ! pXhXzXMXCXCXbXsXp.| 6.7.X.{ #.p g L T K.'.]..X(.~.~.~.~.~.",
"~.~.~.~.~.~.OX*X$XN.J } X.,.1.1.<.O.>.a.tXzXmXzXkXCXCXVXlXf.-.+.5.,.O.q.&.#.p h Y K.K.'.(.~.~.~.~.~.",
"~.~.~.~.~.~.|.*XP.G a | ..` 5 5 8 -.;.W tXxXMXhXaXZXbXBXxXeXa.;.$.o...3.r.w.&.i L T T n.G.~.~.~.~.~.",
"~.~.~.~.~.~. X&XV.J < ' ' 2 = = w v a.( eXhXzXjXjXcXCXVXmXaXeXf.d.-.@.3.0.r.w.#.y U I n.G.~.~.~.~.~.",
"~.~.~.~.~.~.|.$XT.f 4 ` 6 - = 2 } l.f.g.) rXaXxXMXCXVXVXBXMXxXjXdXa.:.5.3.6.q.#.k G K M._.~.~.~.~.~.",
"~.~.~.~.~.~..X$XT.k 8 5 3 = = 3 } s.f.j.) _ tXjXMXVXVXBXBXNXNXNXzXeXd.+.3.w.*.0 g U ~ M.!.~.~.~.~.~.",
"~.~.~.~.~.[.oX7XE.R w 8 2 * * - 4 } d.k.eX/ _ iXkXNXBXMXcXxXnXNXnXdXl.+.5.w.&.t B N.N.K.^.Q.~.~.~.~.",
"~.~.~.~.~.Q.oX6XW.~ g 4 2 * o * ; ; x l.k.( _ -XiXxXMXcXzXjXkXNXMXsXl.>.5.w.&.g C V.B.+X).~.~.~.~.~.",
"~.~.~.~.~.~.oX8X0XT h q 3 = * . . . 1 x a.h.eX^ _ pXzXzXzXjXkXMXvXrXp.=.3.r.q.i K U.L.1XOX~.~.~.~.~.",
"~.~.~.~.~.~.|.8X0XV.I s - 2 - : . . : < x f.h.^ / tXsXjXvXkXkXkXsXg.y.O.6.w.*.l R E.:X7XoX~.~.~.~.~.",
"~.~.~.~.~.~.|.6XwX<XV.N , 5 ` 9 e r y . , z s.h.g./ ) fXZXMXkXrX! ;.| 4.4.&.#.p v Y.Y.0X=X~.~.~.~.~.",
"~.~.~.~.~.~.{.*X8X6XU.A @ w [ 7 0 r r : : t z k.-X^ _ yXfXgXdX! k [ o.4.*.0 e r c Y.Y.<X X~.~.~.~.~.",
"~.~.~.~.~.~.[.OX*XwX$XJ.D # q  .[ > e r r : t p.f.-X-Xg.j.j.a.-. ...O.*.#.1 + & L K.V.#X/.~.~.~.~.~.",
"~.~.~.~.~.~.~.[.oX8XqX=XA.n d 8 ` 4 > p r : 1 x s.h.-XW z ;.-.....] [ [ p + $ Z T H.H.'./.~.~.~.~.~.",
"~.~.~.~.~.~.~.[.|.&X8X9X=XC.V , 3 7 0 u e y : 9 -.d.s.;.$.+.6.7.X.7 * : X M S n.H.`.].`./.~.~.~.~.~.",
"Q.~.~.~.~.~.~.~.|.*X6X8X=Xv.V , 3 7 0 u e y > w -.s.s.;.$.+.3.2.,.7 * : X b S A.H.3X'.].}.~.~.~.~.~.",
"[.[.[.~.~.~.~.~.}.=X*X8X&XH.v.# , 3 7 9 e : > 2 8 x ;.} @.2.9.9.<.q X   O Z m.H.3XXXXX`.}.~.~.~.~.~.",
"[.Q.Q.[.~.~.~.~.[.^.oX8XwX&XJ.D H , 3 7 4 * o 2 3 q q 8 ] 2.9.9.<.s @ $ b S C.'.3X`.`./.~.~.~.~.~.~.",
"[.Q.[.[.~.~.~.~.~.~.|.*X8X8X=XF.G h < 7 6 = * 2 2 = - 6 ..2.7.1.| J F S v.m.S.'..X/./.(.~.~.~.~.~.~.",
"Q.[.[.Q.~.~.~.~.~.~.~.{..X&XwX<XL.Y J q 5 2 - = = = 2 ..,.2.,.` s F v.C.S.(.'.XXoX/./.(.~.~.~.~.~.~.",
"~.~.~.~.~.~.~.~.~.~.~.~.{.%X6XwX0XK.Y J q 8 3 2 - - 5 ..X.X. .d N v.Z.!.^.oXXXXX`.}.(.~.~.~.~.~.~.~.",
"~.~.~.~.~.~.~.~.~.~.~.~.[.{.oX3X8X&XL.G % s q ` ` 5 6 ]  .q d n v.S.~.[.{.oXXX{.}.[.~.~.~.~.~.~.~.~.",
"~.~.~.~.~.~.~.~.~.~.~.~.~.Q.}..X*X9X=Xn.D J J f f q q f d H F v.Z.Q.}.}.{.oX|.^.(.~.~.~.~.~.~.~.~.~.",
"~.~.~.~.~.~.~.~.~.~.Q.Q.Q.Q.Q.^.^.{.{.S.Z.C.b.G V H H V b.v.C.S.!.~.[.~.[.}.~.Q.!.~.~.~.~.~.~.~.~.~.",
"~.~.~.~.~.~.~.~.Q.[.[.[.~.~.~.~.~.~.~.~.~.~.Q.[.Q.~.~.~.~.~.~.~.[.~.~.~.~.~.~.[.~.~.~.~.~.~.~.~.~.~.",
"~.~.~.~.~.~.~.~.[.[.Q.Q.~.~.~.~.~.~.~.~.~.~.[.[.[.~.~.~.~.~.~.~.~.~.~.~.~.~.Q.[.~.~.~.~.~.~.~.~.~.~.",
"~.~.~.~.~.~.~.~.~.~.~.~.~.~.~.~.~.~.~.~.~.~.[.Q.Q.[.~.~.~.~.~.~.~.~.~.~.~.~.~.~.~.~.~.~.~.~.~.~.~.~.",
"~.~.~.~.~.~.~.~.~.~.~.~.~.~.~.~.~.~.~.~.~.~.[.Q.[.~.~.~.~.~.~.~.~.~.~.~.~.~.~.~.~.~.~.~.~.~.~.~.~.~.",
"~.~.~.~.~.~.~.~.~.~.~.~.~.~.~.~.~.~.~.~.~.~.~.~.~.~.~.~.~.~.~.~.~.~.Q.[.[.~.~.~.~.~.~.~.~.~.~.~.~.~.",
"~.~.~.~.~.~.~.~.~.~.~.~.~.~.~.~.~.~.~.~.~.~.~.~.~.~.~.~.~.~.~.~.[.~.[.Q.Q.[.~.~.~.~.~.~.~.~.~.~.~.~."
};
