/* XPM */
static char *result[] = {
/* columns rows colors chars-per-pixel */
"50 50 239 2 ",
"   c #1C151F",
".  c #360C05",
"X  c #371607",
"o  c #33171A",
"O  c #101B30",
"+  c #341329",
"@  c #132237",
"#  c #36272F",
"$  c #460805",
"%  c #540101",
"&  c #5B0201",
"*  c #5A0908",
"=  c #491707",
"-  c #58171B",
";  c #521012",
":  c #630202",
">  c #6B0201",
",  c #64090D",
"<  c #69090D",
"1  c #720202",
"2  c #740E01",
"3  c #770909",
"4  c #691606",
"5  c #791802",
"6  c #680C15",
"7  c #66181E",
"8  c #731618",
"9  c #4D2D01",
"0  c #4C2404",
"q  c #572904",
"w  c #51231B",
"e  c #502A0F",
"r  c #662403",
"t  c #662316",
"y  c #782B1C",
"u  c #75220C",
"i  c #47182A",
"p  c #551726",
"a  c #4F1730",
"s  c #6C1A25",
"d  c #472826",
"f  c #492535",
"g  c #42383D",
"h  c #522E34",
"j  c #642827",
"k  c #772923",
"l  c #47403C",
"z  c #241D47",
"x  c #172645",
"c  c #1B2959",
"v  c #112E56",
"b  c #292748",
"n  c #242C58",
"m  c #333152",
"M  c #0D3869",
"N  c #06387A",
"B  c #153B7B",
"V  c #0F3169",
"C  c #233A61",
"Z  c #2D3865",
"A  c #4D314A",
"S  c #2D455B",
"D  c #394153",
"F  c #304E72",
"G  c #174777",
"H  c #474146",
"J  c #4B4854",
"K  c #784745",
"L  c #7D514E",
"P  c #7E625A",
"I  c #4A4166",
"U  c #4D6079",
"Y  c #796B69",
"T  c #7C7A78",
"R  c #75716F",
"E  c #840300",
"W  c #8B0502",
"Q  c #880B05",
"!  c #9D0501",
"~  c #980B06",
"^  c #8D1B01",
"/  c #981A02",
"(  c #831819",
")  c #951A16",
"_  c #8B0F11",
"`  c #AB0600",
"'  c #AB0D00",
"]  c #A40A06",
"[  c #BB0C01",
"{  c #B60902",
"}  c #A81806",
"|  c #B5120A",
" . c #B91501",
".. c #A41C16",
"X. c #8D2512",
"o. c #A7240B",
"O. c #AD2712",
"+. c #881920",
"@. c #872926",
"#. c #883935",
"$. c #943F3C",
"%. c #AB2F29",
"&. c #C40402",
"*. c #CB0602",
"=. c #CB0B02",
"-. c #C50C00",
";. c #D70C00",
":. c #DA0C02",
">. c #D70501",
",. c #C61A02",
"<. c #D61C01",
"1. c #C81B16",
"2. c #E40600",
"3. c #F20400",
"4. c #E91700",
"5. c #CC2305",
"6. c #82463F",
"7. c #884847",
"8. c #9B5A5A",
"9. c #964947",
"0. c #876966",
"q. c #986766",
"w. c #867876",
"e. c #967777",
"r. c #A37776",
"t. c #A46867",
"y. c #AA4747",
"u. c #083C85",
"i. c #094389",
"p. c #16498B",
"a. c #0B4998",
"s. c #175398",
"d. c #1D4F92",
"f. c #214D82",
"g. c #2A568B",
"h. c #365889",
"j. c #235A94",
"k. c #35518B",
"l. c #2D6499",
"z. c #386296",
"x. c #3D6688",
"c. c #044DA4",
"v. c #0855AC",
"b. c #1A59A4",
"n. c #085AB7",
"m. c #0D59B2",
"M. c #1A66B6",
"N. c #0960BE",
"B. c #2A67AA",
"V. c #3568A5",
"C. c #276DB8",
"Z. c #2C73B8",
"A. c #397AB6",
"S. c #3470AA",
"D. c #4479B0",
"F. c #466A98",
"G. c #005EC9",
"H. c #025DC3",
"J. c #0063CE",
"K. c #0A65CB",
"L. c #0C6ACD",
"P. c #0766C9",
"I. c #126CCA",
"U. c #156AC6",
"Y. c #1371CC",
"T. c #1C73CC",
"R. c #1D70C6",
"E. c #0466D1",
"W. c #0C6CD1",
"Q. c #0768D0",
"!. c #106FD2",
"~. c #1471D2",
"^. c #1B75D3",
"/. c #1F79D4",
"(. c #1D7AD9",
"). c #1876D9",
"_. c #2C76C3",
"`. c #2176CD",
"'. c #2A7CCE",
"]. c #2477CA",
"[. c #337CC8",
"{. c #247CD4",
"}. c #297DD2",
"|. c #237DD9",
" X c #226FC2",
".X c #227EE0",
"XX c #5A8ABE",
"oX c #758DA9",
"OX c #718FB0",
"+X c #3882CB",
"@X c #2D82D5",
"#X c #2D84D9",
"$X c #2680D9",
"%X c #3385D4",
"&X c #3D89D4",
"*X c #3186DA",
"=X c #358ADA",
"-X c #3B8DDB",
";X c #3986D3",
":X c #3E91DE",
">X c #2B86E3",
",X c #3F91E3",
"<X c #3D8EE0",
"1X c #4786C8",
"2X c #5D8FC1",
"3X c #468BD0",
"4X c #4494DE",
"5X c #5496D5",
"6X c #4393E1",
"7X c #4898E1",
"8X c #54A1E5",
"9X c #878685",
"0X c #988988",
"qX c #989593",
"wX c #93918F",
"eX c #A59998",
"rX c #B08F8D",
"tX c #B5A19F",
"yX c #A7ABAA",
"uX c #B6A8AA",
"iX c #B7B9B7",
"pX c #96A4A5",
"aX c #C6B3B2",
"sX c #B5BEC2",
"dX c #BCC5C5",
"fX c #C8C9C7",
"gX c #CCD5D5",
"hX c #D6DCDA",
"jX c #D5D3CE",
"kX c #E3DDD5",
"lX c #DAE0DF",
"zX c #E4E2DC",
"xX c #D0DEE2",
"cX c #DCE5E7",
"vX c #E4E9E8",
"bX c #F1F1EB",
"nX c #F4F5F4",
"mX c #FCFCFC",
"MX c #E5F1F4",
/* pixels */
"J.J.J.J.J.J.J.J.J.J.J.J.J.J.J.J.J.J.E.J.J.J.J.J.J.J.J.G.E.E.J.J.J.J.G.J.J.J.E.G.E.E.G.E.J.J.J.J.J.J.",
"J.J.J.J.J.J.J.J.J.J.J.J.J.J.J.J.J.J.J.J.J.J.J.J.J.J.J.J.E.G.J.J.E.J.E.J.J.J.J.J.G.E.J.J.J.J.J.J.J.J.",
"J.J.J.J.J.J.J.J.J.J.J.J.J.J.J.J.J.J.J.J.J.J.J.J.J.J.J.J.G.E.J.J.J.J.J.J.E.J.J.J.J.J.J.J.J.J.J.J.J.J.",
"J.J.J.J.J.J.J.J.J.J.J.J.J.J.J.J.J.J.J.J.J.J.J.J.J.E.J.J.E.G.E.J.J.J.J.J.G.E.J.J.J.J.J.J.J.J.J.J.J.J.",
"E.G.G.E.J.J.J.J.J.J.J.J.J.J.J.J.J.J.J.J.J.J.J.J.J.J.J.J.E.E.G.E.J.J.J.J.J.J.J.J.J.J.J.J.J.J.J.J.J.J.",
"G.E.E.E.E.J.J.J.J.J.J.J.J.J.J.J.J.J.J.J.J.J.J.J.J.J.J.J.G.E.J.J.J.J.J.J.J.J.J.J.J.J.J.J.J.J.J.J.J.J.",
"E.E.J.G.J.J.J.J.J.J.J.J.J.J.J.J.J.J.J.J.J.J.J.J.J.J.G.J.E.E.J.J.G.J.J.J.J.J.J.J.J.J.J.J.J.J.J.J.J.J.",
"E.G.J.J.J.J.J.J.J.J.J.J.J.J.J.E.W.W.~.T.^.(.(.(.).(.'.1XOXqXD.C.P.P.J.J.J.J.J.J.J.J.J.J.J.J.J.J.J.J.",
"E.J.J.J.J.J.J.J.J.J.J.J.Q.Q.Q.Y.(.}.}.<X<X6X6X6X6X6X5XOXpXOXXX[.~.K.J.J.J.J.J.J.J.J.J.J.J.J.J.J.J.J.",
"G.E.J.J.J.J.J.J.J.J.J.J.P.L.Y.$X}.6X6X6X}.6X[.[.1X3X2XOXOX1X3X=X|.^.W.Q.J.J.G.J.J.J.J.J.J.J.J.J.J.J.",
"J.J.J.J.J.J.J.J.J.J.J.J.Y.$X=X=X<X}.|.(.~.M.b.d.g.z.V.F.D.[.6X6X6X=X|.Y.P.H.G.J.J.J.J.J.J.J.J.J.J.J.",
"J.J.J.J.J.J.J.J.J.J.L.I.$X=X:X=X}.|.I.m.a.u.C n m A I I k.B._.[.&X4X=X|.Y.P.G.J.J.J.J.J.J.J.J.J.J.J.",
"J.J.J.J.J.J.J.J.J.E.L.$X-X:X=X$X).I.m.u.V a p 6 6 +.+.s a n p.M. X%X;X<X*XI.G.E.J.J.J.J.J.J.J.J.J.J.",
"J.J.J.J.J.J.J.J.E.K.^.=X:X-X*X$X^.m.u.n + , > 1 E ! ` ] _ a n u.v.M._.&X&X}.^.K.J.J.J.J.J.J.J.J.J.J.",
"J.J.J.J.J.J.J.J.Q.^.@X-X&X@X@X,X;Xj.Z p , & & & > W ` *.&...s n N u.s.C.[.&X}.K.G.J.J.J.J.J.J.J.J.J.",
"J.J.J.J.J.J.J.J.W.#X-X-X%X].@X&XD.I a 6 1 & % % : 3 ] >.3.>.~ a x v V d.C.3X6X^.G.G.J.J.J.J.J.J.J.J.",
"J.J.J.J.J.J.E.E.).6X4X}.`.I.U.C.z.A 3 1 > $ $ : > < W >.3.3.&.6 o   @ V s._.=X@XT.P.P.J.J.J.J.J.J.J.",
"J.J.J.J.J.J.E.W.|.6X4X}.I.G.m.d.m s E 1 * $ $ < 8 7 y  .>.2.&.E & = o x M s.Z.+X$XL.G.J.J.J.J.J.J.J.",
"J.J.J.J.J.J.E.~.|.6X6X^.G.K.a.n i 3 Q r 9 = ; @.#.7.K X.~ ] ` ! / / u o @ v F A.#X~.J.J.J.J.J.J.J.J.",
"J.J.J.J.J.J.W.).|.;X}.I.H.c.u.+ * 5 5 q 9 = - 6.8.8.P K k @.) ~ ' ,./ 4 o # S A.=X(.W.P.J.J.J.J.J.J.",
"J.J.J.J.J.J.W.`.*X;X|.I.n.u.z 6 2 4 r q 9 0 t 8.q.Y R eXeXw.L y W [ [ ^ r q l S.#X$X).K.J.J.J.J.J.J.",
"J.J.J.J.J.J.W.{.*X}.].N.u.c + 6 Q r q 9 9 j K e.0XT 9XiXfXyX9XK @.[ -. .o.r l l.#X*X|.K.J.J.J.J.J.J.",
"J.J.J.J.J.J.W.}.*X*X Xc.V a , 1 4 q 9 X w 7.q.0.w.wXyXfXkXkXfXeXt.%.-.;.o.t D l.}.=X#XK.J.J.J.J.J.J.",
"J.J.J.J.J.J.W.|.*X}.Z.u.z ; > : * 9 0 = j q.r.0.T yXfXjXkXbXvXgXtX%.[ ;.,.t m g.Z.-X*XI.J.J.J.J.J.J.",
"J.J.J.J.J.J.Q.|.<X}.V.n + 6 : $ . X ; y 6.t.r.w.wXfXvXhXhXcXMXcXaXy.] =.[ 6 # F V.&X.XW.J.J.J.J.J.J.",
"J.J.J.J.J.J.W.)..X}.V.m i , & . . . 7 9.8.w.9XrXiXzXnXzXlXvXMXxXuX9.] =.-.5 w S z.<X.XW.J.J.J.J.J.J.",
"J.J.J.J.J.J.Q.).|.}.V.A ; % % $ * 6 @.t.r.T F.fXzXnXmXnXbXbXlXiXe.#.! ;.;.} y A k.[.>X).J.J.J.J.J.J.",
"J.J.J.J.J.J.Q.~..X[.V.A , & % % 4 8 6.r.0X9XwXjXbXnXnXmXnXzXaX0X8.) ' ;.;.o.y J z.[..XE.J.J.J.J.J.J.",
"J.J.J.J.J.J.E.E.I. Xk.j > 1 > & * k K 0.0XyXsXgXlXlXvXnXzXuXq.6.O.5.5.5.O.t # g.Z.%X|.K.J.J.J.J.J.J.",
"J.J.J.J.J.J.E.G.G.U.z.a < W W 1 3 @.6.L w.iXgXgXxXhXvXnXjXe.#...' ,.5.O.k # S B.}.}.{.K.J.J.J.J.J.J.",
"J.J.J.J.J.J.J.J.E.W.B.Z j ] { ` ` } ) @.7.eXdXxXvXbXbXMXfXq.@.|  .} X.h m V p._.=X}.^.K.J.J.J.J.J.J.",
"J.J.J.J.J.J.J.J.E.E.m.f.A +.{ &.*.*.[ ~ #.q.eXsXgXvXvXgXtX7.) -. .5 d n N a.M.+X-X|.~.Q.J.J.J.J.J.J.",
"J.J.J.J.J.J.J.J.J.J.N.s.S p W [ >.2.>.*.| k K T pXdXfXyXe.@.] ,.} w x i.v.M./.=X=X~.Q.J.J.J.J.J.J.J.",
"J.J.J.J.J.J.P.P.P.J.N.m.p.b - _ { *.>.&.` E 8 K 0.rXrXq.9...[ <.O.# v c.P./.#X=X@XL.J.J.J.J.J.J.J.J.",
"J.J.J.J.J.P.K.I.Y.Q.J.P.v.u.n + - _ _ W W ! ~ ) %.%.%.%.1.2.4.4.O.h M v.L.#X-X@X`.L.J.J.J.J.J.J.J.J.",
"J.J.J.J.J.P.L.R.R.L.Q.J.G.c.a.M n a p ; 1 ~ ' ' ] ` { *.:.4.4.<.O.g G M.(.*X%X`.I.P.J.J.J.J.J.J.J.J.",
"J.J.J.J.J.J.K.R.].^.!.K.G.H.n.c.u.u.n   . 4 ^ / } =.;.,.5.,.o.o.y D s.+X=X#X(.L.K.J.J.J.J.J.J.J.J.J.",
"J.J.J.J.J.J.K.I.R.^.^.W.W.Q.J.G.n.c.N @   d t u /  .,.o.X.X.X.y l h.S.3X-X|.~.K.J.J.J.J.J.J.J.J.J.J.",
"J.J.J.J.J.J.J.J.L.R.T.|./.T.I.J.n.c.u.V v c b = 4 u u d h d l J U D.3X%X|.~.E.J.J.J.J.J.J.J.J.J.J.J.",
"J.J.J.J.J.J.J.J.K.I.T.{.|.}.}.`.I.n.a.a.i.i.G # # d l S S S F U D.3X-X|.~.K.E.J.J.J.J.J.J.J.J.E.J.J.",
"J.J.J.J.J.J.J.J.J.K.K.Y./.:X4X4X-X}.R.R.M.M.b.f.F g.z.V.S.A.A.1X}.|.).W.E.E.J.J.J.J.J.J.J.J.J.J.J.J.",
"J.J.J.J.J.J.J.J.J.J.J.P.T.:X8X8X7X>X|.>X|.|. XM.M.C._.'.|.*X>X>X.XW.E.J.G.G.J.G.J.J.J.J.J.J.J.J.J.J.",
"J.J.J.J.J.J.J.J.J.G.G.J.Y.-X4X7X-X(.).(.|.$X}.{.].}.}.`.`.^.W.W.W.K.G.G.G.G.G.G.G.G.J.J.J.J.J.J.J.J.",
"J.J.J.J.J.J.J.J.J.J.J.J.J.J.Q.Q.J.E.G.J.J.J.J.J.J.J.J.J.J.J.J.J.J.J.J.J.J.J.J.J.J.J.J.E.J.J.J.J.J.J.",
"J.J.J.J.J.J.J.J.J.J.J.J.J.J.J.J.J.J.J.J.J.J.J.J.J.J.J.J.J.J.J.J.J.J.J.J.J.J.J.J.J.J.J.J.J.J.J.J.J.J.",
"J.J.J.J.J.J.J.J.J.J.J.J.J.J.J.J.J.J.J.J.J.J.J.J.J.J.J.J.J.J.J.J.J.J.J.J.J.J.J.J.J.J.J.E.J.J.J.J.J.J.",
"J.J.E.J.J.J.J.J.J.J.J.J.J.J.J.J.J.J.J.J.J.J.J.J.J.J.J.J.J.J.J.J.J.J.J.J.J.J.J.J.J.J.E.G.G.E.J.J.J.J.",
"J.J.J.J.J.J.J.J.J.J.J.J.J.J.J.J.J.J.J.E.J.J.J.J.J.J.J.J.J.J.J.J.J.J.J.J.J.J.J.J.J.J.E.G.E.J.J.J.J.J.",
"J.J.J.J.J.J.J.J.J.J.J.E.E.G.J.J.J.J.J.J.J.J.J.J.J.J.J.J.J.J.J.J.J.J.J.J.J.J.J.J.J.J.J.J.J.J.J.J.J.J.",
"J.J.J.J.J.J.J.J.J.J.J.G.E.E.E.G.J.J.J.J.J.J.J.J.J.J.J.J.J.J.J.J.J.J.J.J.J.J.J.J.J.J.J.J.J.J.J.J.J.J."
};
