/* XPM */
static char *result[] = {
/* columns rows colors chars-per-pixel */
"50 50 196 2 ",
"   c #33100D",
".  c #311C0C",
"X  c #39150F",
"o  c #2D151C",
"O  c #371716",
"+  c #3B2111",
"@  c #3A2A12",
"#  c #33211C",
"$  c #291E36",
"%  c #2C2B3C",
"&  c #29223A",
"*  c #372A32",
"=  c #342738",
"-  c #39323C",
";  c #392729",
":  c #4B1E1D",
">  c #45261A",
",  c #522A1F",
"<  c #42331C",
"1  c #4A2C29",
"2  c #5A252A",
"3  c #57322D",
"4  c #442D31",
"5  c #422B3B",
"6  c #572C34",
"7  c #4A3333",
"8  c #48353C",
"9  c #543333",
"0  c #5C3B3B",
"q  c #56363A",
"w  c #4E3828",
"e  c #652F2E",
"r  c #68342E",
"t  c #643B33",
"y  c #6B3D35",
"u  c #643C39",
"i  c #603733",
"p  c #723836",
"a  c #4D432A",
"s  c #574736",
"d  c #6C4038",
"f  c #7A423F",
"g  c #14325D",
"h  c #262945",
"j  c #332B40",
"k  c #2A324D",
"l  c #3C3342",
"z  c #36364B",
"x  c #3B344F",
"c  c #343043",
"v  c #26395B",
"b  c #323A56",
"n  c #1A3462",
"m  c #173869",
"M  c #173871",
"N  c #243F66",
"B  c #253968",
"V  c #4F3E4B",
"C  c #3D445E",
"Z  c #17457C",
"A  c #2E456B",
"S  c #254774",
"D  c #54434F",
"F  c #5F5549",
"G  c #4E485A",
"H  c #7C554E",
"J  c #76564F",
"K  c #6F5F59",
"L  c #765653",
"P  c #7A4B49",
"I  c #66604D",
"U  c #78615B",
"Y  c #6B6359",
"T  c #424764",
"R  c #435172",
"E  c #82564F",
"W  c #815554",
"Q  c #8A615C",
"!  c #8A6262",
"~  c #91736E",
"^  c #877D7B",
"/  c #84847D",
"(  c #97817B",
")  c #0C4385",
"_  c #0C458B",
"`  c #0E4994",
"'  c #0D4592",
"]  c #134B94",
"[  c #144F9A",
"{  c #0C539D",
"}  c #14519E",
"|  c #155A9F",
" . c #1A5396",
".. c #154585",
"X. c #204986",
"o. c #2A548C",
"O. c #32598E",
"+. c #335788",
"@. c #265A9B",
"#. c #2B5A92",
"$. c #375E93",
"%. c #2E619D",
"&. c #376095",
"*. c #084BA1",
"=. c #0A55AD",
"-. c #0F55A8",
";. c #1759A7",
":. c #0D59B3",
">. c #065BBE",
",. c #095CBE",
"<. c #205BA5",
"1. c #0E61BA",
"2. c #1B64B2",
"3. c #1F67B9",
"4. c #1E69BC",
"5. c #1667BF",
"6. c #2361AA",
"7. c #3064A1",
"8. c #216BBC",
"9. c #296EB8",
"0. c #2568B2",
"q. c #045CC3",
"w. c #0A5EC1",
"e. c #015EC9",
"r. c #0562C5",
"t. c #0C61C3",
"y. c #0C69C6",
"u. c #0063CE",
"i. c #0B65CA",
"p. c #0669C9",
"a. c #0D6BCC",
"s. c #1265C4",
"d. c #1569C5",
"f. c #1B6DC4",
"g. c #1067CA",
"h. c #136CCC",
"j. c #1A6EC9",
"k. c #1E70C7",
"l. c #1471CC",
"z. c #1B74CD",
"x. c #1E79CE",
"c. c #0466D1",
"v. c #0669D2",
"b. c #0B6BD2",
"n. c #116ED2",
"m. c #0F70D6",
"M. c #1472D4",
"N. c #1B75D2",
"B. c #1D79D4",
"V. c #1F7BD9",
"C. c #1674D8",
"Z. c #206DC0",
"A. c #2173C6",
"S. c #2275CB",
"D. c #2579CD",
"F. c #297CCE",
"G. c #2177D2",
"H. c #247BD3",
"J. c #2A7ED3",
"K. c #237EDA",
"L. c #2B81D5",
"P. c #2681DA",
"I. c #2B83DA",
"U. c #2680D2",
"Y. c #3385D6",
"T. c #3588D7",
"R. c #3186D9",
"E. c #3489DB",
"W. c #3B8DDC",
"Q. c #3F90DE",
"!. c #368BE0",
"~. c #3C8FE1",
"^. c #3D91E3",
"/. c #418FDC",
"(. c #4392DE",
"). c #4797E1",
"_. c #898482",
"`. c #9A8986",
"'. c #A68786",
"]. c #A2938C",
"[. c #AE9897",
"{. c #AFA09E",
"}. c #A9AAA9",
"|. c #A5A8A8",
" X c #B0A4A4",
".X c #B9B6B5",
"XX c #CFBBB5",
"oX c #C2C1BF",
"OX c #CACECE",
"+X c #C6C5C4",
"@X c #DBD2CC",
"#X c #D4D8D8",
"$X c #E0E0DF",
"%X c #E0E5E3",
"&X c #E6E8E8",
"*X c #EDEEEB",
/* pixels */
"u.u.u.c.u.u.u.e.u.u.u.u.u.u.u.u.u.u.u.u.u.u.u.u.u.u.u.u.u.u.u.u.u.u.u.u.u.u.u.u.u.u.u.u.u.u.u.u.u.u.",
"u.u.u.u.u.u.c.c.u.u.u.u.u.u.u.u.u.u.u.u.u.u.u.u.u.u.u.u.u.u.e.u.u.u.u.u.u.u.u.u.u.u.u.u.u.u.u.u.u.u.",
"u.u.u.u.u.u.e.c.u.u.u.c.u.u.u.u.u.u.u.u.u.u.u.u.u.u.u.u.c.e.c.c.u.u.c.e.u.u.u.u.u.u.u.u.u.u.u.u.u.u.",
"u.u.u.u.u.u.u.u.u.u.u.e.u.u.u.u.u.u.u.u.u.u.u.u.u.u.c.u.u.c.c.e.u.u.u.c.u.u.u.u.u.u.u.u.u.u.u.u.u.u.",
"u.u.u.u.u.u.u.u.e.c.c.c.u.u.u.u.u.u.u.u.u.u.u.u.u.u.u.u.u.c.e.c.u.c.e.c.u.u.u.u.u.u.e.c.c.e.u.u.u.u.",
"u.u.u.u.u.u.u.u.u.u.e.c.u.u.u.u.u.u.u.u.u.u.u.u.u.u.u.u.e.c.u.u.u.u.c.e.u.u.c.v.u.u.c.c.c.c.u.u.u.u.",
"u.u.u.u.u.u.u.u.u.u.u.u.u.c.u.u.u.u.u.u.u.u.i.p.y.p.p.p.p.p.u.u.e.c.u.u.u.u.u.i.c.c.e.e.u.c.e.c.u.u.",
"u.u.u.u.u.u.u.u.u.u.u.u.u.u.u.u.u.u.c.b.n.N.z.x.z.x.N.z.N.n.b.v.v.u.u.u.u.u.u.i.c.c.c.c.u.c.c.e.u.u.",
"u.u.u.u.u.u.u.u.u.u.u.u.u.u.u.u.c.v.n.K.E.~.(.(.Q.Q.Q.Q.Q.E.I.B.n.v.e.u.u.u.c.u.c.u.u.u.u.u.u.u.u.u.",
"u.u.u.u.u.u.u.u.u.u.u.u.u.u.c.v.b.C.K.E././.(./.Q.Q.W.Q.Q.W.W.I.K.M.b.u.e.u.u.u.u.u.u.u.u.u.u.u.u.u.",
"u.u.u.u.u.u.u.u.u.u.u.u.u.u.b.C.K.~./.W.Y.J.F.S.l.k.j.z.x.P.I.W.W.W.K.g.e.u.c.u.u.u.u.u.u.u.u.u.u.u.",
"u.u.u.u.u.u.u.u.u.u.u.u.c.v.M.P.!.~.W.J.G.A.d.s.1.r.>.r.y.l.D.U.T.W.J.G.i.p.e.u.u.u.u.u.u.c.u.u.u.u.",
"u.u.u.u.u.u.u.p.p.u.c.u.v.C.P.E.R.H.z.d.s.1.w.,.>.>.w.w.t.t.s.s.A.H.K.J.G.g.e.u.u.u.u.u.u.u.u.u.u.u.",
"u.u.u.u.u.u.u.i.p.u.u.p.h.K.R.R.H.h.r.w.w.w.s.s.s.j.j.s.t.,.>.,.w.j.H.W.!.N.g.u.u.u.u.u.u.u.u.u.u.u.",
"u.u.u.u.u.u.u.i.p.u.p.d.D.T.I.N.y.t.,.>.w.d.A.G.J.(.~.K.j.t.>.,.w.w.j.T./.T.H.g.e.e.u.u.u.u.u.u.u.u.",
"u.u.u.u.u.u.u.u.r.u.a.z.J.T.L.g.q.>.,.t.s.Z.S.H.J.(.^.J.N.d.t.>.>.w.s.J.W./.!.h.u.u.u.u.u.u.u.u.u.u.",
"u.u.u.u.u.u.r.u.u.u.b.H.J.K.G.s.w.r.y.l.x.k.k.d.d.j.z.G.K.G.N.t.,.>.,.j.H.(.(.I.l.r.e.u.u.u.u.u.u.u.",
"u.u.u.u.u.p.p.u.u.u.g.H.J.G.h.t.t.y.l.N.k.2.| | } ]  .2.f.S.N.h.t.w.,.t.z.(.(.T.H.i.e.u.u.u.u.u.u.u.",
"u.u.u.u.u.p.u.u.r.p.n.J.J.h.w.q.t.z.N.g.:.) m v b z b S  .,.n.N.N.t.,.,.k.T.(.Q.I.i.e.u.c.c.c.e.u.u.",
"u.u.u.u.u.u.u.c.u.p.h.J.H.g.q.t.d.B.z.:._ g h - 7 1 7 z B ' :.j.S.d.t.,.s.U.(.(.E.h.e.e.e.c.c.u.u.u.",
"u.u.u.u.u.u.u.e.u.p.l.H.H.s.w.h.N.l.1.) g % 4 0 y y y q l n ) :.s.d.d.,.t.A.Y.(.W.z.p.q.u.c.u.u.u.u.",
"u.u.u.u.u.u.u.c.p.y.l.J.D.s.s.j.z.y.{ m % 1 i H Q Q E d 9 j g X.<.8.f.,.,.5.D./.(.z.y.q.u.u.u.u.u.u.",
"u.u.u.u.u.u.u.u.p.h.S.U.F.s.t.f.5.=...z 9 e P `.{.{.`.J i 2 6 V R 7.4.w.w.w.j.W.W.D.h.r.e.u.u.u.u.u.",
"u.u.u.u.u.u.u.u.p.j.A.L.D.s.,.d.2.` B q e p !  X+XOX.X( W P p y D $.8.w.q.w.d.Y.W.F.j.r.u.c.u.u.u.u.",
"u.u.c.e.c.e.c.u.p.i.l.J.D.i.q.w.;.B x 2 p L / .X#X&X$XoX[.~ H d D &.3.r.q.>.d.Y./.J.j.i.u.u.u.u.u.u.",
"u.u.c.e.u.c.c.c.u.p.l.H.H.i.q.>.;.B 5 2 e L ^ }.OX&X*X$X+X].Q d D +.2.1.q.>.d.Y./.K.C.e.u.u.u.u.u.u.",
"u.u.u.c.c.c.c.p.p.u.h.H.H.i.q.q.} B ; O : u Y _.}.OX%X*X@X[.! u - S -.1.q.w.s.Y.J.K.C.e.e.c.u.u.u.u.",
"u.u.e.c.c.v.v.a.a.p.i.H.H.h.w.q.} B = o X 1 d Y / }.+X@XXX'.H 9 l S | 1.u.>.d.Y.(.J.C.e.u.u.u.u.u.u.",
"u.u.u.c.c.c.m.C.n.i.i.N.K.N.h.i.=.Z k o   @ < a I / `.].~ E y 4 k o.2.>.q.w.d.Y./.F.j.e.u.u.u.u.u.u.",
"u.u.u.e.c.c.m.B.N.i.e.n.N.G.N.i.:.` M & o # @ < a F Y U W d 9 c A @.3.>.q.q.d.Y.~.H.h.e.u.u.u.u.u.u.",
"u.u.c.c.c.c.m.K.H.b.r.e.h.H.J.k.5.:.` m h ; > @ @ @ , t y r V A  .0.Z.t.>.>.d.Y.E.z.g.e.u.u.u.u.u.u.",
"u.u.e.c.c.c.n.K.J.n.v.e.i.N.D.D.k.t.:.' M k * # . . > , 3 V G o.2.4.d.,.w.w.k.Y.Y.l.i.c.u.u.u.u.u.u.",
"u.u.u.u.u.c.v.K.P.K.C.i.q.i.g.H.H.S.h.:.*.) n $ o   X : q T O.9.j.g.w.q.s.k.J.Y.J.b.u.u.u.u.u.u.u.u.",
"u.u.u.u.c.e.v.N.P.I.P.a.r.e.i.j.H.K.N.h.w.:.] B h = $ V C O.0.S.N.w.q.q.d.J.T.J.B.a.u.u.u.c.u.u.u.u.",
"u.u.u.u.c.c.v.a.B.R.R.K.n.i.e.i.h.N.H.H.H.G.Z.<.@.o.o.O.%.9.j.g.i.q.q.w.l.W.W.B.a.p.c.u.e.c.u.u.u.u.",
"u.u.u.u.e.c.p.b.B.R.E.B.h.e.q.e.h.N.G.H.S.S.Z.<.@.o.o.O.%.9.S.g.w.q.w.i.z.W.W.H.a.p.c.u.c.c.u.u.u.u.",
"u.u.u.u.u.u.u.e.h.P.R.R.H.g.e.e.e.n.G.H.J.J.H.S.f.Z.Z.8.Z.j.j.w.e.w.t.z.H.W.W.l.u.u.u.u.c.u.e.c.u.u.",
"u.u.u.u.u.u.u.u.v.m.K.E.R.H.h.e.e.e.i.g.l.S.S.A.j.h.g.s.w.w.w.w.w.r.l.Y.Q.!.P.b.u.u.u.u.u.c.u.u.u.u.",
"u.u.u.u.u.u.u.u.c.c.m.K.!.J.K.h.i.r.q.p.y.j.j.f.j.b.e.e.q.q.w.w.s.z.H.~.^.P.C.v.e.c.u.u.u.c.u.u.u.u.",
"u.u.u.u.u.u.u.u.u.c.v.m.V.E.W.J.z.y.p.r.q.w.w.w.q.e.q.q.q.q.q.h.G.E.~.!.P.C.b.v.u.u.u.u.u.u.u.u.u.u.",
"u.u.u.u.u.u.u.u.u.u.c.c.b.H.I.R.J.H.h.h.i.s.s.h.h.j.j.s.g.j.N.K.J././.K.C.v.u.u.u.u.u.u.u.c.u.u.u.u.",
"u.u.u.u.u.u.u.u.u.u.e.c.v.v.M.V.K.K.J.H.N.N.H.W.(./.!.K.G.J.J.J.!.D.N.n.c.u.u.u.u.u.u.u.u.u.u.u.u.u.",
"u.u.u.u.u.u.u.u.u.u.u.u.e.u.u.b.C.N.N.N.n.N.G.E./.(.J.K.V.V.V.V.N.i.i.c.u.e.u.u.e.c.c.u.u.u.u.u.u.u.",
"u.u.u.u.u.u.u.u.u.u.u.u.u.u.u.u.e.c.c.c.v.b.n.C.V.K.N.C.n.n.v.c.c.c.e.u.u.u.u.e.c.e.e.c.u.u.u.u.u.u.",
"u.u.u.u.c.u.u.u.u.c.c.c.u.p.c.c.u.c.c.v.v.v.n.C.C.C.C.C.v.v.v.v.c.c.e.c.c.c.u.c.c.c.c.u.u.u.u.u.u.u.",
"u.u.u.u.u.u.u.u.u.c.e.u.u.u.c.e.u.u.u.u.u.u.u.u.c.u.u.e.u.u.c.u.u.u.u.u.u.u.u.u.u.u.u.u.u.u.u.u.u.u.",
"u.u.u.u.u.u.u.u.u.u.u.u.u.u.c.e.u.u.u.u.u.u.u.u.u.u.u.u.u.u.u.u.u.u.u.u.u.u.u.u.u.u.u.u.u.u.u.u.u.u.",
"u.u.u.u.u.u.u.u.u.u.u.u.u.u.u.c.u.u.u.u.u.u.u.u.u.u.u.u.u.u.u.u.u.u.u.u.u.u.u.u.u.u.u.u.u.u.u.u.u.u.",
"u.u.u.u.u.u.u.u.u.u.u.u.u.u.u.u.u.u.u.u.u.u.u.u.u.u.u.u.u.u.u.u.u.u.u.u.u.u.u.u.u.u.u.u.u.u.u.u.u.u.",
"u.u.u.u.u.u.u.u.u.u.u.u.u.u.u.u.u.u.u.u.u.u.u.u.u.u.u.u.u.u.u.u.u.u.u.u.u.u.u.u.u.u.u.u.u.u.u.u.u.u."
};
