/* XPM */
static char *result[] = {
/* columns rows colors chars-per-pixel */
"50 50 238 2 ",
"   c #240505",
".  c #300F09",
"X  c #361703",
"o  c #3A211F",
"O  c #3C1930",
"+  c #2C2629",
"@  c #272132",
"#  c #382935",
"$  c #3C3131",
"%  c #470502",
"&  c #500000",
"*  c #5C0400",
"=  c #481700",
"-  c #5E1200",
";  c #4F1F1F",
":  c #5A1B1D",
">  c #650604",
",  c #750400",
"<  c #7B0000",
"1  c #681700",
"2  c #761600",
"3  c #791600",
"4  c #691819",
"5  c #76191A",
"6  c #422405",
"7  c #572702",
"8  c #412B17",
"9  c #563C1C",
"0  c #682903",
"q  c #782400",
"w  c #652717",
"e  c #782818",
"r  c #743114",
"t  c #521729",
"y  c #671E20",
"u  c #611F2C",
"i  c #7A1629",
"p  c #542A2C",
"a  c #523134",
"s  c #6E2525",
"d  c #692C2C",
"f  c #6D2E2E",
"g  c #7C3A38",
"h  c #794509",
"j  c #70492D",
"k  c #3C3043",
"l  c #3E364D",
"z  c #3C3A5A",
"x  c #1C386B",
"c  c #2F3B65",
"v  c #383C67",
"b  c #42375C",
"n  c #593558",
"m  c #6F2F4B",
"M  c #4E3B72",
"N  c #673865",
"B  c #653B71",
"V  c #5A4B4A",
"C  c #524654",
"Z  c #515050",
"A  c #774242",
"S  c #7E4545",
"D  c #674F52",
"F  c #45416A",
"G  c #5A4C65",
"H  c #554777",
"J  c #525072",
"K  c #6C4E69",
"L  c #774173",
"P  c #784874",
"I  c #6A5A76",
"U  c #676565",
"Y  c #756E6E",
"T  c #7E6C6D",
"R  c #777676",
"E  c #850301",
"W  c #8D0202",
"Q  c #8C0B00",
"!  c #930100",
"~  c #9C0402",
"^  c #960C07",
"/  c #871A00",
"(  c #981900",
")  c #891617",
"_  c #841C1B",
"`  c #9D1112",
"'  c #981A1C",
"]  c #A50301",
"[  c #AB0201",
"{  c #A60C03",
"}  c #A60B0B",
"|  c #B40101",
" . c #BC0302",
".. c #B70C08",
"X. c #BD0B0B",
"o. c #B91400",
"O. c #A00E1B",
"+. c #A71616",
"@. c #B11919",
"#. c #842801",
"$. c #982400",
"%. c #873804",
"&. c #933B05",
"*. c #A52900",
"=. c #B52C00",
"-. c #A43300",
";. c #A63805",
":. c #801121",
">. c #981425",
",. c #8A2C2B",
"<. c #8A3434",
"1. c #943636",
"2. c #A42626",
"3. c #C40201",
"4. c #CB0300",
"5. c #C60909",
"6. c #D30100",
"7. c #DA0201",
"8. c #D70E00",
"9. c #D90B00",
"0. c #D11208",
"q. c #E40101",
"w. c #EC0100",
"e. c #E90D00",
"r. c #F30100",
"t. c #FC0200",
"y. c #F70900",
"u. c #E51800",
"i. c #FA1400",
"p. c #F81A00",
"a. c #CA2700",
"s. c #DE2700",
"d. c #C53607",
"f. c #D23300",
"g. c #E62700",
"h. c #F82A00",
"j. c #EF3A00",
"k. c #F73500",
"l. c #92470E",
"z. c #AB4E0E",
"x. c #B44B0E",
"c. c #965D2D",
"v. c #895033",
"b. c #C84802",
"n. c #DF4500",
"m. c #D44B00",
"M. c #EB4603",
"N. c #C04339",
"B. c #872A4B",
"V. c #B52040",
"C. c #884A4B",
"Z. c #86595B",
"A. c #935050",
"S. c #866767",
"D. c #96666F",
"F. c #946969",
"G. c #8B7E7E",
"H. c #977777",
"J. c #403F84",
"K. c #1D438C",
"L. c #284589",
"P. c #2A488D",
"I. c #334A88",
"U. c #264C96",
"Y. c #335296",
"T. c #135FBD",
"R. c #1C5DBB",
"E. c #304DA0",
"W. c #2753A6",
"Q. c #2951A0",
"!. c #3659A9",
"~. c #275BB6",
"^. c #345CB3",
"/. c #395BB2",
"(. c #0F62B4",
"). c #0F62BA",
"_. c #1062B6",
"`. c #1262BB",
"'. c #2562BE",
"]. c #3262B9",
"[. c #4A5088",
"{. c #55548B",
"}. c #455494",
"|. c #555C99",
" X c #655C84",
".X c #74518E",
"XX c #6A648B",
"oX c #4758AA",
"OX c #5659A9",
"+X c #465EB2",
"@X c #6556A2",
"#X c #4F62A8",
"$X c #4B67B4",
"%X c #145FC1",
"&X c #185EC6",
"*X c #245EC6",
"=X c #0963C7",
"-X c #0465CE",
";X c #0A63CC",
":X c #0469CF",
">X c #0868CF",
",X c #1360C1",
"<X c #1D61C5",
"1X c #1463CC",
"2X c #1B63CB",
"3X c #1D68CC",
"4X c #0365D3",
"5X c #0A65D2",
"6X c #0569D5",
"7X c #0364D9",
"8X c #1264D2",
"9X c #2364C4",
"0X c #2B63C6",
"qX c #3768C6",
"wX c #2171C4",
"eX c #4D6DC2",
"rX c #898686",
"tX c #968989",
"yX c #939393",
"uX c #9D9A9A",
"iX c #A48686",
"pX c #AC9999",
"aX c #A5A4A4",
"sX c #AAA6A6",
"dX c #ACABAB",
"fX c #B8A5A5",
"gX c #BBADAD",
"hX c #B3B3B3",
"jX c #BDB9B9",
"kX c #C8C4C4",
"lX c #CCCBCB",
"zX c #D4D4D4",
"xX c #D8D5D5",
"cX c #DCDBDB",
"vX c #E2E2E2",
"bX c #EBEBEB",
"nX c #F3F3F3",
"mX c #FCFCFC",
/* pixels */
"wXwX,X).).(.(.(.(.(.(.(.(.(.,X,X,X,X`.%X`.`.`._.`.(.`.(.`.(.`._.`.`.T.T.T.%X`.`.).).).).).).).).).).",
"wXwX).(.(.(.(.(.(.(.(.(.).).`.,X,X`.`.T.`.`.`.`.(.`.(.`.(.`._.`.`.`.`.%XT.%X,X`.).).`.).).).).).).).",
"=X=X6X6X6X-X:X:X-X-X4X-X4X7X7X7X7X7X7X7X4X7X7X7X4X4X7X6X4X4X5X6X7X5X4X4X5X7X4X4X6X6X4X4X4X6X6X4X4X4X",
";X;X6X4X4X4X-X-X-X;X4X5X7X7X7X7X5X4X4X5X4X4X4X6X6X6X6X5X4X4X4X6X4X4X4X4X4X4X4X4X4X4X4X4X4X4X4X4X4X4X",
";X;X5X7X4X4X4X4X;X-X4X4X7X7X7X6X7X5X4X5X4X4X4X6X6X6X5X4X4X4X6X6X4X4X6X4X-X4X4X4X4X4X4X4X7X4X4X4X4X4X",
"5X;X4X4X4X4X4X-X-X4X4X4X7X7X7X6X4X4X4X4X6X4X5X4X4X7X7X4X4X7X4X4X4X5X4X4X4X4X4X4X4X7X4X7X4X7X7X4X7X7X",
"5X;X7X7X4X4X4X4X4X;X4X4X5X7X8X1X&XR.R.R.'.0X3X5X4X4X4X5X7X5X8X&X~.R.`.'.9X3X4X7X7X4X7X4X7X4X4X7X7X4X",
"5X4X7X7X7X7X4X4X-X-X;X;X0X*X].|.J G G G G I #X*X5X7X7X7X5X9XoXH G G G G  X$X5X7X7X7X7X7X7X7X7X7X7X7X",
"4X5X7X7X4X4X4X-X;X;X-X=X|.K Z.N.z.z.z.z.l.h V I.~.T.T.9X].|.Z.x.z.z.z.z.c.{.2X7X4X4X4X4X7X-X7X7X4X7X",
"5X4X4X5X7X4X5X;X;X;X;X;X}.a &.b.b.m.m.m.b.l.7 a z z c F K B.b.m.m.m.b.x.l.F ~.4X4X4X7X7X-X7X-X-X4X4X",
"-X5X-X4X5X5X;X;X;X;X=X=XP.$ 0 *.a.g.g.h.g.x.;.&.%.r = w 2.d.s.g.g.g.=.#.0 # Y.2X=X4X5X5X-X;X;X4X4X;X",
">X;X4X-X7X;X5X5X;X;X=X&XP.@ > ^  .e.t.t.i.k.M.n.d.-.- #.j.h.i.y.t.e.{ > - o v $X&X4X-X5X-X-X4X;X;X4X",
":X:X-X-X4X4X4X4X&X&X*X+XP ,.( o.8.r.t.t.t.p.h.h.g.a.{ o.u.i.y.t.t.r.0.$.#.%.<.I /.&X7X-X-X4X4X-X4X4X",
":X:X-X6X6X4X4X1XE.v M N N.M.k.h.p.t.t.t.t.t.t.t.t.t.r.r.t.t.t.t.t.t.h.k.j.M.=.p v *X&X-X4X4X4X4X4X4X",
"-X:X-X6X6X4X;X+XJ.u s e d.k.h.h.i.r.w.q.q.q.w.r.t.t.r.r.q.q.q.w.r.t.p.h.k.k.f.0 u [./.8X-X4X-X4X4X4X",
":X-X-X4X4X4XQ.M <.&.;.=.u.t.y.t.q.4.3.| [ [ | 6.t.r.q.6.| [ [ | 4.q.t.t.y.y.e.&.&.f M /.;X4X4X4X4X4X",
":X4X4X4X4X>XP.a r &.-.=.e.t.t.r.7.5...+.` ` } 5.w.q.7.5.+.` ` } X.6.w.y.t.r.e.&.&.0 d {.1X-X4X7X4X5X",
"-X:X4X4X6X;X Xj X X 3 *.8.t.q.4.@.1.C.S.T S.S.,.W ^ _ 1.S.S.S.Z.1.' X.w.w.r.9.q 0 6 8 I *X;X-X5X7X4X",
"6X-X-X-X4X;X Xj X X #.*.8.r.7.X.2.A.S.G.yXrXG.C.) 5 <.C.rXrXyXG.Z.1.@.7.q.r.9.#.0 X 8 U $X8X4X-X4X4X",
"6X:X4X-X-X<XI v.%.#.a.u.8.6.@.1.D.fXkXzXcXcXzXdXH.iXpXfXzXcXcXzXjXiXA.) @.r.e.a.=.%.h c.XX2X4X4X5X4X",
"-X6X-X-X;X$XI j l.;.s.p.9.3.2.C.iXkXcXbXnXmXnXlXaXdXjXlXbXmXnXnXzXhXF.5 ` w.e.s.f.&.l.c.U 3X-X5X5X5X",
":X-X-X-X;X}.l 8 7 2 Q { | | 1.Z.pXcXzXhXhXxXnXvXcXcXvXcXlXlXlXlXcXzXrXp 5 q.6.Q / 7 6 9 J ,X4X5X4X5X",
"-X4X-X-X;XQ.x @ . = > , ! ] 1.T gXvXxXyXrXjXbXnXnXmXmXvXjXhXdXjXcXvXyX$ e 7.3.* % X . + U.=X>X-X4X4X",
"-X-X4X-X;X%XT.I.# X E ~ ~ ] 1.T gXbXzXrXR hXvXnXmXmXmXvXdXaXuXdXcXbXyX$ 5 7.6.< > = o Z W.>X:X;X4X7X",
"5X-X-X-X-X;X;X#Xv t } 7. .] 1.T dXbXlXR U dXvXnXmXmXmXcXdXuXyXaXxXbXyX$ 4 7.7.| ~ 7 9 T 0X;X-X-X;X4X",
"-X4X4X-X4X-X;XOXB :.4.w.3.[ <.T aXcXzXyXrXhXcXvXnXnXnXvXhXdXaXhXxXcXtXa 5 q.w.6. ./ e S.9X-X-X4X4X4X",
"6X:X4X4X4X-XW.M V.0.w.t.4.| 1.Z.uXkXzXkXkXlXzXxXxXcXzXzXlXlXlXlXlXkXG.p _ w.r.r.w.{ ' P <X:X-X4X4X4X",
"-X4X4X4X4X4XL.m 5.w.t.r.6. .2.C.H.pXgXgXgXdXgXgXgXgXgXgXgXgXgXdXgXfXF.s ) q.w.t.r.| O.L <X-X-X-X;X4X",
"4X-X4X4X7X4XL.u 4.w.w.r.6.4.| O._ s d d d d d d d d d d d d d d d f '  . .3.6.t.r.| O.L <X-X-X4X-X4X",
"4X4X4X4X4X;XL.u 4.w.w.w.6.3.| [ E * & & & & & & & & & & & & & & & * ~ 6.4.| 3.r.r.| O.L <X-X5X-X4X4X",
"4X4X4X7X7X4XL.u 4.w.7.6.W > < ! W E < < < < < < , < < < < < < < < < ! ] E & , w.r.| O.L <X4X-X4X4X4X",
"4X:X7X4X4X4XL.u 3.w.6.3.,   * E W W W W W W W W W W W W W W W W W W W W >   & w.w.| O.L &X4X-X-X4X4X",
"4X4X4X6X7X;XL.u 3.q.6.3.4 . a A S S S S S S S S S S S S S S S S S S S S p   % w.r.| O.B *X7X5X4X4X4X",
"4X4X4X4X7X4XU.u 3.w.6.3.4 + V U Y Y R Y R Y Y Y Y R Y Y Y Y Y Y Y Y Y Y V   % w.w.| O..X2X7X4X4X4X4X",
"4X4X4X4X7X5X+XH >.| 6.6.) p D R yXaXdXdXsXsXdXdXdXdXsXdXdXdXdXdXdXaXrXU V > < 7.7.+.B.@X2X4X4X4X4X4X",
"4X4X4X7X4X4X*XOXB :.4.q.{ _ C.rXhXzXcXvXvXvXvXvXvXvXvXvXvXvXcXvXcXzXyXU g } [ 6.4._ B qX8X4X7X4X4X4X",
"4X4X4X4X7X4X5X0XJ.u | 7. .} 1.F.tXsXhXhXhXhXhXhXhXhXhXhXhXhXhXhXhXdXH.S ,.3.3.| [ s H &X7X7X4X4X4X4X",
"5X4X4X4X4X4X4X4XK.O ! | 6.7.@.,.g V Z Z Z Z Z Z Z Z Z Z Z Z Z C Z V g +.X.q.6.! E w H &X7X7X4X4X4X4X",
"4X:X-X-X4X4X6X-XU.b i ! 3.7.| ^ 5 : ; ; 8 : ; ; ; ; ; ; ; ; ; ; ; : ) [ X.6.4., 4 D {.1X4X4X4X4X4X4X",
":X:X4X6X4X6X-X4X*X|.n : Q ] ] ~ [ } } } } } } } } } } } } } } } } } ~ ! ~ { ^ w n XX$X1X4X4X4X4X-X4X",
":X:X:X4X6X-X6X-X4XqXY.b m B.) ~ [ 3.4.4.4.4.4.4.4.4.4.4.4.4.4.4.4.3.] E ' B.B.C [.eX8X5X4X6X4X4X4X4X",
"-X:X-X:X-X6X-X4X4X-XR.!.oX.XN y 1 2 2 3 3 3 3 3 3 3 3 2 3 3 3 2 3 2 1 w m .XOX!.^.5X4X4X4X4X4X4X4X4X",
"-X-X-X6X:X-X4X-X-X-X-X-X-XqX}.b k k k k k k k k k k k k k k k k k k k b {.eX>X4X4X4X4X4X4X4X-X4X4X4X",
":X:X-X-X6X4X-X4X4X7X4X4X4X4X~.!.Q.Q.Q.Q.Q.Q.Q.Q.Q.Q.Q.Q.Q.Q.Q.Q.Q.Q.Q.Q.].>X4X4X4X4X4X4X4X4X4X4X4X-X",
"-X:X-X4X4X4X-X4X4X4X4X4X4X4X4X4X4X4X4X4X-X4X4X4X4X4X4X4X4X4X4X4X4X4X4X4X4X4X-X4X4X4X4X4X4X4X4X4X4X4X",
"6X:X4X-X-X4X4X4X4X4X4X7X7X7X7X4X4X4X4X4X4X4X4X4X4X4X4X4X4X4X4X4X4X4X4X4X4X4X4X4X-X4X4X4X-X4X4X4X4X4X",
":X6X:X-X-X4X4X7X4X4X4X4X4X7X7X4X4X4X4X4X4X4X4X4X4X4X4X-X4X-X4X4X4X4X-X4X4X4X4X4X4X4X-X4X4X4X4X-X4X4X",
"4X4X-X4X4X-X-X;X4X;X4X4X4X4X6X4X4X4X-X4X4X4X-X4X4X4X4X4X4X4X4X4X4X4X4X4X4X4X-X4X4X4X4X4X4X4X4X4X4X-X",
"4X4X4X4X4X4X;X-X=X-X-X=X:X:X:X-X4X4X4X4X4X4X4X-X4X4X4X4X4X4X4X-X4X-X4X4X4X4X4X4X-X4X4X4X4X4X4X4X4X4X",
"4X4X7X4X4X5X;X-X-X-X-X=X=X:X:X:X6X-X-X4X4X4X4X4X4X4X4X-X4X4X4X4X4X4X4X4X4X-X4X4X4X4X4X4X-X4X4X4X4X4X"
};
