/* XPM */
static char *result[] = {
/* columns rows colors chars-per-pixel */
"50 50 215 2 ",
"   c #3E1B08",
".  c #3E0A17",
"X  c #3E250D",
"o  c #2C2839",
"O  c #3A2539",
"+  c #3A2F32",
"@  c #490A07",
"#  c #530907",
"$  c #411B0A",
"%  c #48120A",
"&  c #571708",
"*  c #5B0E17",
"=  c #4A1619",
"-  c #551719",
";  c #4C0C12",
":  c #670705",
">  c #790809",
",  c #7B1309",
"<  c #681718",
"1  c #781918",
"2  c #600C10",
"3  c #48250B",
"4  c #572208",
"5  c #432917",
"6  c #542419",
"7  c #69251C",
"8  c #7A271A",
"9  c #68250F",
"0  c #461A26",
"q  c #591A29",
"w  c #6E1A25",
"e  c #582526",
"r  c #4C3429",
"t  c #58342A",
"y  c #472734",
"u  c #542735",
"i  c #483A39",
"p  c #553338",
"a  c #4B2F24",
"s  c #7C2A28",
"d  c #62352C",
"f  c #683733",
"g  c #70302C",
"h  c #67433D",
"j  c #71403D",
"k  c #1D3157",
"l  c #28264B",
"z  c #3B2841",
"x  c #373A48",
"c  c #2D2B55",
"v  c #293D56",
"b  c #373C59",
"n  c #1B356C",
"m  c #163C7A",
"M  c #273667",
"N  c #3C3E69",
"B  c #472A47",
"V  c #42354A",
"C  c #423D5B",
"Z  c #2C455D",
"A  c #35405B",
"S  c #1D4C7A",
"D  c #1D466D",
"F  c #374569",
"G  c #294975",
"H  c #374C74",
"J  c #314777",
"K  c #294A69",
"L  c #414155",
"P  c #6F4442",
"I  c #784A47",
"U  c #785E5D",
"Y  c #6C514C",
"T  c #445161",
"R  c #7D6767",
"E  c #8A0C09",
"W  c #8A1A08",
"Q  c #9A110F",
"!  c #A70D08",
"~  c #A9150D",
"^  c #A81D14",
"/  c #982A0D",
"(  c #84251B",
")  c #892518",
"_  c #962317",
"`  c #952817",
"'  c #833416",
"]  c #A82917",
"[  c #AB331A",
"{  c #892722",
"}  c #992D25",
"|  c #8D3732",
" . c #A33228",
".. c #A73323",
"X. c #A3413B",
"o. c #904D48",
"O. c #9D564D",
"+. c #8C524F",
"@. c #AB544E",
"#. c #AB625E",
"$. c #8A6B6B",
"%. c #996D68",
"&. c #9F716F",
"*. c #897476",
"=. c #AB7876",
"-. c #A26866",
";. c #A5887F",
":. c #173E84",
">. c #093E89",
",. c #174986",
"<. c #1D5386",
"1. c #074797",
"2. c #1C5794",
"3. c #10488E",
"4. c #264C86",
"5. c #2A588B",
"6. c #285D9C",
"7. c #325C93",
"8. c #3A5180",
"9. c #366998",
"0. c #0B4DA5",
"q. c #034EAB",
"w. c #0C54AC",
"e. c #0D56A8",
"r. c #1658A2",
"t. c #055ABD",
"y. c #0A5DBD",
"u. c #0455B7",
"i. c #2A5FA2",
"p. c #1D65A8",
"a. c #0E60BF",
"s. c #1967BC",
"d. c #2C65A5",
"f. c #2767A6",
"g. c #266BB5",
"h. c #2B73BB",
"j. c #3364A2",
"k. c #035CC4",
"l. c #0A5FC1",
"z. c #015EC9",
"x. c #0663C5",
"c. c #0C62C4",
"v. c #0D6AC6",
"b. c #0063CE",
"n. c #0A64CA",
"m. c #0768CD",
"M. c #0C6BCC",
"N. c #1164C3",
"B. c #1469C5",
"V. c #1B6CC3",
"C. c #126ACC",
"Z. c #1A6ECA",
"A. c #1E70C6",
"S. c #1472CC",
"D. c #1C72CC",
"F. c #1D79CF",
"G. c #0365D0",
"H. c #0669D3",
"J. c #0C6CD1",
"K. c #1472D4",
"L. c #1B75D2",
"P. c #1E79D5",
"I. c #1977D9",
"U. c #1D7AD9",
"Y. c #1574D8",
"T. c #136ED0",
"R. c #2376CC",
"E. c #2479CE",
"W. c #2C7DCE",
"Q. c #2975C4",
"!. c #307ECF",
"~. c #2177D2",
"^. c #247CD4",
"/. c #2A7ED3",
"(. c #237DD9",
"). c #226FC2",
"_. c #887D81",
"`. c #2B81D5",
"'. c #2681DA",
"]. c #2C83D9",
"[. c #2780D5",
"{. c #3285D6",
"}. c #3186D9",
"|. c #358ADB",
" X c #3A8DDC",
".X c #3589D7",
"XX c #3A82C4",
"oX c #2C89E4",
"OX c #378DE3",
"+X c #4494DE",
"@X c #4A98DF",
"#X c #4293E2",
"$X c #8D8385",
"%X c #9B9799",
"&X c #A89798",
"*X c #B79B9C",
"=X c #A68987",
"-X c #9C9BA2",
";X c #ADA7A8",
":X c #BCA7A7",
">X c #BAB5B8",
",X c #AEB1B2",
"<X c #D4B6AE",
"1X c #B7BCC1",
"2X c #C8CBCE",
"3X c #CAC7C7",
"4X c #D0D4DA",
"5X c #D8DCDB",
"6X c #CFD1CE",
"7X c #E5DCD1",
"8X c #DFE1DE",
"9X c #E8E5DA",
"0X c #DBE5E7",
"qX c #F6F8F5",
"wX c #EAF0F1",
/* pixels */
"b.b.b.b.b.b.b.b.z.G.G.G.z.G.G.G.z.z.G.G.b.b.b.b.b.b.b.G.z.z.G.G.b.b.b.b.b.G.b.b.b.b.b.b.b.b.b.b.b.b.",
"b.b.b.b.b.b.b.b.G.G.z.G.b.G.z.G.G.G.G.z.b.b.b.b.b.b.b.b.G.G.G.z.b.b.b.b.b.b.b.b.b.b.b.b.b.b.b.b.b.b.",
"b.b.b.b.b.b.b.b.G.z.G.z.b.z.G.G.G.z.G.b.b.G.b.b.b.b.b.b.b.b.G.z.b.b.b.b.b.b.b.b.b.b.b.G.b.b.b.b.b.b.",
"b.b.b.b.b.G.b.b.G.z.G.G.b.G.G.z.G.G.b.b.b.b.b.b.b.b.b.b.b.b.G.G.b.b.b.b.b.b.b.b.b.b.b.b.b.b.b.G.b.b.",
"b.b.G.z.b.b.b.b.G.G.b.b.z.G.b.b.z.G.G.z.G.G.b.b.b.b.b.b.b.G.b.G.b.b.b.b.b.b.b.b.b.b.b.b.b.G.b.b.G.z.",
"b.b.G.G.b.b.b.b.z.b.b.b.G.b.b.b.z.G.G.z.G.z.b.b.b.b.b.b.z.G.G.z.b.b.b.b.b.b.b.b.b.b.b.b.b.b.b.b.G.G.",
"b.b.b.b.b.b.b.b.b.b.b.b.G.z.b.b.G.G.G.G.G.H.J.J.J.J.J.m.m.b.b.b.b.b.b.b.b.b.b.b.b.b.b.b.b.b.b.b.z.G.",
"b.b.b.b.b.b.b.b.b.b.b.b.G.G.b.b.G.z.G.G.H.K.L.U.U.U.U.P.K.M.x.b.b.b.b.b.b.b.b.b.b.b.b.b.b.b.b.b.z.G.",
"b.G.G.b.G.z.G.G.G.G.z.G.b.b.b.m.J.J.K.K.Y.P.(.[.'.oX'.(.P.S.S.M.m.m.m.b.b.b.b.b.b.b.G.G.G.b.b.b.G.G.",
"b.z.b.b.G.z.G.z.z.G.z.G.b.b.m.K.P.].}./.^.(.P.(.(.(.(.~.(.^.[.P.I.v.x.m.b.b.b.b.b.b.b.z.G.b.b.b.G.z.",
"G.G.b.b.b.G.G.z.b.b.G.b.m.J.K.~.`..X{./.E.L.D.L.D.D.L.D.L.~.^.^.[.S.M.m.m.b.b.b.b.b.b.G.G.b.b.b.G.z.",
"z.z.G.b.b.b.G.G.b.b.b.b.M.L././.`.W.R.C.c.v.c.c.c.c.c.c.N.v.C.D.E.E.[.v.x.b.b.b.b.b.G.z.G.b.b.b.G.G.",
"G.G.b.b.b.G.z.G.b.b.m.S.F.`.{.^.R.A.B.l.k.l.t.t.l.l.l.l.k.k.l.N.A.E.E.F.S.m.b.b.b.G.b.b.G.b.b.b.z.G.",
"G.z.G.G.G.z.G.G.b.b.J.[.{.{.^.C.n.l.l.k.x.x.x.v.n.n.G.k.k.t.y.a.v.v.F.[.[.S.x.b.z.G.b.b.G.b.b.b.b.G.",
"G.G.z.z.G.G.z.z.m.m.L.}.|./.D.c.k.y.c.n.M.M.S.S.M.C.C.n.l.N.l.y.a.x.S.{.{.F.S.m.G.z.b.b.G.b.b.b.b.z.",
"z.G.G.G.z.G.G.G.m.L./.}.`.Z.n.l.l.V.Z.L.P.P.P.D.V.s.).R.~.Z.B.l.k.a.a.).[.{.^.n.z.z.G.b.G.b.b.b.b.G.",
"b.b.b.b.b.b.b.G.J.].}.^.L.c.k.c.N.).R.R.).h.g.f.6.5.7.d.g.g.s.v.l.k.c.B.R.{.OXT.l.G.G.b.G.b.b.b.b.G.",
"b.b.b.G.b.b.b.H.Y.}.}.L.n.l.y.B.R.~.R.f.2.S D b x i + v D <.p.A.Y.l.l.l.B.!.!./.L.l.z.b.G.b.b.b.b.G.",
"b.b.b.b.b.b.G.J.P.}.}.C.z.l.c.V.~.~.g.5.Z x y e e & 3 + l v G d.g.a.u.l.c.D.!.|.^.C.z.z.G.b.b.b.G.z.",
"b.b.b.b.b.b.J.P.`.}./.n.k.k.N.P.~.C.r.Z t g ` / / W , < - 0 + L H 6.w.k.l.c.Z.!.{.C.n.b.G.b.b.b.G.G.",
"b.b.b.b.b.b.J./.{.{.R.n.l.t.B.~.~.a.,.V 7 ` ] [  .} { ( 1 < 9 7 B T 4.u.u.k.B.}.|.F.M.b.b.b.b.b.z.z.",
"b.b.b.b.b.b.T.]..XW.V.c.c.V.D.~.D.w.:.u 8 _ ..@.#.-.O.g s ` ^ ~ Q w B :.q.u.C..X X^.K.x.b.b.b.b.G.G.",
"G.z.b.b.G.b.K.|. XW.V.a.a.).E.`.).1.M u ( _ | _.*X;X&X%.o. .] ! ! > q M >.u.n./.|.`.L.n.k.b.b.b.z.G.",
"G.G.b.b.G.G.L.+X@X!.V.N.a.R.{..Xh.,.k q 1 ( @.<X4X4X2X>X=Xo.{ 1 > > * l m q.n.~.`.].~.n.z.b.b.b.G.G.",
"z.G.b.b.G.G.I.#X@X`.s.a.N.E.{..Xh.,.l q 8 ) X.:X4X4X2X>X=Xo.( 1 > > * o m q.n.~.}./.^.n.z.G.b.G.G.z.",
"b.G.b.G.G.G.U.#X@X[.s.a.N.^..XXX9.v + 7 1 ' ;.3XwXwX0X2X*X$.g w 2 : * O n 0.z.L.^.!.^.n.z.b.b.G.G.G.",
"b.b.b.G.G.H.U.#X+XE.v.k.n.~.Q.9.T f 8 / } o.;.7XqXqXwX1X%X$.j q ; # ; O M w.z.Z.E.!.~.n.z.b.G.z.z.b.",
"b.b.b.z.G.H.U.#X+XF.x.z.n.P.h.K i ' / ] X.=.:X7XqXwX5X,X_.R f 0 ; @ ; O M w.l.Z.R./.^.n.z.b.G.z.G.G.",
"G.G.G.z.G.H.U.#X+XF.x.x.x.D.f.Z r ` [  .#.<X7X7X8X5X2X-XR Y d 5 $ # 0 b 4.w.z.v.D./.~.M.z.G.G.G.G.G.",
"G.z.G.G.G.H.U.OX|.F.x.x.x.B.f.K i ` [  .#.<X9X9X5X2X,X$XU p 6 3 $ = u H 6.y.k.v.S./.^.J.G.G.z.G.G.z.",
"z.G.z.G.G.G.Y.OX|.F.x.z.n.D.g.<.b s _ ] O.*X2X5X5X1X%XR Y r 3 3 & = B 7.V.c.l.C.R./.^.J.G.G.z.G.z.G.",
"z.G.G.G.G.G.K.OX|.F.M.k.z.T.B.r.F f ( _  .;.-X1X1X-X;.U h X X 4 6 y N g.L.n.c.Z.E./.^.M.z.G.G.G.z.G.",
"G.G.G.z.G.G.T.}.|.^.K.n.k.z.y.r.G r 9 ( ) | +.$._.$.U I t X X & 6 C 7.Q.P.c.c.Z.^.].(.n.z.G.z.G.G.z.",
"G.z.G.G.G.z.J.].|.].P.n.k.k.l.w.<.x a 6 1 < 1 | o.I f d 6     & y 8.g.R.L.c.c.L.(.(.I.n.b.G.z.G.G.z.",
"b.G.z.G.G.G.J.P.].|.`.n.k.k.k.t.2.S v + = & , ^ ^ { w & % % ; 0 V 9.W.Z.M.x.v.E.^.I.J.G.G.z.G.G.G.G.",
"b.G.z.G.z.G.m.T.'. X|.D.z.k.k.t.u.e.S k o = < ! ! E : & @ @ . z H h.(.C.c.x.n.^.^.K.G.G.G.G.G.z.z.G.",
"b.G.z.G.G.z.G.G.Y.|. X/.L.l.k.z.l.k.w.>.m c O 1 Q E > # # ; O N d./.^.n.l.c.S.^.~.J.G.G.G.z.G.G.z.G.",
"G.z.G.G.G.G.G.z.T./.|..X/.L.n.z.z.z.k.q.>.>.n z w w w * 0 O M i.Q.~.L.n.l.C.D.^.^.H.G.z.G.G.G.z.G.G.",
"G.G.z.z.b.G.G.G.G.K.(.#X#X.X/.C.k.z.k.k.k.q.0.:.n c c c n 4.i.Q.~.T.l.l.c.D.^.^.P.m.G.G.G.G.G.z.G.z.",
"z.G.G.G.z.G.z.G.G.G.Y.oX#X+X X/.L.n.z.n.z.z.l.w.0.3.4.2.6.g.).L.K.z.z.z.C.^.].P.K.H.z.G.G.z.G.G.G.z.",
"b.b.b.b.G.z.z.G.G.b.G.Y.(.OX+X#X|.!.~.~.Y.L.Y.R.R./.!.!.!./.~.T.n.z.x.Z.D.[.(.K.n.b.b.b.G.b.b.b.b.G.",
"b.b.b.b.G.G.G.G.b.b.G.G.Y.(..X#X#X X}./././.].}.oXOXOXoXoX(.L.z.k.z.n.D.E.^.Y.m.b.b.b.b.b.b.b.b.b.b.",
"b.b.b.b.z.G.G.z.b.b.b.G.G.J.Y.^.oX X#XOXOX X X X X X].L.T.J.G.z.b.G.J.U.P.S.M.m.b.b.b.b.b.b.b.b.G.G.",
"b.b.b.b.b.G.G.z.b.b.z.b.b.z.n.K.~./.!.}..X}.}.}.{.^.L.C.k.z.z.z.G.G.J.I.P.M.x.b.b.b.b.b.b.b.b.b.z.G.",
"b.b.b.b.b.b.G.G.G.z.z.z.z.k.z.n.n.n.C.C.C.n.n.C.n.n.n.l.z.z.z.b.G.G.H.J.H.z.z.k.z.z.G.z.b.b.b.b.z.G.",
"b.b.b.b.b.b.z.G.G.G.G.b.b.b.b.b.b.b.b.b.b.b.G.b.G.b.b.G.b.b.b.b.G.b.G.G.b.b.b.b.G.b.G.G.b.b.b.b.G.G.",
"b.b.b.b.b.b.G.G.z.G.b.b.b.b.b.b.b.b.b.b.b.b.b.b.b.b.b.b.b.b.b.b.G.G.G.z.b.b.G.G.G.z.z.G.G.G.b.b.G.z.",
"b.b.b.b.b.b.b.z.b.G.b.b.b.b.b.b.b.b.b.b.b.b.b.b.b.b.b.b.b.b.b.b.z.z.G.G.G.G.z.z.G.G.G.G.z.z.G.b.G.z.",
"b.b.b.b.b.b.b.b.b.b.b.b.b.b.b.b.b.b.b.b.b.b.b.b.b.b.b.b.b.b.b.b.G.G.G.G.G.G.z.G.z.G.G.G.z.G.z.G.G.z.",
"b.b.b.b.b.b.b.b.b.b.b.b.b.b.b.b.b.b.b.b.b.b.b.b.b.b.b.b.b.b.b.b.G.z.z.G.z.G.z.G.G.G.z.G.b.G.G.b.G.G."
};
