/* XPM */
static char *result[] = {
/* columns rows colors chars-per-pixel */
"50 50 92 1 ",
"  c #1163BE",
". c #0763C6",
"X c #0B65C6",
"o c #0063CE",
"O c #0A65CC",
"+ c #0668CD",
"@ c #0C6ACD",
"# c #1266C4",
"$ c #1369C6",
"% c #1E6DC6",
"& c #1065CC",
"* c #146CCB",
"= c #1A6DCB",
"- c #1F72CD",
"; c #0365D3",
": c #0A64D0",
"> c #0468D5",
", c #0C6BD2",
"< c #0065D8",
"1 c #166FD2",
"2 c #1A6CD1",
"3 c #1671D0",
"4 c #1D74D2",
"5 c #1574D9",
"6 c #1778DB",
"7 c #1C7ADD",
"8 c #236EC3",
"9 c #206FCC",
"0 c #2271C8",
"q c #2174D2",
"w c #267BD3",
"e c #2A7BD3",
"r c #257EDD",
"t c #2B7CDA",
"y c #307BD1",
"u c #317CD8",
"i c #2C81D6",
"p c #2F82DC",
"a c #3282D5",
"s c #3A82D4",
"d c #3483DA",
"f c #3688DD",
"g c #398ADD",
"h c #2C84E3",
"j c #2485E8",
"k c #2A87E9",
"l c #3685E1",
"z c #3C8DE4",
"x c #308FED",
"c c #3893EF",
"v c #3B95F1",
"b c #428CDC",
"n c #4690DE",
"m c #448DE2",
"M c #4295E5",
"N c #4994E2",
"B c #4E99E7",
"V c #4395EB",
"C c #4B97EB",
"Z c #4C9CED",
"A c #5E9DE6",
"S c #549CEC",
"D c #589DEF",
"F c #4E9BF2",
"G c #529FF2",
"H c #54A1EE",
"J c #5DA5ED",
"K c #54A4F3",
"L c #5AA4F3",
"P c #5DAAF6",
"I c #5BA7F8",
"U c #57A9F9",
"Y c #5EABF9",
"T c #5FB0F9",
"R c #64A3ED",
"E c #68A7EF",
"W c #6EA8EE",
"Q c #60A6F4",
"! c #65ACF6",
"~ c #6BACF4",
"^ c #62ADFB",
"/ c #73ADF5",
"( c #64B3FB",
") c #6DB3FC",
"_ c #6EBEFF",
"` c #72B5F7",
"' c #72B5FC",
"] c #7BB6FB",
"[ c #74BAFA",
"{ c #7CBBFC",
"} c #7CC0FF",
"| c #82C3FE",
/* pixels */
"oooooooooooooooooooooooooooooooooooooooooooooooooo",
"oooooooooooooooooooooooooooooooooooooooooooooooooo",
"oooooooooooooooooooooooooooooooooooooooooooooooooo",
"oooooooooooooooooooooooooooooooooooooooooooooooooo",
"oooooooooooooooooooooooooooooooooooooooooooooooooo",
"oooooooooooooooooooooooooooooooooooooooooooooooooo",
"oooooooooooooooooooooooooooooooooooooooooooooooooo",
"oooooooooooooooooooooooooooooooooooooooooooooooooo",
"oooooooooooooooooooooooooooooooooooooooooooooooooo",
"oooooooooooooooooooooooooooooooooooooooooooooooooo",
"oooooooooooooooooooooooooooooooooooooooooooooooooo",
"ooooooooooooooooooooooooooooooooo;oooooooooooooooo",
"oooooooooooooooooooooooooooooooooooooooooooooooooo",
"oooooooooooooooooooooooooooooooooooooooooooooooooo",
"oooooooooooooooooooooooooooooooooooooooooooooooooo",
"ooooooo;oooooooooooooooooooooooooooooooooooooooooo",
"oooooooooooo;:o;oooooooo;oooooo;;;><;><<<<<ooooooo",
"oooooooooooo;OoO:ooooooooo+++,,Oo;>>;<<;;;;ooooooo",
"ooooooooooooooo..ooooooo+@334hr1.::<>;;;:o:ooooooo",
"oooooooooooo:oOoo.o:+o.X#wggzKVd=:::<<:;;;:ooooooo",
"oooooooooooo;;;::;o@OX#8aR`[[}[Qmq2:::;+o;;ooooooo",
"ooooooooooooo;;oooo@&#%yN`|||}{'Du9&O:;;o;;ooooooo",
"ooooooooooooooo;O..  8sS~{]]]W/]'Cg=#O+OO;oooooooo",
"ooooooooooooooo.XXX%0bD!'~QERAR!)QGue#++o:Oooooooo",
"oooooooooooooo..#qtFG()^LBNnNnnNH(}TUi3+oooooooooo",
"oooooooooooooOO#=fVIY^YGCgddaiagMP((Tzi5:::ooooooo",
"ooooooooooooo.&9uK^^YFVzd4==*$*-izZ^(Tvj2::<oooooo",
"ooooooooooooO14tlzzlutq21,OO@+@@*qwfgvvxr5:ooooooo",
"oooooooooooo;&2qqq922:O:o<<>>>oo:.O#*qr77,<;oooooo",
"oooooooooooooO.XXXX::::;:;;>>>>>o::O:OOo<::;oooooo",
"oooooooooooooooooo;ooooooooooooooooooooooooooooooo",
"oooooooooooooooooooooooooooooooooooooooooooooooooo",
"oooooooooooooooooooo<ooooooooooooooooooooooooooooo",
"oooooooooooooooooooooooooooooooooooooooooooooooooo",
"oooooooooooooooooooooooooooooooooooooooooooooooooo",
"oooooooooooooooooooooooooooooooooooooooooooooooooo",
"oooooooooooooooooooooooooooooooooooooooooooooooooo",
"oooooooooooooooooooooooooooooooooooooooooooooooooo",
"oooooooooooooooooooooooooooooooooooooooooooooooooo",
"oooooooooooooooooooooooooooooooooooooooooooooooooo",
"oooooooooooooooooooooooooooooooooooooooooooooooooo",
"oooooooooooooooooooooooooooooooooooooooooooooooooo",
"oooooooooooooooooooooooooooooooooooooooooooooooooo",
"oooooooooooooooooooooooooooooooooooooooooooooooooo",
"oooooooooooooooooooooooooooooooooooooooooooooooooo",
"oooooooooooooooooooooooooooooooooooooooooooooooooo",
"oooooooooooooooooooooooooooooooooooooooooooooooooo",
"oooooooooooooooooooooooooooooooooooooooooooooooooo",
"oooooooooooooooooooooooooooooooooooooooooooooooooo",
"oooooooooooooooooooooooooooooooooooooooooooooooooo"
};
