/* XPM */
static char *result[] = {
/* columns rows colors chars-per-pixel */
"50 50 78 1 ",
"  c #135FBE",
". c #0F62B4",
"X c #0E62BB",
"o c #1062B6",
"O c #1162BB",
"+ c #1965BB",
"@ c #135FC0",
"# c #0463C5",
"$ c #0B63C5",
"% c #0465CD",
"& c #0A64CC",
"* c #0268CE",
"= c #0968CF",
"- c #1364C3",
"; c #156CC6",
": c #1869C6",
"> c #1065CF",
", c #136ACC",
"< c #1B6CCC",
"1 c #1A70CB",
"2 c #0365D3",
"3 c #0965D2",
"4 c #0469D4",
"5 c #0D6DD4",
"6 c #0265D9",
"7 c #126CD3",
"8 c #186AD0",
"9 c #1C74D3",
"0 c #1678DB",
"q c #206FC4",
"w c #206FCB",
"e c #2171C4",
"r c #2676C9",
"t c #2378CE",
"y c #247BD2",
"u c #287BD6",
"i c #337DD1",
"p c #1A7AE0",
"a c #3583DD",
"s c #3A89DD",
"d c #2E81E0",
"f c #2889EF",
"g c #3B8CE4",
"h c #388DE8",
"j c #3B90E1",
"k c #3C95F1",
"l c #418CDB",
"z c #4190DE",
"x c #4591E0",
"c c #4895E3",
"v c #4293EC",
"b c #4D98E8",
"n c #5698E1",
"m c #599AE4",
"M c #4B9AF2",
"N c #509FF0",
"B c #509EF8",
"V c #5EA0E9",
"C c #42A3FF",
"Z c #55A4F4",
"A c #5AA5F4",
"S c #5BA7FC",
"D c #50AAFF",
"F c #5FADFA",
"G c #6BA3EA",
"H c #61A7F3",
"J c #65A9F6",
"K c #65ACFD",
"L c #70A9F2",
"P c #65B3FF",
"I c #6BB5FF",
"U c #68B8FF",
"Y c #7BB5FB",
"T c #74BBFF",
"R c #7EBCFF",
"E c #71C1FF",
"W c #7AC4FF",
"Q c #83C4FF",
/* pixels */
"ee+X......... O@@@@@OO oOooO..OoO      OXX.X.XXXO.",
"ee-.X.... ....@@@@    oooooo. oO      X XXXOXXXXXX",
"##442%**%%%226666666266334462223632232342222222622",
"&&3642%%%%3226666333224666542644222222622222226224",
"&&264%2%%&23666263222226666226432222%2224422222222",
"&&22662%%22266624%2%32223232344622%22%626662662666",
"3>6622232%2236626%%2442262222262222222626626222262",
"36666263%%&&2222222%222222266222464444644666666666",
"32226323##&&%%%%*2%%#*==&&&775&%&62262222626626326",
"23622333&3&#%%%%%2%%%*&=&&3777#%262626622226222622",
"33322&2&&&&&#&#%*%*####ytyyvhh@3#2362622#&6&#332%%",
"%&2&2&2&&&#&&##%*%#*##Xtuwykhh,,#3366462#6&#23#&&%",
"%**2242363&622222#&,X-rAVAAQPKsg@>>336&662#6&22223",
"%%%44666666&6#2&=$--iiAQQQQQQQJJi88>@&66&6%2222226",
"***44464&6662#3&&--:iiHQQQQQQRKKi88>366&2222222222",
"%2%22222#&#&###@O+iiJJQYYRYGLLRRLai>@@&#%33#2&2222",
"**22222&*#&##$$OO+iiJJQYYYYGLLRRPaa::$&&**&2%22223",
"22%224%%&&&$$-$qelPKTTIVVVVmmmJLUFKss:$$&*%%%2%222",
"*2%2%%%&$;$X:aaNZIIIAAbxzzxlllccFEEPPz992&%%%33362",
"**2%%%%&$$X$;aaZZIITSAbxzcxlllccFEEUPz99=2#&233%22",
"2%%%%&&$$$wwvPPIKSbMggu1111;;;dtjZZUIIkkpp=&342236",
"*42%%&&$XXwwvPPKPSMMggu1111-;;ddjZZUUPkkpp543%&233",
"%2%%%=&9ddMMBvvdauw8,,3##*#**&.X;ttssZSDCCf77%%222",
"2%232&3=88w8w<w88>3>3336426422%*&$$,-<80005%*%%333",
"%2%%2&3&,,w1w<:8>>3&32%6466666%%#@&@>887005#%%%32%",
"%*222%%&$$&&$&$3>&22226%2626222262&&&&3#%%%%%2%%22",
"3%2%2%2&$%$$$$$333222326262222223#3&&&&#%%%%%%%232",
"2422342232343%322222%62222222266366366&6%%%%%%2&%2",
"2%22446232&32=*42242222222222222662626%2%%%%%2%22&",
"22224422%24&&3*222422222222232632232662%%%%%%%2%22",
"22264634624244422*%*%%%%#22&2#2&22622622%2%%2%%222",
"2%2664664266442*42**%%%%%##&2&&222266622%%%%%%2%22",
"4%44626622626226%%%%%*%#%%#*%%%%%22666%22222%22%22",
"24266222262222222%%%***%%%%%%%%*%%2%%2222222622222",
"2%62626422226222%2%&*%%%%%%%%%%*%%%222222222222222",
"322622222222222%%6%2%22626222222222%%2226662226222",
"222446222222222%%22222642622262222%2%262%622262222",
"23222222&2%%%2%%222266446466466622223%226662226222",
"%2*222222%%2%%%6222222222226222222222%22%6222222%2",
"%%2222*26%%2%%%22%22222222222222222%22226%22222222",
"****222%%%%%%%%222222%2222222222222%222%%622222%22",
"**22*%222%2%%%%%%2222222%22*222%22222222222%222222",
"%*%22*%2222%%%%2%22222222222%2222%222%22%2222%22%2",
"%**2*22222222622222*22%222222222222222222222222222",
"**%2%22222222222222222222%2222%2222%2222222%222%22",
"442%2%%2222666622222%22222222222222222%22222222222",
"22*%2222222226622222222%22222222%22222222%222%22%2",
"24%22&2&2&2%226%22%2222222%22%222222%2222222222222",
"24622%%&&##**%*%2222222*22%2222222%22222222222%222",
"64222%%%%&%#**%222%222222222222%2222222%222%222222"
};
