/* XPM */
static char *result[] = {
/* columns rows colors chars-per-pixel */
"50 50 75 1 ",
"  c #0D65C6",
". c #0063CE",
"X c #0A65CB",
"o c #0B68CD",
"O c #1167C6",
"+ c #1B6BC6",
"@ c #1166CD",
"# c #136BCB",
"$ c #1A6CCD",
"% c #1B72CD",
"& c #0365D2",
"* c #0964D1",
"= c #0769D3",
"- c #0B6BD2",
"; c #126ED3",
": c #0F70D8",
"> c #1671D3",
", c #1B74D5",
"< c #1573D8",
"1 c #1B75D8",
"2 c #1978DE",
"3 c #2474CD",
"4 c #2875CD",
"5 c #2C78CE",
"6 c #2177D2",
"7 c #2A77D5",
"8 c #2479D3",
"9 c #2979D6",
"0 c #237EDD",
"q c #327FD4",
"w c #2D81D7",
"e c #2E81DA",
"r c #3383D5",
"t c #3A83D7",
"y c #3485DA",
"u c #3B8BDE",
"i c #2481E3",
"p c #2982E1",
"a c #368CE4",
"s c #3D8CE4",
"d c #3F90E3",
"f c #3D93E9",
"g c #4790DD",
"h c #4991DF",
"j c #438DE3",
"k c #4491E4",
"l c #4D96E4",
"z c #4194EA",
"x c #4997EE",
"c c #4C9BED",
"v c #5299E6",
"b c #5E9EE7",
"n c #549CEB",
"m c #4F9FF0",
"M c #529FF3",
"N c #52A1EE",
"B c #55A3F3",
"V c #5AA4F3",
"C c #5DAAF5",
"Z c #5DA9F9",
"A c #5FB0F7",
"S c #64A4ED",
"D c #65A7F0",
"F c #65AAF3",
"G c #69ACF6",
"H c #62ABF8",
"J c #6CAEF9",
"K c #71AEF3",
"L c #68B0F4",
"P c #62B2FA",
"I c #69B0F9",
"U c #70B2F6",
"Y c #74B4F9",
"T c #79B7F9",
"R c #7CBCFC",
/* pixels */
"..................................................",
"..................................................",
"..................................................",
"..................................................",
"..................................................",
"..................................................",
"..................................................",
"..................................................",
"..................................................",
".................................&................",
"................................&&&&..............",
".....*...*.........&..&&..*.&&&&&&&&&.............",
"......*..X.........oooo=-**&&&&&&&&&..............",
"......**X. ......Xoo>>,e0,@*&&&&&&&&&.............",
".....&.*....X.XX O#wuufBxa7;**&&&&&.&.............",
"......&.**.X.XX #3rNGGLIJbz7$;*&*&&**.............",
".....&.....XX O+4tvURRRTRUDs7$@****&&.............",
"..........XX O+5uvDYTTTKKYJns7$@@***..............",
".......XXX #$4qknFLGDDSbbSGHBzq7@****.............",
".......X O%8ykcZHFVvlllgllnCPVns7:***.............",
"......oX +wdmVZZVBxuyrrrwydNAPPBs02*..............",
"......X@$9sBVVMxza96%%%%%%wyafzf072:*.............",
"......o..->111,;;;ooo.....o=----****..............",
"....................&.&.......o...*...............",
"..................................................",
".......Xo.&oo&=*-.o&o&o.ooooo.o=..*.**............",
"..................................................",
"..................................................",
"..................................................",
"..................................................",
"..................................................",
"..................................................",
"..................................................",
"..................................................",
"..................................................",
"..................................................",
"..................................................",
"..................................................",
"..................................................",
"..................................................",
"..................................................",
"..................................................",
"..................................................",
"..................................................",
"..................................................",
"..................................................",
"..................................................",
"..................................................",
"..................................................",
".................................................."
};
