/* XPM */
static char *result[] = {
/* columns rows colors chars-per-pixel */
"50 50 106 2 ",
"   c #135FBE",
".  c #0F62B4",
"X  c #0F62BA",
"o  c #1062B6",
"O  c #1262BC",
"+  c #1F6ABF",
"@  c #135FC0",
"#  c #0664C6",
"$  c #0B64C5",
"%  c #0364CE",
"&  c #0A64CC",
"*  c #0268CE",
"=  c #0C69CD",
"-  c #1364C3",
";  c #146BC5",
":  c #1B6BC5",
">  c #1066CE",
",  c #146ACA",
"<  c #1B6CCC",
"1  c #1670CB",
"2  c #1C72CC",
"3  c #0365D3",
"4  c #0965D1",
"5  c #0469D3",
"6  c #0B6BD2",
"7  c #0265D9",
"8  c #156BD1",
"9  c #186AD0",
"0  c #1472D5",
"q  c #1C73D3",
"w  c #1271D9",
"e  c #1975D9",
"r  c #1678DB",
"t  c #1F7BDB",
"y  c #216FCB",
"u  c #2171C4",
"i  c #2474CC",
"p  c #2978CC",
"a  c #327BCE",
"s  c #2374D5",
"d  c #247AD3",
"f  c #287AD5",
"g  c #2C7EDA",
"h  c #347DD0",
"j  c #1B7CE0",
"k  c #2781DE",
"l  c #2D82DC",
"z  c #3383D5",
"x  c #3484DA",
"c  c #3B85DC",
"v  c #3388DB",
"b  c #3B8BDC",
"n  c #2585E5",
"m  c #2985E3",
"M  c #2686EA",
"N  c #3786E0",
"B  c #3C8BE3",
"V  c #318CEC",
"C  c #388DE8",
"Z  c #3F90E2",
"A  c #3F95EE",
"S  c #3292F2",
"D  c #3C95F1",
"F  c #428CDB",
"G  c #4490DE",
"H  c #428CE4",
"J  c #488FE4",
"K  c #4592E3",
"L  c #4B95E4",
"P  c #4494EB",
"I  c #4996EC",
"U  c #4B9CEA",
"Y  c #5497E1",
"T  c #5698E3",
"R  c #529DED",
"E  c #5B9EE8",
"W  c #419DF7",
"Q  c #4C9AF0",
"!  c #529EF1",
"~  c #4DA0EE",
"^  c #5FA2ED",
"/  c #48A1F9",
"(  c #54A3F3",
")  c #5CA5F4",
"_  c #5BAAF7",
"`  c #5AA6F9",
"'  c #5DAAFA",
"]  c #6CA4EB",
"[  c #6EA8EE",
"{  c #64A8F5",
"}  c #64ADFC",
"|  c #6CAFFC",
" . c #71ABF3",
".. c #6AB1F4",
"X. c #65B3FE",
"o. c #6CB3FD",
"O. c #67B8FB",
"+. c #6ABAFE",
"@. c #75B0F7",
"#. c #74B4FB",
"$. c #7BB6FB",
"%. c #75BAFB",
"&. c #7CBBFD",
"*. c #71C1FF",
"=. c #7FC3FF",
"-. c #83C5FF",
/* pixels */
"u u - X X . . . . . . . .     @ @ @           . .   O o o o o o     o     @ O O X X X X X X X X X X ",
"u u O o X . . . .   . . .     @ @ @             . . o O o O o o O         @   O X X X X X X X X X o ",
"# # 5 5 3 % * * % % 7 % 3 7 7 7 7 7 7 7 7 7 7 7 % 3 3 3 3 3 7 5 7 4 7 3 7 7 3 3 3 5 7 5 7 3 % 3 3 3 ",
"& & 5 3 5 % 3 # & % & % 3 7 7 7 7 4 3 3 3 3 4 4 6 3 6 7 3 3 7 6 3 3 4 % 4 4 3 3 3 3 3 3 3 3 3 7 7 5 ",
"& & 3 3 7 % 3 % % & 7 7 7 7 7 7 4 7 3 3 3 3 3 7 5 7 3 3 3 5 5 7 3 3 3 3 % 3 3 3 7 5 3 3 3 7 3 3 3 3 ",
"& & 3 7 7 5 3 4 7 & % & 7 7 7 % 7 & 3 % 7 3 3 3 4 3 7 3 3 7 4 5 3 % 3 3 3 3 3 3 3 3 7 3 7 7 3 7 7 3 ",
"4 > 3 7 3 7 3 4 % % 7 & 7 7 7 7 3 % % 3 3 3 3 3 3 7 3 3 3 3 3 4 % 3 % 3 3 3 3 3 3 7 3 7 7 7 7 7 3 7 ",
"4 7 7 7 7 7 3 3 % & & 7 & & % 7 % 3 3 % 3 3 3 3 7 4 3 3 3 3 % 3 3 % 3 3 3 3 7 7 7 7 7 7 3 7 7 3 7 7 ",
"4 3 3 7 3 3 4 4 & & & % @ % % % % 3 % % % % % % % % % 3 % 3 % % % 3 3 3 3 3 3 7 7 % 7 7 3 3 3 3 3 3 ",
"4 3 7 4 3 3 3 4 & & & # % % % % % % % % % % % % % % % 3 % % % % % % % 3 % 7 3 7 7 7 % 4 7 3 7 3 3 3 ",
"4 4 4 3 4 4 % & & & & # # # # % % % % % % % % % % % % 4 3 3 % % % % % 3 3 7 3 3 & & % 3 3 & 4 & 4 3 ",
"% & 3 & % 4 4 & & % # 7 7 % % % 3 % 3 % % % % % % % % % % % % % % 3 % % 7 3 7 3 3 7 3 7 7 7 7 3 7 4 ",
"% * % 3 3 7 7 3 3 3 % 7 % % % % % % % % % % % % % % % % % % % 4 5 = % % 3 7 3 3 7 7 3 7 3 3 3 7 3 3 ",
"* % * 5 5 7 7 3 % % % % % % 7 @ # % % % % % % % % % % & 4 & > 8 w 8 % % 4 7 3 3 3 3 7 % 3 3 3 7 3 3 ",
"* % % 5 5 3 7 3 % % 7 % % % @ % # # # # % % % * % # # 1 d d s P C l > $ % 4 3 7 7 4 % 3 % % 3 % % 3 ",
"% * 3 3 5 5 % % % % % % % 7 7 % % % % % % % * # # # ; v Z B P ' ! P f , & 4 7 4 7 4 3 3 3 4 & % 4 3 ",
"% % 3 3 % 7 7 % % % % % % 3 3 3 3 3 % % = = $ - < i b ..%.%.%.-.$.o.! c < 9 > 4 7 7 4 3 % 3 4 3 3 4 ",
"% % 3 3 3 % % # % % % 7 % 3 % 3 3 3 % % 4 & - - y h Y &.-.-.-.-.-.%.} J y < 4 @ 4 4 4 3 % 3 3 3 3 3 ",
"3 % 3 % % % % % % % % % % % % % % % # # - O : h F {  .&.$.$.$.[  .#.$...H g y - $ % & % 4 3 % 3 3 4 ",
"% 3 3 % % % % % % % % % % % % % % # $ # O O + h G { $.&.$.$.$.]  .#.&.%.J g y < $ & & & % % 4 3 3 3 ",
"7 3 % % % & % % % # % % % % % # $ $ ; ; i p L } o.%.o.^ ^ E E Y T ^ _ O.X.X.Z B < $ & % % % % % % 7 ",
"3 % % % % & % % % % % % % % % $ @ - g v ! ( o.+.X.) R L G G G F b Z G ^ +.*.X.X.F 9 0 6 % = 3 4 4 3 ",
"3 4 3 % & % % & & 7 % % % % & $ - 2 H P ' ' } } ) U L v z c z z z z b U X.O.X.+.U g t 6 = % 5 4 4 3 ",
"% % 3 % % & 7 % % % % % # % $ ; y N ' X.X.} ` Q P C l i 1 1 1 ; + 1 l v ~ ( X.o.X.D V j w 4 = 4 % 4 ",
"4 % % % 3 % % % % % & % % & 9 g N P ! ! I I H g g f 9 , > , = $ $ > < 2 v b U U _ / W S M w 6 % % 4 ",
"% 3 3 % % 3 % % % % % % = > q s g g f s s s 8 > 4 4 4 3 3 3 5 5 3 % % & = , < y g m n n j 6 4 % % 4 ",
"4 % 3 3 3 % % % % % % % 5 & , < s y 9 < 9 9 & & & 4 3 3 7 7 7 5 7 7 3 4 $ $ - > < e e r e 6 % % % 4 ",
"3 3 3 3 3 3 % 3 3 % % % % & $ & $ & $ $ 4 4 % 3 5 4 3 7 3 3 3 7 3 3 3 4 % & & & & # % % # * % % 3 3 ",
"3 % 3 3 3 % 3 % % % 3 % 5 % % 5 3 7 3 5 3 3 3 3 3 3 3 3 3 3 4 3 3 7 4 7 3 7 3 % % * = % % 4 % 3 3 % ",
"3 3 3 3 3 3 3 3 % 3 % 3 = 4 * 3 3 7 5 3 % % 3 3 3 3 3 3 3 3 3 7 7 3 7 3 7 3 % 3 % % % % % % 3 % 3 3 ",
"3 4 3 3 3 3 3 3 3 3 3 5 7 3 7 * 5 * * * * * % % % % % % % & 4 4 3 3 3 7 7 7 3 3 % % 5 % % 3 % 3 3 3 ",
"3 3 3 7 3 7 3 3 3 3 3 3 7 3 3 * 5 * * * % * % & % % # & % % % 3 4 7 3 7 3 7 3 3 % 3 % % % % 3 % 3 3 ",
"3 % 7 3 7 3 3 3 7 3 3 7 3 7 3 % 3 % * * * * * # % % # * # * % % 5 3 3 7 3 3 3 3 3 3 3 3 3 3 3 3 3 3 ",
"3 3 3 7 7 3 3 3 3 7 7 3 3 3 3 3 % % % * # * % % % % % % % % % * % % % % 3 3 3 3 3 3 3 3 3 3 3 3 3 3 ",
"3 3 3 7 3 3 3 7 3 7 3 7 3 3 3 3 3 % % % * % * % % % % % % % % * * % 3 3 % 3 3 3 3 3 3 3 3 3 3 3 3 3 ",
"5 3 3 3 3 3 3 3 7 3 3 % 3 3 3 3 % 3 3 3 3 3 3 3 3 3 3 3 3 3 3 3 3 3 3 % 3 3 7 3 7 7 3 7 3 7 3 3 3 3 ",
"4 3 7 3 3 3 3 3 3 3 3 3 3 3 3 3 3 3 3 3 3 % 3 7 7 3 7 3 3 7 3 3 3 3 % 3 % 5 3 3 7 3 4 7 7 7 3 3 3 3 ",
"4 5 3 3 3 3 3 3 3 4 % % % 3 % 3 3 4 4 3 7 7 7 7 7 7 7 7 7 7 7 7 3 3 3 3 4 % 4 5 3 7 7 3 3 3 7 3 3 3 ",
"% * 3 5 3 5 5 3 3 % % 3 % % % 4 5 3 3 3 3 3 3 3 3 3 3 3 % 3 3 3 3 3 3 3 3 % 3 3 3 3 3 3 3 % 4 7 3 3 ",
"% % % 5 3 3 3 3 3 3 4 % % % % 3 % 3 3 3 3 3 3 3 3 3 3 3 3 5 3 3 3 3 3 % 3 3 3 3 3 3 3 3 3 3 3 3 3 3 ",
"5 * % 5 5 % 3 3 % % % % % % % 3 % 3 3 3 3 3 3 3 3 3 3 3 3 3 % 3 3 3 3 3 3 3 % 3 3 3 3 3 3 3 3 3 3 4 ",
"* * * 3 3 5 * 3 % 3 % 3 % % % * % 3 3 3 3 3 3 % 3 3 % 3 3 3 3 3 3 % 3 3 3 3 3 3 3 3 3 3 % 3 4 3 3 3 ",
"% % 3 * * * % % 3 3 % % % % % 5 3 3 % 3 % 3 3 3 3 3 3 3 3 3 3 3 3 3 3 3 3 3 3 3 3 3 % 3 % 3 3 3 3 3 ",
"* * * % 3 3 3 3 3 3 3 3 3 3 3 5 3 5 3 3 3 3 3 5 3 3 3 3 % 5 3 3 3 3 3 3 % 3 3 3 3 3 3 3 3 3 3 3 3 % ",
"% * % 5 3 3 3 3 3 3 3 3 3 7 7 3 3 3 3 3 3 3 3 3 3 3 5 3 3 3 3 3 5 3 3 3 3 3 % 3 % 3 3 3 3 3 3 3 3 3 ",
"5 * 3 % % 3 % 3 5 3 7 3 3 7 7 3 3 3 3 3 % 3 3 3 % 3 3 3 3 3 % 3 % 3 3 3 3 3 3 3 3 3 3 3 3 3 % 3 3 3 ",
"* 5 % 3 % 3 3 3 4 3 7 3 3 7 7 % 3 3 3 3 5 3 % 3 3 3 % 3 3 3 3 3 3 3 3 % 3 3 3 3 3 3 3 3 3 3 3 3 3 3 ",
"5 5 % 3 3 4 % % 4 % % % 3 7 3 3 3 3 % 3 3 3 3 3 3 3 3 3 * 3 3 3 3 3 3 3 3 3 % 3 3 3 3 % 3 3 3 3 3 3 ",
"3 7 3 3 3 % 4 % # # # * * * % 5 3 3 3 3 3 % 5 3 % 3 3 3 3 3 3 3 3 5 3 3 3 3 3 3 % 3 3 3 3 3 3 3 3 3 ",
"3 3 7 3 3 % % & & % % # * % * % % 3 3 3 3 3 3 3 3 3 3 3 3 3 3 % 3 % 3 3 3 % 3 3 5 3 3 3 % 3 3 3 % 5 "
};
