/* XPM */
static char *result[] = {
/* columns rows colors chars-per-pixel */
"50 50 86 1 ",
"  c #0D64C6",
". c #0F68C7",
"X c #0063CE",
"o c #0B65CC",
"O c #0B69CD",
"+ c #1668C1",
"@ c #196AC5",
"# c #1366CB",
"$ c #126BCD",
"% c #1A6DCB",
"& c #1D73CD",
"* c #0365D3",
"= c #0B65D0",
"- c #0468D4",
"; c #0B6BD2",
": c #0065D8",
"> c #126CD3",
", c #1C6FD2",
"< c #1271D5",
"1 c #1D73D3",
"2 c #1F78D3",
"3 c #1473DA",
"4 c #1C7ADB",
"5 c #2274CE",
"6 c #2B76CD",
"7 c #317CCF",
"8 c #2474D3",
"9 c #2976D4",
"0 c #267BD5",
"q c #2B7BD7",
"w c #2277D8",
"e c #247CDB",
"r c #297BDA",
"t c #1F7FE0",
"y c #2F82DA",
"u c #3786D6",
"i c #3586DB",
"p c #3C87D9",
"a c #3788DA",
"s c #3C8BDC",
"d c #2382E5",
"f c #2C83E1",
"g c #2F8DEC",
"h c #3484E1",
"j c #3D87E0",
"k c #368AE4",
"l c #3C8DE3",
"z c #348EEB",
"x c #3993EF",
"c c #4088DB",
"v c #418EE7",
"b c #4291E4",
"n c #4B94E3",
"m c #4A98E6",
"M c #4392E9",
"N c #4699EE",
"B c #4B9AEB",
"V c #5297E4",
"C c #569CE7",
"Z c #579EE9",
"A c #5A9FEB",
"S c #559FF1",
"D c #56A0ED",
"F c #5CA2EE",
"G c #53A2F3",
"H c #59A5F6",
"J c #5FACF6",
"K c #5DABF9",
"L c #66A2EA",
"P c #64A7F5",
"I c #6AA7F0",
"U c #64ABF5",
"Y c #6FACF3",
"T c #63AEFA",
"R c #72AFF5",
"E c #62B1FB",
"W c #6EB1F9",
"Q c #69BAFC",
"! c #71B0F7",
"~ c #78B5F6",
"^ c #73B4FA",
"/ c #78B5FA",
"( c #75B8FD",
") c #7BBDFB",
"_ c #7DC0FE",
"` c #80BDFD",
/* pixels */
"XXXXXXXXXXXXXXXXXXXXXXXXXXXXXXXXXXXXXXXXXXXXXXXXXX",
"XXXXXXXXXXXXXXXXXXXXXXXXXXXXXXXXXXXXXXXXXXXXXXXXXX",
"XXXXXXXXXXXXXXXXXXXXXXXXXXXXXXXXXXXXXXXXXXXXXXXXXX",
"XXXXXXXXXXXXXXXXXXXXXXXXXXXXXXXXXXXXXXXXXXXXXXXXXX",
"XXXXXXXXXXXXXXXXXXXXXXXXXXXXXXXXXXXXXXXXXXXXXXXXXX",
"XXXXXXXXXXXXXXXXXXXXXXXXXXXXXXXXXXXXXXXXXXXXXXXXXX",
"XXXXXXXXXXXXXXXXXXXXXXXXXXXXXXXXXXXXXXXXXXXXXXXXXX",
"XXXXXXXXXXXXXXXXXXXXXXXXXXXXXXXXXXXXXXXXXXXXXXXXXX",
"XXXXXXXXXXXXXXXXXXXXXXXXXXXXXXXXXXXXXXXXXXXXXXXXXX",
"XXXXXXXXXXXXXXXXXXXXXXXXXXXXXXXXXXXXXXXXXXXXXXXXXX",
"XXXXXXXXXXXXXXXXXXXXXXXXXXXXXXXXXXXXXXXXXXXXXXXXXX",
"XXXXXXXXXXXXXXXXXXXXXXXXXXXXXXXXXXXXXXXXXXXXXXXXXX",
"XXXXXXXXXXXXXXXXXXXXXXXXXXXXXXXXXXXXXXXXXXXXXXXXXX",
"XXXXXXX**XXoXXXXXXX*X*XX*XX*****:::::XXXXXXXXXXXXX",
"XXXXXXXXXoXXoXXXXXXXOOO;<>=X*-*******XXXXXXXXXXXXX",
"XXXXXXX*oXoXXXXXX XX$120kf1.O*::*****XXXXXXXXXXXXX",
"XXXXXXXX*OXXXXOX  .%ummmJGv8$==*:*=X=XXXXXXXXXXXXX",
"XXXXXXX***XOX*Oo @5aU)))_(Um9%#=*=***XXXXXXXXXXXXX",
"XXXXXXXXXXXXO   +6cF/_`)~/^Uc9##oX*=*XXXXXXXXXXXXX",
"XXXXXXXXXXXX  +@7nF!!RRYLI!WSv9, oOXXXXXXXXXXXXXXX",
"XXXXXXXXXoX ,8ijZUTPHCZCnVDJUTBb8$OXXXXXXXXXXXXXXX",
"XXXXXXXXo  +rlSHTTHCvsssuusmTQEKkt>==XXXXXXXXXXXXX",
"XXXXXXXXX#%qNHPKGNMk05&5&&yyBHEESgtt=XXXXXXXXXXXXX",
"XXXXXXXo$,ravNllhew1$.OO..$$yylMNxgt>XXXXXXXXXXXXX",
"XXXXXXXXo,88888,>#==**:*--XO$.%%9ww4>:XXXXXXXXXXXX",
"XXXXXX*oooo# #=o=****:**---Xoooo=*:=*XXXXXXXXXXXXX",
"XXXXXXXXXXXXXXXXXXXXXXXXXXXXXX*XXXXXXXXXXXXXXXXXXX",
"XXXXXXXXXXXXX*XXXXXXXXXXXXXXXXXXXXXXXXXXXXXXXXXXXX",
"XXXXXXXXXXXXXXXXXXXXXXXXXXXXXXXXXXXXXXXXXXXXXXXXXX",
"XXXXXXXXXXXXXXXXXXXXXXXXXXXXXXXXXXXXXXXXXXXXXXXXXX",
"XXXXXXXXXXXXXXXXXXXXXXXXXXXXXXXXXXXXXXXXXXXXXXXXXX",
"XXXXXXXXXXXXXXXXXXXXXXXXXXXXXXXXXXXXXXXXXXXXXXXXXX",
"XXXXXXXXXXXXXXXXXXXXXXXXXXXXXXXXXXXXXXXXXXXXXXXXXX",
"XXXXXXXXXXXXXXXXXXXXXXXXXXXXXXXXXXXXXXXXXXXXX:XXXX",
"XXXXXXXXXXXXXXXXXXXXXXXXXXXXXXXXXXXXXXXXXXXXXXXXXX",
"XXXXXXXXXXXXXXXXXXXXXXXXXXXXXXXXXXXXXXXXXXXXXXXXXX",
"XXXXXXXXXXXXXXXXXXXXXXXXXXXXXXXXXXXXXXXXXXXXXXXXXX",
"XXXXXXXXXXXXXXXXXXXXXXXXXXXXXXXXXXXXXXXXXXXXXXXXXX",
"XXXXXXXXXXXXXXXXXXXXXXXXXXXXXXXXXXXXXXXXXXXXXXXXXX",
"XXXXXXXXXXXXXXXXXXXXXXXXXXXXXXXXXXXXXXXXXXXXXXXXXX",
"XXXXXXXXXXXXXXXXXXXXXXXXXXXXXXXXXXXXXXXXXXXXXXXXXX",
"XXXXXXXXXXXXXXXXXXXXXXXXXXXXXXXXXXXXXXXXXXXXXXXXXX",
"XXXXXXXXXXXXXXXXXXXXXXXXXXXXXXXXXXXXXXXXXXXXXXXXXX",
"XXXXXXXXXXXXXXXXXXXXXXXXXXXXXXXXXXXXXXXXXXXXXXXXXX",
"XXXXXXXXXXXXXXXXXXXXXXXXXXXXXXXXXXXXXXXXXXXXXXXXXX",
"XXXXXXXXXXXXXXXXXXXXXXXXXXXXXXXXXXXXXXXXXXXXXXXXXX",
"XXXXXXXXXXXXXXXXXXXXXXXXXXXXXXXXXXXXXXXXXXXXXXXXXX",
"XXXXXXXXXXXXXXXXXXXXXXXXXXXXXXXXXXXXXXXXXXXXXXXXXX",
"XXXXXXXXXXXXXXXXXXXXXXXXXXXXXXXXXXXXXXXXXXXXXXXXXX",
"XXXXXXXXXXXXXXXXXXXXXXXXXXXXXXXXXXXXXXXXXXXXXXXXXX"
};
