/* XPM */
static char *result[] = {
/* columns rows colors chars-per-pixel */
"15 25 65 1 ",
"  c black",
". c #020202",
"X c #040404",
"o c gray2",
"O c #090909",
"+ c #0B0B0B",
"@ c #0C0C0C",
"# c #0E0E0E",
"$ c #101010",
"% c #151515",
"& c #181818",
"* c #191919",
"= c #1D1D1D",
"- c #202020",
"; c gray15",
": c #2F2F2F",
"> c #343434",
", c gray21",
"< c #373737",
"1 c #393939",
"2 c gray23",
"3 c #3E3E3E",
"4 c #3F3F3F",
"5 c gray25",
"6 c #434343",
"7 c #484848",
"8 c gray29",
"9 c #4E4E4E",
"0 c #535353",
"q c gray33",
"w c #5A5A5A",
"e c gray36",
"r c #606060",
"t c gray40",
"y c #676767",
"u c #6A6A6A",
"i c #6D6D6D",
"p c #727272",
"a c gray50",
"s c gray51",
"d c #868686",
"f c gray53",
"g c #8B8B8B",
"h c #8D8D8D",
"j c #939393",
"k c gray58",
"l c #959595",
"z c gray62",
"x c #9F9F9F",
"c c gray63",
"v c #A4A4A4",
"b c #A7A7A7",
"n c gray66",
"m c #AAAAAA",
"M c gray67",
"N c #ACACAC",
"B c #B4B4B4",
"V c gray71",
"C c #B6B6B6",
"Z c gray72",
"A c #BBBBBB",
"S c gray75",
"D c #C0C0C0",
"F c #C1C1C1",
"G c #C3C3C3",
/* pixels */
"GGGGGGGGGGGGGGG",
"GGGGGGGGGGGGGGG",
"GGGGGGGGGGGGGGG",
"GGGGGGGGGGGGGGG",
"GGGGGGGGGGGGGGG",
"GGGNy2**4bGGGGG",
"GGx<+o  o:gGGGG",
"GNqo     X<bGGG",
"GhO #0ze  -fGGG",
"Zi  >CFc5 X6GGG",
"M9 #wGGBt  1GGG",
"n8 $rGGVu  1GGG",
"n8 $rGGVu  1GGG",
"n8 $rGGVu  1GGG",
"n8 .3GGM9  1GGG",
"Bt  1GGn8 #wGGG",
"Fd  %iZpO =aGGG",
"Gv5 .@&#  ,AGGG",
"GDs      ;lGGGG",
"GGAj5  #7kSGGGG",
"GGGDBmmNBSGGGGG",
"GGGGGGGGGGGGGGG",
"GGGGGGGGGGGGGGG",
"GGGGGGGGGGGGGGG",
"GGGGGGGGGGGGGGG"
};
