/* XPM */
static char *result[] = {
/* columns rows colors chars-per-pixel */
"15 25 21 1 ",
"  c black",
". c #070707",
"X c #1E1E1E",
"o c gray12",
"O c #282828",
"+ c #2F2F2F",
"@ c #353535",
"# c gray27",
"$ c gray34",
"% c #6D6D6D",
"& c #777777",
"* c gray51",
"= c gray57",
"- c gray58",
"; c gray62",
": c gray63",
"> c #AEAEAE",
", c #B7B7B7",
"< c gray73",
"1 c #C0C0C0",
"2 c #C3C3C3",
/* pixels */
"222222222222222",
"222222222222222",
"222222222222222",
"222222222222222",
"222222222222222",
"2222=#+*<222222",
"22=#o. %,222222",
"2$o.   %,222222",
"2@     %,222222",
"2@X&O  %,222222",
"2:;<@  %,222222",
"2222@  %,222222",
"2222@  %,222222",
"2222@  %,222222",
"2222@  %,222222",
"2222@  %,222222",
"2222@  %,222222",
"2222@  %,222222",
"2222@  %,222222",
"2222@  %,222222",
"2222:-->1222222",
"222222222222222",
"222222222222222",
"222222222222222",
"222222222222222"
};
