/* XPM */
static char *result[] = {
/* columns rows colors chars-per-pixel */
"15 25 58 1 ",
"  c black",
". c gray3",
"X c #0B0B0B",
"o c #0C0C0C",
"O c gray9",
"+ c #181818",
"@ c gray11",
"# c gray12",
"$ c #202020",
"% c gray13",
"& c gray14",
"* c #252525",
"= c gray15",
"- c #2A2A2A",
"; c #2D2D2D",
": c #313131",
"> c gray21",
", c #373737",
"< c gray22",
"1 c #414141",
"2 c #464646",
"3 c #494949",
"4 c #4C4C4C",
"5 c gray30",
"6 c #515151",
"7 c gray32",
"8 c #565656",
"9 c gray34",
"0 c #606060",
"q c #646464",
"w c DimGray",
"e c #767676",
"r c #777777",
"t c gray49",
"y c #808080",
"u c #818181",
"i c #838383",
"p c #848484",
"a c #888888",
"s c #8B8B8B",
"d c #8D8D8D",
"f c gray57",
"g c #959595",
"h c #979797",
"j c gray60",
"k c #9A9A9A",
"l c gray63",
"z c gray64",
"x c #A4A4A4",
"c c gray66",
"v c gray67",
"b c #ACACAC",
"n c #AFAFAF",
"m c #B1B1B1",
"M c #B9B9B9",
"N c #BBBBBB",
"B c gray75",
"V c #C3C3C3",
/* pixels */
"VVVVVVVVVVVVVVV",
"VVVVVVVVVVVVVVV",
"VVVVVVVVVVVVVVV",
"VVVVVVVVVVVVVVV",
"VVVVVVVVVVVVVVV",
"VVnr6>>4sbVVVVV",
"Vx3+X  .$5bVVVV",
"Vj=      o9VVVV",
"Vx80ddp4  :bVVV",
"VNvmVVBy  ;zVVV",
"VVVVVVVa  ,NVVV",
"VVVVVVx1 o8VVVV",
"VVVVVx2X *fVVVV",
"VVVMu-X %iNVVVV",
"VVMt@ o2kNVVVVV",
"VMt@ OqcVVVVVVV",
"Vl< OwmVVVVVVVV",
"MeX .&>>>>4gVVV",
"v7        #pVVV",
"c3        #pVVV",
"NlddddddddhmVVV",
"VVVVVVVVVVVVVVV",
"VVVVVVVVVVVVVVV",
"VVVVVVVVVVVVVVV",
"VVVVVVVVVVVVVVV"
};
