/* XPM */
static char *result[] = {
/* columns rows colors chars-per-pixel */
"15 25 66 1 ",
"  c black",
". c #020202",
"X c gray3",
"o c #090909",
"O c gray4",
"+ c #0C0C0C",
"@ c gray6",
"# c gray7",
"$ c #131313",
"% c gray8",
"& c #151515",
"* c gray10",
"= c gray11",
"- c #1D1D1D",
"; c #232323",
": c #252525",
"> c gray15",
", c #282828",
"< c #2C2C2C",
"1 c gray18",
"2 c #2F2F2F",
"3 c #313131",
"4 c #373737",
"5 c #3F3F3F",
"6 c gray28",
"7 c #494949",
"8 c #4B4B4B",
"9 c gray30",
"0 c #505050",
"q c gray35",
"w c gray36",
"e c gray39",
"r c #646464",
"t c #6C6C6C",
"y c #6F6F6F",
"u c gray45",
"i c #7B7B7B",
"p c #7C7C7C",
"a c gray49",
"s c #808080",
"d c gray51",
"f c #868686",
"g c gray53",
"h c #8B8B8B",
"j c gray59",
"k c #979797",
"l c #9A9A9A",
"z c #A0A0A0",
"x c #A4A4A4",
"c c gray65",
"v c #A7A7A7",
"b c gray66",
"n c #A9A9A9",
"m c gray68",
"M c #AFAFAF",
"N c gray69",
"B c #B1B1B1",
"V c #B2B2B2",
"C c #B4B4B4",
"Z c #B7B7B7",
"A c gray72",
"S c #BBBBBB",
"D c gray",
"F c #C0C0C0",
"G c #C1C1C1",
"H c #C3C3C3",
/* pixels */
"HHHHHHHHHHHHHHH",
"HHHHHHHHHHHHHHH",
"HHHHHHHHHHHHHHH",
"HHHHHHHHHHHHHHH",
"HHHHHHHHHHHHHHH",
"Hxw8>--rCHHHHHH",
"Hs-X.  +*dSHHHH",
"Hi&      qVHHHH",
"HAnccg5o 3bHHHH",
"HHHHHDu% <vHHHH",
"HHHHHf7+ 9MHHHH",
"HHf2-#O.:lFHHHH",
"HHi&   6aZHHHHH",
"HHi&   +&sSHHHH",
"HHAncg5o #zHHHH",
"HHHHHDB;  pSHHH",
"HehSHHe@  jGHHH",
"H1$=--+. :xHHHH",
"H,       tZHHHH",
"Hy4o  :0kAGHHHH",
"HANvccmCFHHHHHH",
"HHHHHHHHHHHHHHH",
"HHHHHHHHHHHHHHH",
"HHHHHHHHHHHHHHH",
"HHHHHHHHHHHHHHH"
};
