/* XPM */
static char *result[] = {
/* columns rows colors chars-per-pixel */
"15 25 49 1 ",
"  c black",
". c #020202",
"X c #070707",
"o c gray3",
"O c #0E0E0E",
"+ c gray6",
"@ c #101010",
"# c gray7",
"$ c gray8",
"% c gray9",
"& c #222222",
"* c #232323",
"= c gray15",
"- c gray16",
"; c gray19",
": c #3E3E3E",
"> c #3F3F3F",
", c gray26",
"< c #444444",
"1 c #4B4B4B",
"2 c gray35",
"3 c #606060",
"4 c #686868",
"5 c DimGray",
"6 c #6D6D6D",
"7 c gray44",
"8 c #777777",
"9 c #7E7E7E",
"0 c gray50",
"q c #848484",
"w c gray53",
"e c #898989",
"r c gray54",
"t c #9A9A9A",
"y c #A0A0A0",
"u c gray63",
"i c gray64",
"p c #A9A9A9",
"a c #AAAAAA",
"s c #AEAEAE",
"d c gray69",
"f c #B2B2B2",
"g c gray71",
"h c #B7B7B7",
"j c gray72",
"k c #BCBCBC",
"l c gray",
"z c #C1C1C1",
"x c #C3C3C3",
/* pixels */
"xxxxxxxxxxxxxxx",
"xxxxxxxxxxxxxxx",
"xxxxxxxxxxxxxxx",
"xxxxxxxxxxxxxxx",
"xxxxxxxxxxxxxxx",
"xxxxxxj6*-3xxxx",
"xxxxxxp@ o1xxxx",
"xxxxxf<  o1xxxx",
"xxxxlwo  o1xxxx",
"xxxxa%X= o1xxxx",
"xxxf< $7 o1xxxx",
"xxj5o#90 o1xxxx",
"xle@X,g0 o1xxxx",
"lr%X>sk0 o1xxxx",
"h3 .O*&% .O;qxx",
"g2         +8xx",
"g2         +8xx",
"zdyyyyt4 X:igxx",
"xxxxxxk0 o1xxxx",
"xxxxxxk0 o1xxxx",
"xxxxxxzhyusxxxx",
"xxxxxxxxxxxxxxx",
"xxxxxxxxxxxxxxx",
"xxxxxxxxxxxxxxx",
"xxxxxxxxxxxxxxx"
};
