/* XPM */
static char *result[] = {
/* columns rows colors chars-per-pixel */
"15 25 52 1 ",
"  c black",
". c #010101",
"X c #020202",
"o c #040404",
"O c #070707",
"+ c gray3",
"@ c gray4",
"# c #0E0E0E",
"$ c gray6",
"% c #101010",
"& c #111111",
"* c gray8",
"= c #151515",
"- c gray10",
"; c #1B1B1B",
": c gray11",
"> c #252525",
", c gray17",
"< c #2F2F2F",
"1 c #323232",
"2 c gray23",
"3 c #444444",
"4 c #555555",
"5 c gray35",
"6 c gray38",
"7 c gray39",
"8 c #6C6C6C",
"9 c #747474",
"0 c #767676",
"q c #797979",
"w c #808080",
"e c #838383",
"r c #848484",
"t c gray57",
"y c #9F9F9F",
"u c #A7A7A7",
"i c gray67",
"p c #ACACAC",
"a c #AEAEAE",
"s c #B1B1B1",
"d c #B2B2B2",
"f c gray70",
"g c #B4B4B4",
"h c #B6B6B6",
"j c #B7B7B7",
"k c gray72",
"l c #BCBCBC",
"z c gray74",
"x c gray",
"c c #C0C0C0",
"v c gray76",
"b c #C3C3C3",
/* pixels */
"bbbbbbbbbbbbbbb",
"bbbbbbbbbbbbbbb",
"bbbbbbbbbbbbbbb",
"bbbbbbbbbbbbbbb",
"bbbbbbbbbbbbbbb",
"bs2&&&&&&,bbbbb",
"ba<      :bbbbb",
"buo      :bbbbb",
"bu #8ddddgbbbbb",
"bu $0bbbbbbbbbb",
"bu $0bbbbbbbbbb",
"ze X@&&>ybbbbbb",
"lw     X=4bbbbb",
"lw      .-ybbbb",
"vzdddp9  %qbbbb",
"bbbbbvi, $0bbbb",
"bbbbbj6o $0bbbb",
"j7&&&$+  ;lbbbb",
"h5      *tbbbbb",
"lr,  O13gcbbbbb",
"vxhddfjkbbbbbbb",
"bbbbbbbbbbbbbbb",
"bbbbbbbbbbbbbbb",
"bbbbbbbbbbbbbbb",
"bbbbbbbbbbbbbbb"
};
