/* XPM */
static char *result[] = {
/* columns rows colors chars-per-pixel */
"15 25 61 1 ",
"  c black",
". c #010101",
"X c #020202",
"o c #040404",
"O c gray2",
"+ c gray3",
"@ c #0B0B0B",
"# c #0C0C0C",
"$ c gray5",
"% c gray6",
"& c #101010",
"* c #111111",
"= c gray8",
"- c #151515",
"; c #181818",
": c gray11",
"> c gray12",
", c #2C2C2C",
"< c gray19",
"1 c #343434",
"2 c #373737",
"3 c gray22",
"4 c gray24",
"5 c #3F3F3F",
"6 c gray25",
"7 c gray26",
"8 c #434343",
"9 c #565656",
"0 c gray35",
"q c gray37",
"w c #626262",
"e c #656565",
"r c DimGray",
"t c #6A6A6A",
"y c #6C6C6C",
"u c #6F6F6F",
"i c gray45",
"p c #767676",
"a c gray48",
"s c #848484",
"d c gray54",
"f c #979797",
"g c #9A9A9A",
"h c gray62",
"j c #A7A7A7",
"k c #AEAEAE",
"l c gray69",
"z c #B2B2B2",
"x c gray70",
"c c #B4B4B4",
"v c gray71",
"b c gray72",
"n c #B9B9B9",
"m c gray73",
"M c #BBBBBB",
"N c #BCBCBC",
"B c gray74",
"V c gray",
"C c gray75",
"Z c gray76",
"A c #C3C3C3",
/* pixels */
"AAAAAAAAAAAAAAA",
"AAAAAAAAAAAAAAA",
"AAAAAAAAAAAAAAA",
"AAAAAAAAAAAAAAA",
"AAAAAAAAAAAAAAA",
"AAAAv84**>hAAAA",
"AAVd%Oo  #pAAAA",
"AVd@     @iAAAA",
"Ac3 O2rzkdfAAAA",
"meo =bNAZCCAAAA",
"c1 @wy4*>hAAAAA",
"c< @q+o X;aAAAA",
"ko .+    .;hAAA",
"k  O5zka  &gAAA",
"k  @uAZl, #pAAA",
"x, &fAAc< @iAAA",
"b0 X:hmeo -NAAA",
"Zj  X$&+ O7AAAA",
"ABa     O6bAAAA",
"AZns9 O2tbAAAAA",
"AAZVMzxbNAAAAAA",
"AAAAAAAAAAAAAAA",
"AAAAAAAAAAAAAAA",
"AAAAAAAAAAAAAAA",
"AAAAAAAAAAAAAAA"
};
