/* XPM */
static char *result[] = {
/* columns rows colors chars-per-pixel */
"15 25 36 1 ",
"  c black",
". c #020202",
"X c #040404",
"o c gray6",
"O c gray7",
"+ c #151515",
"@ c gray11",
"# c #1D1D1D",
"$ c #232323",
"% c gray18",
"& c #343434",
"* c #393939",
"= c #444444",
"- c gray29",
"; c #505050",
": c #5D5D5D",
"> c #676767",
", c gray42",
"< c #727272",
"1 c #7E7E7E",
"2 c #888888",
"3 c #8B8B8B",
"4 c #909090",
"5 c gray59",
"6 c #A0A0A0",
"7 c gray65",
"8 c gray67",
"9 c #ACACAC",
"0 c gray68",
"q c #AEAEAE",
"w c #B2B2B2",
"e c gray72",
"r c gray73",
"t c #C0C0C0",
"y c #C1C1C1",
"u c #C3C3C3",
/* pixels */
"uuuuuuuuuuuuuuu",
"uuuuuuuuuuuuuuu",
"uuuuuuuuuuuuuuu",
"uuuuuuuuuuuuuuu",
"uuuuuuuuuuuuuuu",
"u=#########1ruu",
"u%         <euu",
"u%         4yuu",
"u077777,+ =8uuu",
"uuuuuuu*X$5tuuu",
"uuuuuu>O -9uuuu",
"uuuuuu&.$5tuuuu",
"uuuuu>O -9uuuuu",
"uuuuu&. 3tuuuuu",
"uuuu2@ $6uuuuuu",
"uuuu:o -9uuuuuu",
"uuuu&. 3tuuuuuu",
"uuu2@ $6uuuuuuu",
"uuu:o -9uuuuuuu",
"uuu&. ;quuuuuuu",
"uuu077wtuuuuuuu",
"uuuuuuuuuuuuuuu",
"uuuuuuuuuuuuuuu",
"uuuuuuuuuuuuuuu",
"uuuuuuuuuuuuuuu"
};
