/* XPM */
static char *result[] = {
/* columns rows colors chars-per-pixel */
"15 25 74 1 ",
"  c black",
". c gray1",
"X c #070707",
"o c #0C0C0C",
"O c gray5",
"+ c #101010",
"@ c gray7",
"# c #131313",
"$ c #151515",
"% c #181818",
"& c #191919",
"* c gray11",
"= c gray12",
"- c gray13",
"; c #222222",
": c #232323",
"> c gray14",
", c #252525",
"< c gray15",
"1 c #272727",
"2 c #2A2A2A",
"3 c #2C2C2C",
"4 c gray19",
"5 c #323232",
"6 c gray22",
"7 c #3F3F3F",
"8 c gray25",
"9 c #414141",
"0 c #434343",
"q c #494949",
"w c #505050",
"e c #565656",
"r c gray36",
"t c #5D5D5D",
"y c #606060",
"u c gray38",
"i c gray39",
"p c gray40",
"a c #717171",
"s c #727272",
"d c #747474",
"f c #777777",
"g c #797979",
"h c gray48",
"j c gray49",
"k c #848484",
"l c #868686",
"z c #898989",
"x c #8B8B8B",
"c c gray55",
"v c #8D8D8D",
"b c gray56",
"n c gray57",
"m c #979797",
"M c gray60",
"N c #9D9D9D",
"B c gray62",
"V c #A0A0A0",
"C c gray63",
"Z c gray64",
"A c #A5A5A5",
"S c #A7A7A7",
"D c gray66",
"F c gray67",
"G c #AEAEAE",
"H c gray69",
"J c #B1B1B1",
"K c gray70",
"L c gray71",
"P c gray72",
"I c #BBBBBB",
"U c gray74",
"Y c gray",
"T c #C3C3C3",
/* pixels */
"TTTTTTTTTTTTTTT",
"TTTTTTTTTTTTTTT",
"TTTTTTTTTTTTTTT",
"TTTTTTTTTTTTTTT",
"TTTTTTTTTTTTTTT",
"TTTbr4::gPTTTTT",
"TTs,o.  #8CTTTT",
"Ts=.     XaPTTT",
"Ty+ =jl0O wFTTT",
"Ty+ tJUh* qDTTT",
"Tm1 5BTp# jYTTT",
"TUd&X*:@;iGTTTT",
"TTk7O   <gLTTTT",
"Ts,o;qe&X$fPTTT",
"T9.=kHKx> 5BTTT",
"b> <MTTU6 XcTTT",
"N2 XaPTs%  zTTT",
"Z3  #-:@. =mTTT",
"Uv>      =kITTT",
"TUvu&  =qnITTTT",
"TTULAVVSHYTTTTT",
"TTTTTTTTTTTTTTT",
"TTTTTTTTTTTTTTT",
"TTTTTTTTTTTTTTT",
"TTTTTTTTTTTTTTT"
};
