/* XPM */
static char *result[] = {
/* columns rows colors chars-per-pixel */
"15 25 54 1 ",
"  c black",
". c #010101",
"X c #020202",
"o c gray2",
"O c #070707",
"+ c #0B0B0B",
"@ c #0C0C0C",
"# c gray5",
"$ c gray7",
"% c #151515",
"& c #161616",
"* c gray9",
"= c gray11",
"- c gray13",
"; c #222222",
": c gray17",
"> c gray21",
", c #393939",
"< c #3F3F3F",
"1 c gray25",
"2 c #414141",
"3 c #4C4C4C",
"4 c gray32",
"5 c #585858",
"6 c #5D5D5D",
"7 c gray39",
"8 c gray40",
"9 c gray43",
"0 c gray46",
"q c #777777",
"w c gray47",
"e c #808080",
"r c #898989",
"t c gray54",
"y c #9A9A9A",
"u c #9F9F9F",
"i c #A7A7A7",
"p c gray66",
"a c gray67",
"s c #ACACAC",
"d c gray68",
"f c #AEAEAE",
"g c gray70",
"h c #B4B4B4",
"j c gray71",
"k c #B7B7B7",
"l c #B9B9B9",
"z c gray73",
"x c #BBBBBB",
"c c #BCBCBC",
"v c gray74",
"b c gray",
"n c gray76",
"m c #C3C3C3",
/* pixels */
"mmmmmmmmmmmmmmm",
"mmmmmmmmmmmmmmm",
"mmmmmmmmmmmmmmm",
"mmmmmmmmmmmmmmm",
"mmmmmmmmmmmmmmm",
"mmz92*;wummmmmm",
"mj1+o X#-ummmmm",
"j<o     X-ummmm",
"fo +8i0  @qmmmm",
"8 o<zng4 O3mmmm",
"6 .=mml6 .=mmmm",
"e  $umh>  &mmmm",
"p  X$*%o  &mmmm",
"c0    o:  &mmmm",
"nk0  +65 o1mmmm",
"mnxssfa> +9mmmm",
"byummj<o %zmmmm",
"l7$**%o o1mmmmm",
"l6     o<hmmmmm",
"vt4  o,rhmmmmmm",
"nvkssdhbmmmmmmm",
"mmmmmmmmmmmmmmm",
"mmmmmmmmmmmmmmm",
"mmmmmmmmmmmmmmm",
"mmmmmmmmmmmmmmm"
};
