/* XPM */
static char *result[] = {
/* columns rows colors chars-per-pixel */
"50 50 205 2 ",
"   c #0C0000",
".  c #120500",
"X  c #190700",
"o  c #140800",
"O  c #1A0C00",
"+  c #220E00",
"@  c #221200",
"#  c #291500",
"$  c #997A19",
"%  c #A67500",
"&  c #A87E05",
"*  c #B57E01",
"=  c #A07F25",
"-  c #A58500",
";  c #AB8502",
":  c #AD8A02",
">  c #A5830B",
",  c #A9820C",
"<  c #AD8A0A",
"1  c #B38302",
"2  c #B98200",
"3  c #B48C00",
"4  c #B38509",
"5  c #BB8804",
"6  c #AC9708",
"7  c #A89000",
"8  c #BC9300",
"9  c #A18310",
"0  c #AC8513",
"q  c #A38915",
"w  c #AA8718",
"e  c #A88819",
"r  c #AB8B14",
"t  c #B88C16",
"y  c #B18613",
"u  c #BFA91F",
"i  c #988425",
"p  c #9D8824",
"a  c #96892E",
"s  c #9E892C",
"d  c #9E862F",
"f  c #A28827",
"g  c #A2862C",
"h  c #A4892C",
"j  c #A28324",
"k  c #B99320",
"l  c #B29E2D",
"z  c #AC9B26",
"x  c #B5A62A",
"c  c #BFB22B",
"v  c #BEBB3E",
"b  c #CDAF0E",
"n  c #D0AF06",
"m  c #DFAF0D",
"M  c #D0AA0A",
"N  c #CDB205",
"B  c #D4B501",
"V  c #DDB406",
"C  c #D6B800",
"Z  c #DABB03",
"A  c #D5B50A",
"S  c #DDB50C",
"D  c #DCBB0C",
"F  c #C5A716",
"G  c #CDA91B",
"H  c #C1A31F",
"J  c #DDAF14",
"K  c #D5AB15",
"L  c #CCB115",
"P  c #D4B216",
"I  c #DFB213",
"U  c #DCBA13",
"Y  c #D7B41B",
"T  c #DBB31C",
"R  c #DCB81D",
"E  c #E3BA0D",
"W  c #E5B715",
"Q  c #E1B61B",
"!  c #C2AB2F",
"~  c #CBB423",
"^  c #C7B324",
"/  c #D8BF20",
"(  c #D3BE2A",
")  c #DABA2B",
"_  c #D6B424",
"`  c #C7BA3E",
"'  c #D7BC3A",
"]  c #E1B621",
"[  c #DEC001",
"{  c #DFCB16",
"}  c #E4C601",
"|  c #E1C108",
" . c #EBD50E",
".. c #F4D507",
"X. c #F7D904",
"o. c #FDDF06",
"O. c #F3D60E",
"+. c #F4D90C",
"@. c #F8DC0E",
"#. c #FBD50C",
"$. c #E5C619",
"%. c #F9CF11",
"&. c #E4D317",
"*. c #ECD413",
"=. c #EBD21D",
"-. c #F4D312",
";. c #F4DB14",
":. c #FCDC13",
">. c #F6D31C",
",. c #FCDC1B",
"<. c #F8D81A",
"1. c #FEE00A",
"2. c #FEE214",
"3. c #FCE21B",
"4. c #FFE81E",
"5. c #DBC328",
"6. c #E8C927",
"7. c #F5CF22",
"8. c #FCCE20",
"9. c #F4CD2A",
"0. c #E7D22F",
"q. c #F3D623",
"w. c #F5DA25",
"e. c #F6D62A",
"r. c #FFD628",
"t. c #F8DD2F",
"y. c #F2DC29",
"u. c #ECCC37",
"i. c #EEDC36",
"p. c #EDD53B",
"a. c #F8DA38",
"s. c #FFE62B",
"d. c #EFE03D",
"f. c #A59743",
"g. c #BFAF4E",
"h. c #BBB64B",
"j. c #BAB242",
"k. c #B2AE57",
"l. c #B0BA51",
"z. c #B2BE64",
"x. c #ADB375",
"c. c #8E914C",
"v. c #C5B643",
"b. c #C0BA47",
"n. c #C4B649",
"m. c #C7B849",
"M. c #CCBC4A",
"N. c #DDC645",
"B. c #CAC154",
"V. c #C7C85D",
"C. c #E8CF48",
"Z. c #E4C84E",
"A. c #EBDA44",
"S. c #EAD648",
"D. c #F2DA49",
"F. c #E7D753",
"G. c #E5D951",
"H. c #EDD757",
"J. c #F2DE52",
"K. c #F1E34C",
"L. c #CDC167",
"P. c #E8D166",
"I. c #EBDB64",
"U. c #F3DB62",
"Y. c #F8DD63",
"T. c #E2D577",
"R. c #E0D179",
"E. c #FAED7B",
"W. c #FDF479",
"Q. c #FFEC8B",
"!. c #FFF585",
"~. c #FFF48C",
"^. c #FFFB8B",
"/. c #FFF887",
"(. c #F0EF97",
"). c #FEF396",
"_. c #FFF991",
"`. c #FEFC9B",
"'. c #FFF699",
"]. c #FEF5A6",
"[. c #FDFDA3",
"{. c #FCF3AB",
"}. c #FFFCAC",
"|. c #F6F2A3",
" X c #FCEFB7",
".X c #FFEFB9",
"XX c #F4EDB3",
"oX c #F5F5B7",
"OX c #FFFDB4",
"+X c #FCF4BE",
"@X c #FEFDBA",
"#X c #F4EEC8",
"$X c #FCF4C3",
"%X c #FEFBC5",
"&X c #F7F6CE",
"*X c #FDF6CC",
"=X c #F1F8CF",
"-X c #FEFBCC",
";X c #FFEFD2",
":X c #FDF6D3",
">X c #F7F8D3",
",X c #FCF9D1",
"<X c #FBF6D9",
"1X c #FFFDDC",
"2X c #F4F7D3",
/* pixels */
"=X=X=X$X&X1X<X:X;X;X#X#X#X1X1X,X-X,X,X>X<X:X<X<X<X<X<X:X<X-X:X-X-X:X:X&X&X,X=X2X>X>X>X&X*X-X%X-X@X@X",
"=X=X=X$X$X1X<X;X;X;X#X#X#X1X1X=X-X>X,X<X<X<X<X<X<X<X<X<X:X-X-X:X-X:X,X=X&X&X=X&X>X>X>X*X&X%X-X%X@X@X",
"x.x.x.{.{..X.X$X$X$X-X,X,X$X$X%X%X*X-X*X*X*X*X:X:X:X*X*X*X*X*X-X*X*X*X&X&X*X&X&X-X-X-XXXXX@X@X@X(.(.",
"x.x.x.{.|..X.X$X$X%X,X-X-X$X$X%X%X%X*X*X*X*X:X*X*X:X*X*X*X%X*X%X-X*X-X&X&X*X&X&X-X-X-XXXXX@XOX@X(.(.",
"x.x.x.{.{..X.X$X$X$X-X-X-X$X$X-X%X*X%X*X*X*X*X:X:X:X*X*X*X*X%X*X%X*X*X-X&X=X=X=X-X-X-XXXXX@X@X@X(.(.",
"z.z.z.h.h.}.}.{.oX{.oXoXoX%X%XoXoX%X%X X.X+X$X%X+X+X+X+X+X$X+X%X%X+X$X-X-X%XoXoX@XOX@X`.[.^._._.b.h.",
"z.z.z.l.h.[.}.{.{.{.oXoXoX%X%XoX+X%X%X.X.X.X%X%X+X+X+X+X+X+X@X%X%X%X+X-X-X-XoXoXOXOX@X`.'._.^.^.b.b.",
"l.l.l.` j.h.h.).).'.}.}.}.}.}.}.}.].].}.{.}.{.{.@XOXOXOXOX}.{.].].OXOX|.|.|.|.`.`.`.`././.v.v.` x c ",
"l.l.l.v h.h.n.).).).}.}.}.}.}.].}.].].{.{.{.{.{.@XOXOXOXOX}.{.].}.OXOX|.|.|.|.[._.`.`././.` ` v.c x ",
"V.V.V.c c c c M.M.` E.W.E./.~.!.!.~.~.Q.Q.Q.).).}.}.}.[.[._._././.^.^.^.^.^.W.W.W.W.W.` ' M.u.N.u u ",
"V.V.V.c c c ! M.M.M.E.E.E./.!.!.!.!._.Q.Q.Q.].).}.}.[.[.[.`._././.^.^.^.^.^.W.W.W.W.W.' ` u.5.N.u u ",
"B.B.B.^ ~ ( 5.~ L ~ ~ ~ ^ A.D.J.D.C.C.Y.Y.Y.P.P.T.R.T.T.T.H.I.J.J.A.A.A.p.A.K.K.5.5.( F F H G G 5.5.",
"B.B.B.^ ^ 5.( ~ ~ ~ ^ ^ ^ K.D.J.J.C.C.Y.Y.Y.P.P.R.R.T.T.T.H.I.J.J.A.A.A.A.A.K.K.^ c 5.u F G G G / ( ",
"B.B.B.^ ! 5.) ^ ~ ~ ~ ~ ^ D.D.J.D.C.C.Y.Y.Y.P.P.R.R.T.T.T.I.I.J.K.A.A.A.A.A.K.K.5.5.5.u F G G G ) _ ",
"h.n.b._ ~ b b 6.$.Q N N N t.t.t.t.a.a.5.5.5.Z.Z.f.f.f.f.h F.F.0.0.y.y.y.q.w.{ { { { { N P Q Q Q R ] ",
"h.b.n.~ / b b { $.6.N N N t.t.t.t.a.p.6.0.5.B.F.f.f.f.f.f.F.F.0.0.y.y.;.w.w.{ { ] { { A U W W Q Q ] ",
"B.B.B.L L A A Z Z Z [ E Z <.<.*.-.7.w.p.p.p.l l + + O O O z z p.p.*.*.2.3.3.;.&.[ [ [ A E m m m m J ",
"B.B.B.G L A A V Z Z [ Z [ :.<.-.*.q.w.p.p.S.l l O O O O O z z p.i.*.=.4.3.3.;. .[ [ B { E m m m J J ",
"m.m.j.{ R A A C B B } } } +.#.3.s.t.a.Z.Z.Z.# # o . o o o # # Y.U.=.=.2.2.4.3.3.B B N [ E m m m J J ",
"b.b.h.( { A A B B B } } } :.:.,.,.t.a.Z.Z.Z.# # o . o o o # # Y.U.=.=.2.2.2.3.3.B B B E E m m m J J ",
"v j.j.R / A A C V Z E [ Z @.@.-.#.6.6.H.Y.U.@ +           @ @ H.H.q.q.+.+.+.3.;.[ B C V V W W W Q Q ",
"j.j.j./ / B A C Z Z [ [ } @.:.#.#.6.6.U.U.U.+ @           @ + F.F.q.q.+.+. .3.s.[ B C A V W W W Q ] ",
"j.v j./ / B B Z Z Z [ [ Z @.:.-.@.6.6.I.U.H.+ +   .       + + H.H.q.q.+.+.+.3.,.B [ B A V W W W Q Q ",
"n.h.n.L L B n Z B Z Z Z Z O.O.:.:.q.q.p.C.C.).).. .   . . ~./.0.0.;.,.+.+.2.;.;.B B N Z A W J J Q T ",
"g.n.n.~ G A B B B Z Z Z Z +.@.:.;.q.0.0.C.C.`.`.. . .   o ^.^.0.0.,.,.@.+.:.;.;.B C B E V I Q J T T ",
"m.m.M.6.] U D | | | } } } 2.3.,.2.=.;.d.i.d.I.I.    O O O J.H.s.s.2.3.2.1.2.2.,.Z Z Z V V I J I T T ",
"M.M.M.] ] D U | | | } } } 3.3.:.,.<.*.d.i.d.T.I.    O O O J.I.s.s.2.2.1.2.1.3.3.[ Z Z V V Q I I T T ",
"n.n.n._ R n A B B B Z C Z +.O.....4.4.&.&.{ G.G.@ @ . . . G.G. . .+.X.X.X.X...+.B B B V V I I S T T ",
"n.n.n.Y Y N n B B B Z Z Z O.O.....4.4.&.&.&.G.G.@ @ . X . S.S.*. .X.X.X.X.X.X.X.B B B A V I S J T _ ",
"n.n.n.T Y N n B B B Z Z Z O.O.....4.4.&.&.&.G.G.@ + . X . S.G.*. .1.X.X.X.X. . .B B B V V W J W T T ",
"m.n.n.Y Y A A Z Z D [ [ Z :.;.........&. . .K.A.o O X X X D.S. .} 1.1.1.1.1.2.+.Z Z Z Z V J W I T T ",
"n.m.n.Y Y A S Z D D [ [ [ :.2.....X... . . .A.A.O o X X X S.S. . .1.1.1.1.1.2.1.Z Z Z V V W m I T T ",
"m.v.v.K P U S D Z D C C C -.-.%.#.@.:.;.2.;.d.d.o O O O X D.p.<.<.:.@.o...X.O.O.Z B B V V J I I T T ",
"m.m.v.Y P U U A Z D C C C %.-.#.#.@.@.2. .2.d.d.O O O o X D.D.%.-.@.:.....X.O.+.C C B m E I I I T T ",
"v.v.v.K P n n A A Z Z Z Z <.>.%.%.<.<.-.;.;.i.i._.^.~.~._.p.A.>.>.,.,.3.3.s.s.s.D U | E W J I I T T ",
"v.v.v.Y T n n Z D A D Z Z >.>.%.%.:.<.<.;.;.i.i.~.~.~._.Q.p.p.>.>.,.,.s.3.:.s.s.| | { S S T I I T T ",
"v.v.v.P P U U U U U A Z A %.$.>.8.r.r.w.r.w.i.i.G.G.F.F.F.u.u.9.9.7.7.7.7.7.e.e.U U U Q Q Q J Q T T ",
"` v.` P P U U D D E Z A Z $.$.8.8.r.r.e.w.w.i.a.G.G.F.F.F.u.u.9.9.7.7.q.>.7.e.e.W U U W Q Q J Q I T ",
"v.v.` P P U U U U D Z Z V %.$.>.>.r.r.e.r.y.i.i.G.G.G.G.F.u.u.9.9.7.9.8.7.>.e.e.U U U Q Q Q Q Q T T ",
"m.m.m._ Y R R M M n 5 3 3 8 5 * 1 3 2 3 : 3 7 3 7 7 6 6 6 - ; 3 3 8 8 ; ; ; : : : : ; K K ] ] ] T _ ",
"n.n.n.] T _ _ M M M 3 5 8 8 8 1 1 3 3 3 1 3 7 7 7 7 6 6 6 ; ; 3 5 8 8 - ; : : : : : : K K ] ] ] T Y ",
"g.g.n.' ' ) ] 2 2 5 2 2 1 * * 2 2 2 2 1 2 1 1 : - : : : : 4 4 4 4 - - 7 : : : 3 ; ; ; 3 3 G G G ) ) ",
"g.g.n.' ' ] ) 2 2 3 2 2 * * * 2 2 2 1 1 1 1 1 1 7 - ; < : 4 4 4 4 7 - 7 : : : : ; ; ; 3 8 G G G ) ) ",
"L.L.L.! ! & , % % % * * * 5 5 4 1 , ; * ; * ; 1 ; < < < < y y y 0 < < - - - - - ; ; ; < < 4 < < H H ",
"L.L.L.! ! , , % % % * * * 5 5 * 4 , 4 1 * & 1 & < < ; < r y y y 0 < < - - - - - < 4 < < < < 3 < H H ",
"k.k.k.l l 9 9 k k k t t t & & 0 > < > 0 0 0 0 w q q q q q e e e 0 q q > 9 > , , , y y y y , > > r r ",
"k.k.k.l l q 9 k k k t t t & & , > > > 0 0 0 q e q q q q q e e e 0 q q > > > , , y y 0 y w & & & r r ",
"k.k.k.l l 9 9 k k k t t t & & , , 9 9 0 0 0 e q q q q q e e e e 0 0 q > > > , , , y y y y > & , r r ",
"c.c.c.= a a = d f f $ $ $ j p p p p p d d d d d a a a a a d s d s i i s s s g f = = = = j h h h h h ",
"c.c.c.= a = i d g p $ $ $ j e p p p p g g g d d a a a a a d d s s i p s s s h h = = = = = h h h h h "
};
