/* XPM */
static char *result[] = {
/* columns rows colors chars-per-pixel */
"50 50 243 2 ",
"   c #1C0606",
".  c #290B09",
"X  c #380A05",
"o  c #2A1A06",
"O  c #381508",
"+  c #2B0817",
"@  c #2D0D18",
"#  c #340D15",
"$  c #330D1A",
"%  c #3B0B18",
"&  c #2E141D",
"*  c #341312",
"=  c #381619",
"-  c #3A2419",
";  c #363014",
":  c #371627",
">  c #351C24",
",  c #3B1926",
"<  c #3A2125",
"1  c #382427",
"2  c #323826",
"3  c #362330",
"4  c #3B2231",
"5  c #460704",
"6  c #44050B",
"7  c #440B0C",
"8  c #4A0B0C",
"9  c #580C06",
"0  c #481606",
"q  c #561608",
"w  c #470614",
"e  c #440C13",
"r  c #4C0B13",
"t  c #430C1B",
"y  c #4C0D1C",
"u  c #540B14",
"i  c #570B17",
"p  c #4D1315",
"a  c #471814",
"s  c #44141C",
"d  c #4D151B",
"f  c #4B1B1C",
"g  c #531414",
"h  c #5B1715",
"j  c #541B13",
"k  c #53141D",
"l  c #5B131C",
"z  c #650E09",
"x  c #750D0E",
"c  c #661608",
"v  c #761A09",
"b  c #630C1B",
"n  c #6A0D18",
"m  c #770C18",
"M  c #661517",
"N  c #6C141C",
"B  c #7A1616",
"V  c #74151D",
"C  c #7C141C",
"Z  c #48220C",
"A  c #5A2409",
"S  c #572514",
"D  c #4F3017",
"F  c #64280C",
"G  c #7A2606",
"H  c #69340C",
"J  c #73390D",
"K  c #672813",
"L  c #782818",
"P  c #663617",
"I  c #743615",
"U  c #460D24",
"Y  c #590C27",
"T  c #451325",
"R  c #4B1524",
"E  c #431B25",
"W  c #4C1C24",
"Q  c #47162A",
"!  c #531323",
"~  c #571728",
"^  c #451D33",
"/  c #551D30",
"(  c #650A25",
")  c #6B0D23",
"_  c #730A26",
"`  c #661727",
"'  c #6D1322",
"]  c #751524",
"[  c #7B1523",
"{  c #77172A",
"}  c #7B142C",
"|  c #6B1432",
" . c #781533",
".. c #45242B",
"X. c #4C352A",
"o. c #452936",
"O. c #6B2822",
"+. c #7A2526",
"@. c #693624",
"#. c #7A3924",
"$. c #39452D",
"%. c #5B431A",
"&. c #6F4117",
"*. c #7A4519",
"=. c #554F30",
"-. c #774526",
";. c #694E31",
":. c #596134",
">. c #706D37",
",. c #513D4E",
"<. c #4E454E",
"1. c #594549",
"2. c #534A4D",
"3. c #55574B",
"4. c #574856",
"5. c #585957",
"6. c #624757",
"7. c #675852",
"8. c #57634C",
"9. c #5B625B",
"0. c #666954",
"q. c #736D50",
"w. c #5C5166",
"e. c #664960",
"r. c #58686F",
"t. c #64667E",
"y. c #6C657C",
"u. c #626A7C",
"i. c #717375",
"p. c #821A09",
"a. c #831B0B",
"s. c #850E1C",
"d. c #841314",
"f. c #891717",
"g. c #83121B",
"h. c #852804",
"j. c #893806",
"k. c #8E2D16",
"l. c #870F25",
"z. c #821423",
"x. c #86132A",
"c. c #831331",
"v. c #873728",
"b. c #8B342D",
"n. c #A03D2D",
"m. c #8A4B0D",
"M. c #985708",
"N. c #984518",
"B. c #975817",
"V. c #A25310",
"C. c #A35917",
"Z. c #9D6418",
"A. c #A3640A",
"S. c #B16F16",
"D. c #854A28",
"F. c #934B2B",
"G. c #8D5829",
"H. c #965A25",
"J. c #884433",
"K. c #995C38",
"L. c #A84F30",
"P. c #956631",
"I. c #AB6629",
"U. c #B16F28",
"Y. c #B67724",
"T. c #A96C3A",
"R. c #B76838",
"E. c #AB753C",
"W. c #B6773B",
"Q. c #C47930",
"!. c #925B42",
"~. c #AE5E43",
"^. c #8A6344",
"/. c #966946",
"(. c #897647",
"). c #AF6D4B",
"_. c #B77745",
"`. c #917A64",
"'. c #CD7A51",
"]. c #DC7C60",
"[. c #7A836D",
"{. c #C48B1A",
"}. c #CA8738",
"|. c #D79435",
" X c #D59639",
".X c #D9A233",
"XX c #E6AD3B",
"oX c #8D844F",
"OX c #B88145",
"+X c #A48E5D",
"@X c #888664",
"#X c #BA8E6C",
"$X c #D79748",
"%X c #D48C52",
"&X c #E4A742",
"*X c #EEB44B",
"=X c #C68663",
"-X c #C69876",
";X c #E28161",
":X c #D8A470",
">X c #E2AA6C",
",X c #5E6F83",
"<X c #677283",
"1X c #76768A",
"2X c #697694",
"3X c #797996",
"4X c #827A8F",
"5X c #6C848A",
"6X c #778B95",
"7X c #7393AD",
"8X c #71A0B9",
"9X c #23A2ED",
"0X c #2CA2EC",
"qX c #37A4EB",
"wX c #529ACE",
"eX c #5299D1",
"rX c #5699D4",
"tX c #749BCA",
"yX c #779BCB",
"uX c #4EA3DE",
"iX c #5CA4DB",
"pX c #7BA4CA",
"aX c #69A5D9",
"sX c #6DA5DC",
"dX c #7CA3D2",
"fX c #72A7DA",
"gX c #4AA6E8",
"hX c #54A5E5",
"jX c #57A6E6",
"kX c #65A8E3",
"lX c #82829B",
"zX c #85949E",
"xX c #868AA6",
"cX c #8592A3",
"vX c #8893A6",
"bX c #8795B5",
"nX c #D8AE85",
"mX c #ECB68A",
"MX c #E6BC99",
"NX c #F2C797",
"BX c #F6C9A1",
"VX c #849EC9",
"CX c #83A4D3",
/* pixels */
"9X9X9X9X9X9X9X9X9X9X9X9X9X9X9X9X9X9X9X9X9X9X9X9X9X9X9X9X9X9X9X9X9X9X9X9X9X9X9X9X9X9X9X9X9X9X9X9X9X9X",
"9X9X9X9X9X9X9X9X9X9X9X9X9X9X9X9X9X9X9X9X9X9X9X9X9X9X9X9X9X9X9X9X9X9X9X9X9X9X9X9X9X9X9X9X9X9X9X9X9X9X",
"9X9X9X9X9X9X9X9X9X9X9X9X9X9X9X9X9X9X9X9X9X9X9X9X9X9X9X9X9X9X9X9X9X9X9X9X9X9X9X9X9X9X9X9X9X9X9X9X9X9X",
"9X9X9X9X9X9X9X9X9X9X9XqXgXrXeXeXeXeXeXeXuXeXwXwXwXwXeXeXrXrXeXeXeXeXeXeXeXgX0X9X9X9X9X9X9X9X9X9X9X9X",
"9X9X9X9X9X9X9X9X9X9XqXhXrX2X,Xu.,Xt.u.u.u.u.u.u.u.u.y.y.y.y.y.y.y.<Xt.t.2XtXkX0X9X9X9X9X9X9X9X9X9X9X",
"9X9X9X9X9X9X9X9X9XqXjXtX2X,.3 3 > > 1 1 1 > - 1 - , - ..f E E E E 1 : > o.1XyXkX0X9X9X9X9X9X9X9X9X9X",
"9X9X9X9X9X9X9X9X9XgXdX2X,.3 & : $ $ = = * & * * * * * = * % # # # $ $ + : ,.3XCXgX9X9X9X9X9X9X9X9X9X",
"9X9X9X9X9X9X9X9X9XhXbX<.> : , Q Q Q R d f f f f f a f W f W f s R E E , : : ,.bXhX9X9X9X9X9X9X9X9X9X",
"9X9X9X9X9X9X9X9X9XiXxX4 + & Q / ~ Y k ! k g g p j p p a p f d a d ! ..E U + ,.4XjX9X9X9X9X9X9X9X9X9X",
"9X9X9X9X9X9X9X9X9XhXxXo.@ $ E / Y Y w w r 8 7 6 0 8 7 6 7 8 e 7 e d ~ E $ + o.xXjX9X9X9X9X9X9X9X9X9X",
"9X9X9X9X9X9X9X9X9XjXvX,.& & % R Q U w w 6 6 6 5 6 6 6 5 X 6 6 7 r f E = $ & ,.vXjX9X9X9X9X9X9X9X9X9X",
"9X9X9X9X9X9X9X9X9XhXVXw.4 & $ t U U t t e 6 6 6 5 6 6 6 6 6 6 r p k s # $ 4 w.yXhX9X9X9X9X9X9X9X9X9X",
"9X9X9X9X9X9X9X9X9XqXaX7X4.> $ : U U t y y e r 8 8 8 8 r u w r u g f s * : w.2XaXqX9X9X9X9X9X9X9X9X9X",
"9X9X9X9X9X9X9X9X9X9XqXdX1X..$ E ~ R d d j k j j h q i M l h g g j f a . ..3XfXgX0X9X9X9X9X9X9X9X9X9X",
"9X9X9X9X9X9X9X9X9X9XqXaXlX..O ..S f j S S A F F F F F K K K A h j S f * o.6XkX0X9X9X9X9X9X9X9X9X9X9X",
"9X9X9X9X9X9X9X9X9X0XjXVX1X..O S @.P F A H H H J J J J I I H K F S @.X.* ..<XVXgX0X9X9X9X9X9X9X9X9X9X",
"9X9X9X9X9X9X9X9X0XhXyX3X6.= O D P &.*.*.*.B.G.Z.G.Z.Z.H.H.m.I #.@.@.X.O = 2.3XfXgX9X9X9X9X9X9X9X9X9X",
"9X9X9X9X9X9X9X0XjXyX3X,.= . X A P -.G.P.T.E.OXE.E.OXOXOXE.P.G.G.-.O.S % . - <.6XpXhX0X9X9X9X9X9X9X9X",
"9X9X9X9X9X9X0XjXyX3X6.T % X 7 0 F &.G.G.P.T.).E.E.E.E.W.T.K.J.J.#.K q 7 * # , 6.3XdXjX9X9X9X9X9X9X9X",
"9X9X9X9X9X0XgXsX3X,.^ T U ~ j q q A F P &.*.*.*.*.*.*.>.-.*.I I F q q g k s = ..4.6XdXjX0X9X9X9X9X9X",
"9X9X9X9X0XhXtX3Xe.^ Q U / ` ` j q 0 q F F F H H H H H P &.H A c c z z M M ~ ! % ^ e.4XfXjX0X9X9X9X9X",
"9X9X9X0XgXdX3X,.^ ^ Q | | ` ` h q 9 q q q A F #.&.A P -.-.H F q c z z M N ` ~ ~ Q ^ e.4XdXjX0X9X9X9X",
"9X9X9XjXyX3Xe.^ U U Y |  .{ ' N M z q c F K D././.-.-.P.^.-.F q c z M N N { ` / ~ : Q ,.3XCXgX9X9X9X",
"9X9X9XkXxX4.^ ^ Y / |  . .{ { V v c c K I D.).-X-X/./.-X-X/.#.F c c B V V { +.| | ~ U ^ e.4XkX9X9X9X",
"9X9XqXaX3X..e ! ` `  .c.c.c.z.C B B v L b.~.nXMXNX#X#XMXMX#X(.@.N V V C [ +.{ { | ` U % Q 4XkX0X9X9X",
"9X0XjXVXy.W e l ' ] } c.c.x.z.C B B L b.!.].nXBXBXnXnXNXBXnX#X!.b.[ B [ z.z.[ { { ) Y % Q 1XCXjX9X9X",
"9XjXCX3X7.W y l ' { x.x.x.l.l.d.B a.b.~.).].:XmXNX:X:XNXBX:X=X).L.b.d.d.g.C [ [ { ` ! t U ,.4XCXgX9X",
"9XkXbXe.o.W k Y ' [ { x.l.l.s.s.d.f.b.'.'.).Q.>X$XE.E.>X>X_.R._.~.n.v d.d.d.C [ { ` ( U U ^ 4.xXkX9X",
"9XsX3Xo.U W ~ N N [ z.x.l.l.s.s.d.f.L.].'.C.I.%X$XZ.Z.$X>XI.m.R.R.n.d.d.d.s.g.[ ] ' ( d t + 4 3XfX9X",
"9XsX3X4 $ R ~ ` V [ [ z.l.l.s.f.f.f.~.;X'.V.V.$X}.M.M. X XC.j.N.N.k.p.d.f.f.z.z.{ ] b ! e # 1 1XfX9X",
"9XsX1X4 $ E ~ M N ] [ z.f.l.s.s.f.f.L.].'.V.Z. X|.A.A..X|.A.j.j.h.a.a.f.f.f.g.z.} _ Y ! T + 4 3XfX9X",
"9XsX2X, @ W W ` ` V ] z.g.s.s.s.f.f.n.].%XI.S..X.XS.S..XXXS.m.h.h.a.a.f.f.l.s._ _ ( Y ! T # 4 3XfX9X",
"9XsX2X: @ E W ~ N N N V [ C V m x v k.R.Q.I.Q.&XXX{.{.XXXX{.A.V.h.a.a.f.s.s.m _ _ ( Y Q U $ ^ 3XfX9X",
"9XsX2X3 @ , W l h M n N V V V x x x G j.C.U. X*X*X.X.X*XXX.XQ.V.j.a.a.a.d.l.l.}  .| | Y : + 4 2XfX9X",
"9XsX3X4 @ s d k l b M ' ] ] V m x B c G k.U.%X>X*X.X.XXXXX|.Q.C.V.k.a.p.d.g.x.}  .| Y U U + 4 2XaX9X",
"9XfX4Xo.$ t y k l b ' ] } } } [ { C B v L N.W.$X$XY.Y.XX&XS.S.Q.R.V.a.a.d.g.[ _ _ ( Y Y T + 4 3XfX9X",
"9XfX4XX.$ t d l b b )  .} } }  .} { z.+.L L F.%X%XZ.C. X XA.V.Q.Q.V.h.p.a.d.V n b Y Y R Q @ 3 1XfX9X",
"9XfX3X..# s d l l i ) _ _ ) _ }  . .+.v.v.L F.=X%XB.C.}. XV.M.U.Q.N.G G v B x n b i y s $ . 1 2XaX9X",
"9XfX1X< . t d k i i i _ _ ) ) ) ) { +.b.v.L F.'._.B.B.Q.}.M.m.I.R.j.v v v x z M b i p 0 O   ; u.aX9X",
"9XfX1X= . + s ! i u u b b b b b ( ` +.b.b.I F._._.B.m.Y.Y.M.m.C.L.k.G c v z z i 9 g A Z ; o 2 i.pXgX",
"9XfX<X>   . % f y 8 u u b b b i i M O.J.J.D.F.T.T.B.m.S.S.M.m.M.F.I c 9 c 9 9 9 q S P %.%.%.2 8.7XaX",
"9XaX1X1   . * e e r 8 u 9 u u u i l N O.v.F.K._.E.Z.Z.U.Y.A.m.*.J F q 9 9 9 5 5 0 #.^.P.(.>.:.:.r.8X",
"9XtX[.2 o * * O 7 p g 8 w u 9 u u h h M O.J.K.).T.G.Z.U.Y.Z.*.H q A q 0 5 5 5 X 0 ;.+X+XoX[.:.%.$.5X",
"gXpXi.X.- - O O X 0 p u i u u w r p g g h @.J.!.G.*.&.P.P.*.J A A 0 A q 0 0 5 . O &.^.oXoX>.:.2 2 5X",
"iXbX[.=.D %.D Z 0 0 e d y y u r w r e 8 p h O.-.-.A A *.*.H A 0 Z S P P O.S O X O %.>.>.>.>.:.; $.5X",
"wX[.q.q.q.q.;.=.Z O X e t t w % % e X % X O a S S 0 0 S A 0 o O Z %.^.^.!.;.P O Z %.oXoX(.>.:.$.$.5X",
"wX5Xq.[.@X@Xq.;.X.O . $ % : $ $ = = = # # * * * . O O Z O O . o 0 q.`.`.`.^.;.; ; :.[.[.[.[.:.:.r.wX",
"gX8X[.q.q.0.0.1.=.2 > : 4 4 4 , , 1 < < < , > - = - - - - - * * ..1.7.i.q.7.=.X.X.=.8.[.:.8.8.5X7XrX",
"qXaX8X[.8.8.8.8.8.8.3.<.4.w.w.5.4.4.2.2.4.2.2.<.2.2.2.2.2.2.1.2.2.5.7.7.e.7.5.3.3.5.5.9.9.5.,X8XiXqX",
"9XqXiX8X6X6X6X7XzXzXzXcX7XbXbXvXcXcXcXcXvXvXcXvXcXcXzXcXcXcXvXxXxXxXvXzXvXvXxXzXzXzXvXcX7X7X8XiXgX9X"
};
