/* XPM */
static char *result[] = {
/* columns rows colors chars-per-pixel */
"50 50 190 2 ",
"   c #1E2123",
".  c #1D2D3A",
"X  c #222323",
"o  c #292D2B",
"O  c #2F3029",
"+  c #47442C",
"@  c #554D2A",
"#  c #56563D",
"$  c #6C5F2B",
"%  c #635B33",
"&  c #78682C",
"*  c #6E673E",
"=  c #756B39",
"-  c #253A49",
";  c #323B42",
":  c #1E425D",
">  c #3F4141",
",  c #334D5A",
"<  c #364D59",
"1  c #1F4967",
"2  c #2B4C63",
"3  c #274D68",
"4  c #2B516E",
"5  c #355363",
"6  c #3B5561",
"7  c #255373",
"8  c #2B5371",
"9  c #2B587A",
"0  c #305672",
"q  c #4A554C",
"w  c #565942",
"e  c #5B5B41",
"r  c #455756",
"t  c #4B5B55",
"y  c #4B5C5A",
"u  c #57655B",
"i  c #6C6946",
"p  c #6C6B4B",
"a  c #797649",
"s  c #656B5A",
"d  c #706F50",
"f  c #4A636C",
"g  c #526661",
"h  c #476B7B",
"j  c #5B7471",
"k  c #6F7764",
"l  c #6E7B66",
"z  c #86732E",
"x  c #8E792F",
"c  c #7C8668",
"v  c #96802F",
"b  c #9B8430",
"n  c #A48C34",
"m  c #AD9234",
"M  c #AF973F",
"N  c #B69A37",
"B  c #BB9E33",
"V  c #BAA03F",
"C  c #C9A937",
"Z  c #C9AA36",
"A  c #D4B236",
"S  c #D9B738",
"D  c #DDBA3B",
"F  c #E4BE37",
"G  c #E3BE39",
"H  c #E5C039",
"J  c #ECC438",
"K  c #EEC83C",
"L  c #F4CB39",
"P  c #F9CF3A",
"I  c #FED33A",
"U  c #88824C",
"Y  c #958747",
"T  c #908752",
"R  c #9A8E5A",
"E  c #A38F44",
"W  c #A9995A",
"Q  c #BBA040",
"!  c #BCA44C",
"~  c #ADA252",
"^  c #8C9369",
"/  c #8F9972",
"(  c #929673",
")  c #A7A966",
"_  c #B7B569",
"`  c #B9BB71",
"'  c #C7AC4D",
"]  c #DCBB42",
"[  c #D9BF4A",
"{  c #D0BF57",
"}  c #DCC148",
"|  c #FDD743",
" . c #F5D54B",
".. c #FBDA4E",
"X. c #E9CF52",
"o. c #F4D853",
"O. c #FDDE52",
"+. c #FEE154",
"@. c #FEE359",
"#. c #CBC46A",
"$. c #CCC66A",
"%. c #D0CB6E",
"&. c #C2C375",
"*. c #C8C877",
"=. c #D4D47B",
"-. c #E2DC75",
";. c #FAE86A",
":. c #EFE97C",
">. c #F7EF7C",
",. c #FDF37C",
"<. c #1D5E88",
"1. c #2B5E84",
"2. c #1E6D9F",
"3. c #2E6083",
"4. c #25638C",
"5. c #2C668E",
"6. c #356384",
"7. c #31658D",
"8. c #30688F",
"9. c #2A6791",
"0. c #266A94",
"q. c #236D9C",
"w. c #326A93",
"e. c #3B6F98",
"r. c #2E709E",
"t. c #3A7199",
"y. c #1E71A5",
"u. c #2472A2",
"i. c #2E76A9",
"p. c #3373A2",
"a. c #3C76A3",
"s. c #3678A8",
"d. c #3B79A9",
"f. c #277EB6",
"g. c #377FB3",
"h. c #4A6F8C",
"j. c #45759A",
"k. c #797F87",
"l. c #447AA5",
"z. c #2980B9",
"x. c #3683B9",
"c. c #3B87BD",
"v. c #5B8496",
"b. c #66879C",
"n. c #478ABD",
"m. c #2589C7",
"M. c #3289C4",
"N. c #3D8CC5",
"B. c #2796DB",
"V. c #3494D4",
"C. c #279DE4",
"Z. c #239FE8",
"A. c #369DE1",
"S. c #23A2ED",
"D. c #2BA3EC",
"F. c #3FA2E6",
"G. c #35A4EC",
"H. c #3BA4EA",
"J. c #458EC5",
"K. c #4E8EC2",
"L. c #4392CC",
"P. c #5394CA",
"I. c #5B97CB",
"U. c #5C9ACE",
"Y. c #4C9AD6",
"T. c #469DDC",
"R. c #5399D2",
"E. c #5B9DD4",
"W. c #6599C7",
"Q. c #609FD4",
"!. c #5BA3DF",
"~. c #63A0D5",
"^. c #61A3DB",
"/. c #43A6EB",
"(. c #46A5E8",
"). c #4BA6E8",
"_. c #4CA9ED",
"`. c #5BA9E7",
"'. c #52AAEC",
"]. c #64A8E2",
"[. c #63AEEC",
"{. c #75B3E9",
"}. c #BCC282",
"|. c #C6CB83",
" X c #CDD186",
".X c #E2E282",
"XX c #E8E985",
"oX c #FBF480",
"OX c #FEFD8F",
"+X c #FFFF90",
/* pixels */
"S.S.S.S.S.S.S.S.S.S.S.S.S.S.S.S.S.S.S.S.S.S.S.S.S.S.S.S.S.S.S.S.S.S.S.S.S.S.S.S.S.S.S.S.S.S.S.S.S.S.",
"S.S.S.S.S.S.S.S.S.S.S.S.S.S.S.S.S.S.S.S.S.S.S.S.S.S.S.S.S.S.S.S.S.S.S.S.S.S.S.S.S.S.S.S.S.S.S.S.S.S.",
"S.S.S.S.S.S.S.S.S.S.S.S.S.S.S.S.S.S.S.S.S.S.S.S.S.S.S.S.S.S.S.S.S.S.S.S.S.S.S.S.S.S.S.S.S.S.S.S.S.S.",
"S.S.S.S.S.S.S.S.S.S.S.S.S.S.S.S.S.S.S.S.S.S.S.S.S.S.S.S.S.S.S.S.S.S.S.S.S.S.S.S.S.S.S.S.S.S.S.S.S.S.",
"S.S.S.S.S.S.S.S.S.S.S.S.S.S.S.S.S.S.S.S.S.S.S.S.S.G.[.x.y.y.u.u.u.u.u.u.N.'.S.S.S.S.S.S.S.S.S.S.S.S.",
"S.S.S.S.S.S.S.S.S.S.S.S.S.S.S.S.S.S.S.S.S.S.S.S.D.[.x.8 / }.}.}.}.}.}.l 7 p.M.[.S.S.S.S.S.S.S.S.S.S.",
"S.S.S.S.S.S.S.S.S.S.S.S.S.S.S.S.S.S.S.S.S.S.S.S.Z.x.8 ^ .X+XOXOXOXOX;.} M d 7 K.[.S.S.S.S.S.S.S.S.S.",
"S.S.S.S.S.S.S.S.S.S.S.S.S.S.S.S.S.S.S.S.S.S.S.S.Z.q./ .XOXOXOX) ~ X.O.I I H = 7 n.[.S.S.S.S.S.S.S.S.",
"S.S.S.S.S.S.S.S.S.S.S.S.S.S.S.S.S.S.S.S.S.S.S.S.T.5.|.+X+X) c f 6 s a B P I H * 7 K.[.S.S.S.S.S.S.S.",
"S.S.S.S.S.S.S.S.S.S.S.S.S.S.S.S.S.S.S.S.S.S.S.Z.x.2 *.OXOXl j.x.m.n.3.r B I I D = 9 P.S.S.S.S.S.S.S.",
"S.S.S.S.S.S.S.S.S.S.S.S.S.S.S.S.S.S.S.S.S.S.S.Z.y.- &.OX=.j N.'.S./.E.w.q B I I B - i.Z.S.S.S.S.S.S.",
"S.S.S.S.S.S.S.S.S.S.S.S.S.S.S.S.S.S.S.S.S.S.S.D.c.3 *.+X=.j L./.S.S./.!.3.# A I H p q.Z.S.S.S.S.S.S.",
"S.S.S.S.S.S.S.S.S.S.S.S.S.S.S.S.S.S.S.S.S.S.S.S.'.5.|.+X+Xl t.!./.S.S./.c.2 z I I ! 9.A.S.S.S.S.S.S.",
"S.S.S.S.S.S.S.S.S.S.S.S.S.S.S.S.S.S.S.S.S.S.S.S.Z.q.c XX+X) 6 l.]./.S.S.M.1.* P I Q 7 M.S.S.S.S.S.S.",
"S.S.S.S.S.S.S.S.S.S.S.S.S.S.S.S.S.S.S.S.S.S.S.S.C.c.3 ` OXOX~ t l.^./._.L.5.i I P B - y.Z.S.S.S.S.S.",
"S.S.S.S.S.S.S.S.S.S.S.S.S.S.S.S.S.S.S.S.S.S.S.S.G.{.6.c XXOX@.m < t.L.J.t.y b I I B - 2.Z.S.S.S.S.S.",
"S.S.S.S.S.S.S.S.S.S.S.S.S.S.S.S.S.S.S.S.S.S.S.D.).U.9 . U -.+.I m i k k d n I I I V 2 z.Z.S.S.S.S.S.",
"S.S.S.S.S.S.S.S.S.S.S.S.S.S.S.S.S.S.S.S.S.S.S.D.U.v.u o @ C I I I P P I P P I I I ! 5.T.S.S.S.S.S.S.",
"S.S.S.S.S.S.S.S.S.S.S.S.S.S.S.S.S.S.S.S.S.S.S.Z.q./ .XY Z P Z B N S P I I I I I H T q.S.S.S.S.S.S.S.",
"S.S.S.S.S.S.S.S.S.S.S.S.S.S.S.S.S.S.S.S.S.S.D.(.0.q =.O.P P $ > ; i ' ' ' ' ' ' Y 4 f.Z.S.S.S.S.S.S.",
"S.S.S.S.S.S.S.S.S.S.S.S.S.S.S.S.S.S.S.S.S.S./.Q.9 q $...S K $ k.b.9.9.0.0.0.q.2.r.x.`.D.S.S.S.S.S.S.",
"S.S.S.S.S.S.S.S.S.S.S.S.S.S.S.S.S.S.S.S.D.(.E.8.t $...Z # v e h.W.).Z.Z.Z.Z.Z.S.Z.Z.S.S.S.S.S.S.S.S.",
"S.S.S.S.S.S.S.S.S.S.S.S.S.S.S.S.S.S.S.S.D.~.8.t %.| D e 0 4.q.L.).D.S.S.S.S.S.S.S.S.S.S.S.S.S.S.S.S.",
"S.S.S.S.S.S.S.S.S.S.S.S.S.S.S.S.S.S.S.D.A.p.y %.o.S # 3.I.(.Z.C.Z.S.S.S.S.S.S.S.S.S.S.S.S.S.S.S.S.S.",
"S.S.S.S.S.S.S.S.S.S.S.S.S.S.S.S.S.S.D.H.R.h ` ;.[ w 3.I.).D.S.S.S.S.S.S.S.S.S.S.S.S.S.S.S.S.S.S.S.S.",
"S.S.S.S.S.S.S.S.S.S.S.S.S.S.S.S.S.Z.H.Q.j.( -.[ i 6.I.).D.S.S.S.S.S.S.S.S.S.S.S.S.S.S.S.S.S.S.S.S.S.",
"S.S.S.S.S.S.S.S.S.S.S.S.S.S.S.S.D.H.E.e. X:.X.# 3.W./.D.S.S.S.S.S.S.S.S.S.S.S.S.S.S.S.S.S.S.S.S.S.S.",
"S.S.S.S.S.S.S.S.S.S.S.S.S.S.S.D./.~.8.q -...] f J.F.D.S.S.S.S.S.S.S.S.S.S.S.S.S.S.S.S.S.S.S.S.S.S.S.",
"S.S.S.S.S.S.S.S.S.S.S.S.S.S.D./.E.5.t %. .G w 8.B.D.S.S.S.S.S.S.S.S.S.S.S.S.S.S.S.S.S.S.S.S.S.S.S.S.",
"S.S.S.S.S.S.S.S.S.S.S.S.S.S./.Q.w.r #. .S w 3.P.A.S.S.S.S.S.S.S.S.S.S.S.S.S.S.S.S.S.S.S.S.S.S.S.S.S.",
"S.S.S.S.S.S.S.S.S.S.S.S.D.H.R.5.t $. .G w 1.U./.D.S.S.S.S.S.S.S.S.S.S.S.S.S.S.S.S.S.S.S.S.S.S.S.S.S.",
"S.S.S.S.S.S.S.S.S.S.S.S./.E.9.r #...J Y 6.P.).D.S.S.S.S.S.S.S.S.S.S.S.S.S.S.S.S.S.S.S.S.S.S.S.S.S.S.",
"S.S.S.S.S.S.S.S.S.S.S.S.B.w.y &.>.| D f W.(.D.S.S.S.S.S.S.S.S.S.S.S.S.S.S.S.S.S.S.S.S.S.S.S.S.S.S.S.",
"S.S.S.S.S.S.S.S.S.S.S.G.J.h *.,.O.G e 5.F.C.S.S.S.S.S.S.S.S.S.S.S.S.S.S.S.S.S.S.S.S.S.S.S.S.S.S.S.S.",
"S.S.S.S.S.S.S.S.S.D.G.L.v.|.oX+.G % 2 W.A.S.S.S.S.S.S.S.S.S.S.S.S.S.S.S.S.S.S.S.S.S.S.S.S.S.S.S.S.S.",
"S.S.S.S.S.S.S.S.S._.R.b.|.,.+.I S O - l.].G.S.S.S.S.S.S.S.S.S.S.S.S.S.S.S.S.S.S.S.S.S.S.S.S.S.S.S.S.",
"S.S.S.S.S.S.S.S./.R.e.l oX+.I I L N & , s.].G.S.S.S.S.S.S.S.S.S.S.S.S.S.S.S.S.S.S.S.S.S.S.S.S.S.S.S.",
"S.S.S.S.S.S.S._.R.5.u #.O.I I I I I J m , w.f.].G.S.S.S.S.S.S.S.S.S.S.S.S.S.S.S.S.S.S.S.S.S.S.S.S.S.",
"S.S.S.S.S.S._.R.w.g _ @.I I I I I I I L m U 2 a.[.G.D.S.S.S.S.S.S.S.S.S.S.S.S.S.S.S.S.S.S.S.S.S.S.S.",
"S.S.S.S.S._.Y.w.u ` ,...I I I I H x L I I L n , s.C.S.S.S.S.S.S.S.S.S.S.S.S.S.S.S.S.S.S.S.S.S.S.S.S.",
"S.S.S.S._.Y.w.g ` ,.+.I I I I H z O z Z P I X.+ <.C.S.S.S.S.S.S.S.S.S.S.S.S.S.S.S.S.S.S.S.S.S.S.S.S.",
"S.S.S.S.Y.j.g ` ,.+.I P I I I K z X   @ x F v 5 g.C.S.S.S.S.S.S.S.S.S.S.S.S.S.S.S.S.S.S.S.S.S.S.S.S.",
"S.S.S.S.m.4 a oX@.I S Y T ! I I L z +   X = 6 d.Y.G.S.S.S.S.S.S.S.S.S.S.S.S.S.S.S.S.S.S.S.S.S.S.S.S.",
"S.S.S.S.V.4.t { I I ! 0 l.h.W Z P L B & o : a.Y.G.S.S.S.S.S.S.S.S.S.S.S.S.S.S.S.S.S.S.S.S.S.S.S.S.S.",
"S.S.S.S./.R.9.t E E ( n.{.!.a.u m P L N 5 s.`.G.S.S.S.S.S.S.S.S.S.S.S.S.S.S.S.S.S.S.S.S.S.S.S.S.S.S.",
"S.S.S.S.S.).Y.i.1.1 p.].S.H.!.t.6 C G s a.`.A.S.S.S.S.S.S.S.S.S.S.S.S.S.S.S.S.S.S.S.S.S.S.S.S.S.S.S.",
"S.S.S.S.S.S.S./.Y.f.m.S.S.S.G.`.j.s R 7.E.G.S.S.S.S.S.S.S.S.S.S.S.S.S.S.S.S.S.S.S.S.S.S.S.S.S.S.S.S.",
"S.S.S.S.S.S.S.S.S.Z.S.S.S.S.S.G.).f.u.f.Z.S.S.S.S.S.S.S.S.S.S.S.S.S.S.S.S.S.S.S.S.S.S.S.S.S.S.S.S.S.",
"S.S.S.S.S.S.S.S.S.S.S.S.S.S.S.S.D.S.S.Z.S.S.S.S.S.S.S.S.S.S.S.S.S.S.S.S.S.S.S.S.S.S.S.S.S.S.S.S.S.S.",
"S.S.S.S.S.S.S.S.S.S.S.S.S.S.S.S.S.S.S.S.S.S.S.S.S.S.S.S.S.S.S.S.S.S.S.S.S.S.S.S.S.S.S.S.S.S.S.S.S.S."
};
