/* XPM */
static char *result[] = {
/* columns rows colors chars-per-pixel */
"50 25 77 1 ",
"  c black",
". c gray1",
"X c gray2",
"o c #060606",
"O c gray3",
"+ c gray4",
"@ c gray5",
"# c gray7",
"$ c #151515",
"% c #181818",
"& c #191919",
"* c #1D1D1D",
"= c #1E1E1E",
"- c #222222",
"; c #272727",
": c #2A2A2A",
"> c gray17",
", c #2F2F2F",
"< c gray21",
"1 c gray22",
"2 c #3A3A3A",
"3 c gray23",
"4 c #3E3E3E",
"5 c #3F3F3F",
"6 c #414141",
"7 c gray26",
"8 c #494949",
"9 c gray29",
"0 c #4C4C4C",
"q c #4E4E4E",
"w c gray31",
"e c #535353",
"r c gray33",
"t c #555555",
"y c gray35",
"u c #5D5D5D",
"i c gray37",
"p c gray38",
"a c gray40",
"s c #6D6D6D",
"d c gray44",
"f c #767676",
"g c #797979",
"h c gray48",
"j c #7B7B7B",
"k c #7E7E7E",
"l c #808080",
"z c #838383",
"x c #848484",
"c c gray52",
"v c gray54",
"b c #8B8B8B",
"n c #8E8E8E",
"m c gray56",
"M c #909090",
"N c #939393",
"B c gray58",
"V c #979797",
"C c gray61",
"Z c gray63",
"A c #A5A5A5",
"S c gray65",
"D c gray66",
"F c gray67",
"G c #ACACAC",
"H c #AFAFAF",
"J c #B1B1B1",
"K c #B2B2B2",
"L c gray70",
"P c #B4B4B4",
"I c gray71",
"U c gray72",
"Y c gray73",
"T c #BBBBBB",
"R c gray",
"E c #C1C1C1",
"W c #C3C3C3",
/* pixels */
"WWWWWWWWWWWWWWWWWWWWWWWWWWWWWWWWWWWWWWWWWWWWWWWWWW",
"WWWWWWWWWWWWWWWWWWWWWWWWWWWWWWWWWWWWWWWWWWWWWWWWWW",
"WWWWWWWWWWWWWWWWWWWWWWWWWWWWWWWWWWWWWWWWWWWWWWWWWW",
"WWWWWWWWWWWWWWWWWWWWWWWWWWWWWWWWWWWWWWWWWWWWWWWWWW",
"WWWWWWWWWWWWWWWWWWWWWWWWWWWWWWWWWWWWWWWWWWWWWWWWWW",
"N5=======cWWWFx5===2aSWWWWWWWWWWWWWWWWWWWWWWWWWWWW",
"v;       hWWF8#o   X@lWWWWWWWWWWWWWWWWWWWWWWWWWWWW",
"v;       hWF8O       hWWWWWWWWWWWWWWWWWWWWWWWWWWWW",
"v; *gAAAAUWm:  wVAAf4bWWWWWWWWWWWWWWWWWWWWWWWWWWWW",
"v; -nWWWWWWv;  fEWWTJTWWWWWWWg,=sPWWWWWWWWWWWWWWWW",
"v; -nWWWWWWv;  ,kPWWWWWWWWWWWq. >BWWWWWWWWWWWWWWWW",
"v; X$===tSWTp# X#1aSWWWWWWWWWl- rGWWWWWWWWWWWWWWWW",
"v;      7ZWWIi#  X@<kPWWWWWWWTFAPEWWWWWWWWWWWWWWWW",
"v;      7ZWWWIg4#  X#zWWWWWWWWWWWWWWWWWWWWWWWWWWWW",
"v; *gAAAHRWWWWTJM0#  9SWWWWWWWWWWWWWWWWWWWWWWWWWWW",
"v; -nWWWWWWFCPWWRL6  7ZWWWWWWWWWWWWWWWWWWWWWWWWWWW",
"v; -nWWWWWWm1eSWWF3  7ZWWWWWWWWWWWWWWWWWWWWWWWWWWW",
"v; X$====sPv;+%==&O  yHWWWWWWg,=sPWWWWWWWWWWWWWWWW",
"v;       uKv;       wAEWWWWWWq. >BWWWWWWWWWWWWWWWW",
"v;       uKTj4#   1dAEWWWWWWWl- rGWWWWWWWWWWWWWWWW",
"TFAAAAAAAPEWTJDAAAHYEWWWWWWWWTFAPEWWWWWWWWWWWWWWWW",
"WWWWWWWWWWWWWWWWWWWWWWWWWWWWWWWWWWWWWWWWWWWWWWWWWW",
"WWWWWWWWWWWWWWWWWWWWWWWWWWWWWWWWWWWWWWWWWWWWWWWWWW",
"WWWWWWWWWWWWWWWWWWWWWWWWWWWWWWWWWWWWWWWWWWWWWWWWWW",
"WWWWWWWWWWWWWWWWWWWWWWWWWWWWWWWWWWWWWWWWWWWWWWWWWW"
};
