/* XPM */
static char *result[] = {
/* columns rows colors chars-per-pixel */
"50 50 237 2 ",
"   c #150F00",
".  c #1A0802",
"X  c #280801",
"o  c #380300",
"O  c #281501",
"+  c #3A1503",
"@  c #311E00",
"#  c #2D2300",
"$  c #372402",
"%  c #3E2400",
"&  c #2D2323",
"*  c #2A2A2A",
"=  c #392C2C",
"-  c #4F0101",
";  c #460A00",
":  c #451C01",
">  c #5A1206",
",  c #680000",
"<  c #730500",
"1  c #7B0200",
"2  c #6E1400",
"3  c #671904",
"4  c #6B1A1A",
"5  c #771610",
"6  c #452702",
"7  c #562702",
"8  c #4E3E00",
"9  c #4C3308",
"0  c #583B01",
"q  c #402A12",
"w  c #682800",
"e  c #742800",
"r  c #653600",
"t  c #793A00",
"y  c #4E2D2D",
"u  c #552525",
"i  c #563A28",
"p  c #622121",
"a  c #694400",
"s  c #774100",
"d  c #7C4A00",
"f  c #765400",
"g  c #715900",
"h  c #6F5112",
"j  c #7E620D",
"k  c #5C442F",
"l  c #6A5523",
"z  c #6B5037",
"x  c #555151",
"c  c #6B5251",
"v  c #736855",
"b  c #686868",
"n  c #786363",
"m  c #7B6B6B",
"M  c #757575",
"N  c #7A7878",
"B  c #820302",
"V  c #8D0101",
"C  c #8A0B01",
"Z  c #960805",
"A  c #961206",
"S  c #871414",
"D  c #A40201",
"F  c #AB0101",
"G  c #B30101",
"H  c #BC0500",
"J  c #BD0A0A",
"K  c #AB170D",
"L  c #872600",
"P  c #9B2700",
"I  c #893200",
"U  c #853A00",
"Y  c #9A3C00",
"T  c #AE2D00",
"R  c #A23900",
"E  c #B63300",
"W  c #842626",
"Q  c #93302B",
"!  c #933939",
"~  c #C40101",
"^  c #CB0100",
"/  c #C00909",
"(  c #D40101",
")  c #DC0000",
"_  c #D30C00",
"`  c #E40000",
"'  c #ED0000",
"]  c #E70800",
"[  c #F30200",
"{  c #FD0100",
"}  c #F90B00",
"|  c #EB1E00",
" . c #FD1700",
".. c #D72C00",
"X. c #CD3000",
"o. c #E32F00",
"O. c #E92B00",
"+. c #FE2400",
"@. c #E93B00",
"#. c #FA3700",
"$. c #884708",
"%. c #984F08",
"&. c #865800",
"*. c #A34600",
"=. c #A74D00",
"-. c #B84C00",
";. c #A55300",
":. c #886300",
">. c #96690A",
",. c #A26700",
"<. c #A57700",
"1. c #B97E00",
"2. c #946E2C",
"3. c #AA6E33",
"4. c #D34A00",
"5. c #D35400",
"6. c #EB4A00",
"7. c #FA4A00",
"8. c #8A4E47",
"9. c #845353",
"0. c #906D4C",
"q. c #866B53",
"w. c #A37350",
"e. c #826666",
"r. c #827B7B",
"t. c #957571",
"y. c #A57D79",
"u. c #BB8700",
"i. c #B58C08",
"p. c #B88330",
"a. c #CD8B00",
"s. c #C59C01",
"d. c #F59D0C",
"f. c #D4A606",
"g. c #E8B401",
"h. c #FCB906",
"j. c #F5B30D",
"k. c #E89A38",
"l. c #DBA52F",
"z. c #F1B22E",
"x. c #F7BB28",
"c. c #F7C304",
"v. c #FDC502",
"b. c #FECA00",
"n. c #FDC713",
"m. c #FCC822",
"M. c #B08A56",
"N. c #87847A",
"B. c #A58966",
"V. c #A88969",
"C. c #AE8D74",
"Z. c #CC9755",
"A. c #D2A452",
"S. c #EDB651",
"D. c #CDA865",
"F. c #D7A678",
"G. c #DCB37D",
"H. c #E5AF6E",
"J. c #E9B268",
"K. c #E3AF73",
"L. c #E2B277",
"P. c #EFC46C",
"I. c #7B93A7",
"U. c #7191AF",
"Y. c #399EDE",
"T. c #379FE1",
"R. c #23A2ED",
"E. c #2BA2EC",
"W. c #3BA3E6",
"Q. c #34A3EA",
"!. c #3BA5EA",
"~. c #589CCD",
"^. c #4FA4DC",
"/. c #57A4DB",
"(. c #72A7D1",
"). c #4AA5E4",
"_. c #47A8EB",
"`. c #57AAE6",
"'. c #6CB6E9",
"]. c #7BBAEB",
"[. c #65B4F0",
"{. c #7DBCF1",
"}. c #828282",
"|. c #8D8B84",
" X c #8A8A8A",
".X c #9E8787",
"XX c #878E97",
"oX c #989898",
"OX c #AC9792",
"+X c #B2A594",
"@X c #8A9CAC",
"#X c #9DABBA",
"$X c #A6A5A4",
"%X c #AAACAB",
"&X c #B8A8A7",
"*X c #B9A9A8",
"=X c #ACAEB4",
"-X c #AAB5BC",
";X c #B7B7B8",
":X c #C29A89",
">X c #D4AD8D",
",X c #CFB28D",
"<X c #DAB386",
"1X c #D7B489",
"2X c #CBAA97",
"3X c #D1AC91",
"4X c #CDB599",
"5X c #C4AEA3",
"6X c #C5B6A5",
"7X c #D8C596",
"8X c #E8C889",
"9X c #D6CBAE",
"0X c #CDC7B7",
"qX c #D0C7B2",
"wX c #D0CCBE",
"eX c #8BABCB",
"rX c #98B2CA",
"tX c #9BB9C8",
"yX c #8AB3D8",
"uX c #95BAD8",
"iX c #A5B9C7",
"pX c #86BAE7",
"aX c #BCCCD2",
"sX c #9BC6E6",
"dX c #90C8F0",
"fX c #B2D0E6",
"gX c #C7C4C4",
"hX c #CAC9C9",
"jX c #CDD7D5",
"kX c #D3D3D3",
"lX c #DCDBDB",
"zX c #E2DDDD",
"xX c #C3E1F7",
"cX c #E3E3E3",
"vX c #ECECEC",
"bX c #F0F0F0",
"nX c #FEFEFE",
/* pixels */
"R.R.R.R.R.R.R.R.R.R.R.R.R.R.R.R.R.R.R.R.R.R.R.R.R.R.R.R.R.R.R.R.R.R.R.R.R.R.R.R.R.R.R.R.R.R.R.R.R.R.",
"R.R.R.R.R.R.R.R.R.R.R.R.R.R.R.R.R.R.R.R.R.R.E._.)././.T.R.R.R.R.R.R.R.R.R.R.R.R.R.R.R.R.R.R.R.R.R.R.",
"R.R.R.R.R.R.R.R.R.R.R.R.R.R.R.R.R.R.R.R.R.R.!.yXyX*X=X).R.R.R.R.R.R.R.R.R.R.R.R.R.R.R.R.R.R.R.R.R.R.",
"R.R.R.R.R.R.R.R.R.E.!.T.).).T.T.E.R.R.R.Q.!.).iXrX5X*X/.!.E.R.Q.!.).^.^.^.^.!.Q.R.R.R.R.R.R.R.R.R.R.",
"R.R.R.R.R.R.R.R.R.!.pX].*X&XrXyX_.R.R.R._.pXiXd.d.G.L.-XyX`.E.`.yX-X3X3X3X3X].yXQ.R.R.R.R.R.R.R.R.R.",
"R.R.R.R.R.R.R.R.Q._.pXyX*X5XrXeX`.!.!.Q.`.pXiXd.d.L.L.=XrX/.Q.(.rX=X>X3X>X3XeXyX!.E.R.R.R.R.R.R.R.R.",
"R.R.R.R.R.R.R._.pXsX4X4Xx.j.J.H.K.<XK.K.<X<XL.h.h.n.n.J.H.K.<XK.H.S.n.n.n.m.1X1XrXyX).E.R.R.R.R.R.R.",
"R.R.R.R.R.E.E._.pXuX4X3Xj.j.S.H.K.K.K.K.<X<XL.h.h.v.h.J.J.K.K.H.J.S.v.b.b.n.1X>XrXuX).E.E.E.R.R.R.R.",
"R.R.R.R.R.(.*X&X>XG.z.x.f.f.j l l l l l 2.l.z.b.v.b.b.f.p.2.l l l l g >.c.c.x.x.G.7XaXfXfXsX'.R.R.R.",
"R.R.R.R.R.U.5X2XK.J.v.h.s.i.g 8 8 8 8 8 :.g.g.b.b.b.b.s.i.g 8 8 8 8 8 g c.c.v.v.L.G.wXjXfXfXdXR.R.R.",
"R.R.R.R.R.eX2XF.k.z.g.f.&.&.;.=.;.=.;.=.%.f f g g g g &.&.;.;.;.=.=.=.=.g j b.b.x.z.8X9XjXxXdXE.R.R.",
"R.R.R.R.E.eX3XF.d.d.f.f.r r 4.5.5.5.5.5.*.% % # # # # r r =.5.5.5.5.5.-.8 8 c.b.n.n.P.8XwXxXdXR.R.R.",
"R.R.R.R.R.(.5X2Xk.k.s.s.6 : P T ..O.O.O.X.*.Y U t % : R E ..O.O.O.X.I t $ $ c.c.g.j.S.8XkXxXdXR.R.R.",
"R.R.R.R.R.[.sX;Xk.Z.i.i.O . 2 C ) { { }  .7.6.4.4.> > ..#. .{ { { H ; ; O # g.g.g.g.S.P.9XxXdXE.R.R.",
"R.R.R.^.(.eX*XOXw.3.>.,.e e A J ] { { { } #.#.o.o.A A | +.} { { { _ L L w t <.<.u.a.l.S.7XjXuXR.R.R.",
"R.R.R.#X5X+XC.0.: : 3 w 7.7.#.+. .{ { { { { { { { { { { { { { { {  .#.#.6.6.: @ r s 1.f.D.9XtXR.R.R.",
"R.R.R.#X2XOXw.0.7 7 e e #.7.+. .} [ ' ' ' ' ' { { { { ' ' ' ' [ { } #.#.#.@.7 : r a <.a.D.9XtXR.R.R.",
"R.R.R.%X<Xe.+ 7 Y Y E E { { { { ( ^ G D D D G { { ` ` G D Z D ~ ` [ { { [ } R *.e w s d B.qXtXR.R.R.",
"R.R.R.$X<Xq.+ 7 Y Y E E { { { { ( ~ G Z D D G { { ` ) F Z D D J ) ` { { } } *.*.e w s $.B.qXtXR.R.R.",
"R.R.R.aX9XC.>.i . X P P { { ^ ~ ! 8.e.r.r.r.n B B W W e.r.r.N 9.W K ' ' ' ' 4 7 $ # &.u.D.9XtXR.R.R.",
"R.R.R.tX0XC.>.h . O P P { { ^ H ! 9.e.}.r.}.e.1 B W W t.}.}.}.9.4 K ` ' [ ' w w $ # :.1.D.qXtXR.R.R.",
"R.!._.-X9XB.j $.I P | | ( ^ ! 8.OXgXlXvXvXvXkX.X.X$X&XcXvXvXvXhX&Xt.W S [ [ ....U d >.u.Z.<X%XR.R.R.",
"R._._.-X9XM.h $.R E  . .^ ~ ! 9.5XlXvXnXnXnXvX$X$X;XiXbXnXnXnXzX0X.Xp S [ } +.O.*.$.,.<.M.G.%XR.R.R.",
"R.~.~.N.0.z @ 6 7 3 A A G F 9.m hXbXgXoX;XvXvXzXlXvXcXgXgXgXgXlXcX$Xy p ` ` 2 2 : 6 6 8 0.C.@XR.R.R.",
"R.~.U.v j $     + + , , D D e.M kXnX-Xb oXcXvXnXnXnXnX;X%X$X$XkXnX=X= u ) ) o o X O   O x V.I.R.R.R.",
"R.~.~.N.w.2.g 0 O ; D F F D e.N kXnX%Xx }.cXvXnXnXnXnX;X$X$XoXkXnX;X* u ` ` 1 1 6 6 a &.w.OX@XR.R.R.",
"R.).).$XG.A.g.<.X ; ' ` F F e.N kXnX$Xx N cXcXnXnXnXnX=XoXoX XhXnX=X= y ' ' G G r 0 1.f.D.qXtXR.R.R.",
"R.W.!.$XF.M.>.%.< V ' ' F F 9.M hXvX;XN oXlXzXbXbXvXvX;X%X%X%XhXbX%X= p ' [ ( ( e e ,.u.M.qX#XR.R.R.",
"R.R.E.%XG.q.# 2 ' [ { { H G 9.n *XkXkXkXkXkXkXkXkXkXkXkXkXkXkXkXkXoXu 4 [ [ { { G D I d B.qXtXR.R.R.",
"R.R.R.%X1Xq.# 2 ' [ { { H H ! 9..X*X*X*X*X*X*X*X*X*X*X*X*X*X&X&X*Xy.p 5 ` ' { { G D I d B.qXtXR.R.R.",
"R.R.R.%X<Xq.@ 2 ' ' [ ' ^ ^ G F , - - - - - - - - - - - - - - - - V ) ( H H { { G D I d B.0XtXR.R.R.",
"R.R.R.%X<Xq.@ 2 [ ' ' ' ~ ~ F F , - - - - - - - - - - - - - - - - B ( ( G H { { G D I d B.0XtXR.R.R.",
"R.R.R.%X<Xq.@ 2 [ ' ^ ~ o o 1 V V V V V V V V V V V V V V V V V V V V 1 X X [ { G D I d B.0XrXR.R.R.",
"R.R.R.%X<Xq.@ 2 ' ' ^ ~ o o 1 V V V V V V V V V V V V V V V V V V V V 1 . X { { G D I d B.0XtXR.R.R.",
"R.R.R.%X<Xq.@ 2 ' ' ~ ~ & & c n n n n n n n n n n n n n n n n n n n n c . X { { G D I d B.qXtXR.R.R.",
"R.R.R.%X<Xq.@ 5 ' ' ^ ~ & * b N M M M M N M M M M M M M M M M M M M m b . X [ { G D I d B.qXtXR.R.R.",
"R.R.R.tX0XC.>.$.V Z ` ) 4 4 r. X;XhXhXhXhXhXhXhXhXhXhXhXhXgXhXhXgXoXb c 1 V ) ` A 5 2.p.+XjXuXR.R.R.",
"R.R.R.uXaX+X3.,., 1 ' ' S S t.oXkXbXvXbXbXbXbXbXbXbXbXbXbXbXbXbXbX;Xc c G G ) ( e e 3.A.4XfXdXR.R.R.",
"R.R.R.].sX%XZ.0.o > ^ ^ / J ! 9.r. X X X X X X X X X X X X X X X Xe.! Q ( ( D D e w B.,X;XdX'.R.R.R.",
"R.R.R.[.{.-X>Xt.  o F G ' ' A S q * * * & * * * * * * * * * * & * p G / [ ' 1 < r 0 C.6XiX{.[.R.R.R.",
"R.R.R._.[.yX*XoXx i S B ~ ^ Z A 5 4 4 4 4 4 4 4 4 4 4 4 4 4 4 4 4 S D F ^ ~ 2 3 c 0.oXaXeX[._.R.R.R.",
"R.R.R.R.R._.pXrX:Xy.+ ; C C D D ^ ) ) ) ) ) ) ( ) ) ) ( ) ) ) ( ( H V C C C 9 q +X2XuX{.`.R.R.R.R.R.",
"R.R.R.R.R._.[.yX&X.Xi y W W Z Z F H H / H H H H H H H H H H H H H F 1 S Q Q z z +X;XyX[._.R.R.R.R.R.",
"R.R.R.R.R.R.R._.pXyX2X2XV.V.i $ % % 6 6 % 6 % % % 6 % 6 % 6 % 6 % % % i H.F.6X6XyX{._.R.R.R.R.R.R.R.",
"R.R.R.R.R.R.R.!.pXpX5X2XC.y.i q q q q q q q q q q q q q % q q q q % q k F.F.*X6XdX{._.R.R.R.R.R.R.R.",
"R.R.R.R.R.R.R.R.E.R.T.T././.XXXX X|.N.|.|.N.|.|.|.N.|.|.|.|. X|.|. XXXI.`.`.Q.Q.R.R.R.R.R.R.R.R.R.R.",
"R.R.R.R.R.R.R.R.R.R.R.R./.`.I.XX X|.|.|.|.|.|.|.|.|.|.|..X X X X X X@XU.`.`.R.R.R.R.R.R.R.R.R.R.R.R.",
"R.R.R.R.R.R.R.R.R.R.R.R.E.E.Q.T.W.Y.Y.Y.Y.W.Y.Y.W.Y.Y.Y.Y.T.T.Q.Y.Y.Y.W.E.E.R.R.R.R.R.R.R.R.R.R.R.R.",
"R.R.R.R.R.R.R.R.R.R.R.R.R.R.R.R.R.R.R.R.R.R.R.R.R.R.R.R.R.R.R.R.R.R.R.R.R.R.R.R.R.R.R.R.R.R.R.R.R.R.",
"R.R.R.R.R.R.R.R.R.R.R.R.R.R.R.R.R.R.R.R.R.R.R.R.R.R.R.R.R.R.R.R.R.R.R.R.R.R.R.R.R.R.R.R.R.R.R.R.R.R."
};
