/* XPM */
static char *result[] = {
/* columns rows colors chars-per-pixel */
"50 50 119 2 ",
"   c #5ED57D",
".  c #5CDB7C",
"X  c #65CD7C",
"o  c #6ACF7F",
"O  c #76C07F",
"+  c #78C17F",
"@  c #7DCD7D",
"#  c #6DD877",
"$  c #62D37C",
"%  c #6CD47D",
"&  c #64DB7E",
"*  c #6BDD7D",
"=  c #71D67E",
"-  c #71D97E",
";  c #66E17C",
":  c #69E07B",
">  c #79E07F",
",  c #6EBF82",
"<  c #6DBF8C",
"1  c #75BE85",
"2  c #78BE87",
"3  c #74BD8D",
"4  c #79BC8D",
"5  c #78B796",
"6  c #74BC92",
"7  c #78BC96",
"8  c #75BC99",
"9  c #79BD9C",
"0  c #5ED680",
"q  c #5ED981",
"w  c #5ECC96",
"e  c #66C685",
"r  c #6BC586",
"t  c #64CB84",
"y  c #6ACB84",
"u  c #67C78A",
"i  c #6BC48C",
"p  c #66C98A",
"a  c #6CCA8B",
"s  c #75C185",
"d  c #7AC185",
"f  c #75CE83",
"g  c #7CCE85",
"h  c #73C28C",
"j  c #7BC288",
"k  c #73CC8B",
"l  c #7DCC8A",
"z  c #63D483",
"x  c #6BD482",
"c  c #64DB82",
"v  c #6BDC82",
"b  c #61D28A",
"n  c #6DD489",
"m  c #66DA8B",
"M  c #6DDA8A",
"N  c #71D585",
"B  c #78D487",
"V  c #73DB84",
"C  c #79DE85",
"Z  c #73D38A",
"A  c #7ED18A",
"S  c #74DA8B",
"D  c #7CDD8B",
"F  c #64C493",
"G  c #6CC391",
"H  c #61CB94",
"J  c #63C599",
"K  c #6CC59E",
"L  c #72C292",
"P  c #7AC395",
"I  c #72CA92",
"U  c #76C19C",
"Y  c #7AC19D",
"T  c #61D395",
"R  c #6DD694",
"E  c #65D897",
"W  c #69DB94",
"Q  c #70DC92",
"!  c #65E083",
"~  c #6AE081",
"^  c #7EE284",
"/  c #7CE28B",
"(  c #7DE492",
")  c #68C4A0",
"_  c #72C5A7",
"`  c #80BDA2",
"'  c #80CD85",
"]  c #80CC88",
"[  c #8BDF87",
"{  c #84DF8B",
"}  c #8CDD8D",
"|  c #8DDC93",
" . c #8FDE98",
".. c #90DF9A",
"X. c #83E486",
"o. c #83E58D",
"O. c #89E48B",
"+. c #8EEA8F",
"@. c #83E593",
"#. c #8DE594",
"$. c #84EA93",
"%. c #8BEB95",
"&. c #8EE39B",
"*. c #85EC9B",
"=. c #8DED9C",
"-. c #92E595",
";. c #92EA92",
":. c #91E49A",
">. c #93EE9C",
",. c #98EE9F",
"<. c #8DF19B",
"1. c #91F19C",
"2. c #82C5A4",
"3. c #8DECA0",
"4. c #94EDA2",
"5. c #98ECA3",
"6. c #8EF3A2",
"7. c #95F1A3",
"8. c #99F0A3",
/* pixels */
"8 8 8 8 8 8 8 8 8 8 8 8 8 8 8 8 8 8 8 8 8 8 8 8 8 8 8 8 8 8 8 8 8 8 8 8 8 8 8 8 8 8 8 8 8 8 8 8 8 8 ",
"8 8 8 8 8 8 8 8 8 5 8 8 8 ` 8 8 8 8 8 8 8 8 8 8 8 8 8 8 8 8 8 8 8 8 8 8 8 8 8 8 8 8 8 8 8 9 8 8 8 8 ",
"8 8 8 U K G 6 6 4 4 4 3 h G i i u u G i i F i i i i i i G i F L h L L L L 6 G G L L L L L 6 9 ` 8 8 ",
"8 8 _ K J F i i 1 1 1 r r e e e e t t t t t t t t t t t t t t r i i r i r r r < i i h k r i 6 8 8 8 ",
"8 8 ) J w H F a s s s y t t z t   X     X   $ $ $ $ $ $ $ $ t z t y a y t y t e y a k n a i L 8 8 8 ",
"8 8 J H T E R Z k f Z n n m z c &   & & & & & & & & & c & c c x n M M n n Z n n n M Q S S Z I Y 8 8 ",
"8 8 F H T W Q S B B Z S R M v ~ c : : ~ : : ~ ~ ~ ~ ~ ~ ~ ~ ~ V M V S N V N V V V D @.@.S Z j 8 8 8 ",
"8 8 F p b m M n V N V V M M M v * : : : : : : * : : : * : : ~ ~ ^ ~ ~ % - V V ^ { o.#.@.{ g s 8 8 8 ",
"8 8 F p z c v v = - V v M M * : : : : : : : : : : : : : : : : > : > * # # > > ^ X.+.;.;.[ @ O 5 8 8 ",
"8 8 i t y c v * # * * v M v v * # # : : : : # : * : - : : : : # : - # # - > ^ ^ O.;.;.-.[ @ + 4 8 8 ",
"8 8 G y z & v v # * * v W m ! ! : : : : : : : : : : : : * : : : * * - - > ^ o.+.+.;.;.-.[ @ d ] 8 8 ",
"8 8 h u y % v * * * v v ! ! ! ! : : : # > : * ~ * v v * v : * - * * - V ^ o.%.%.>.>.-.-.} ' d 4 8 8 ",
"8 8 L r x v v * * * & ! ! ! m ! : V ~ ~ v v ~ M v ~ ~ M ~ : v v % % v / o.$.=.>.>.>.>.-.| ] d 4 8 8 ",
"8 8 h r o c v * * * ; ! ! ! ! ! ~ ~ M v v v v ! v v v v M M v v c x N ( $.=.6.7.,.,.,.:.| ] d 4 8 8 ",
"8 8 h r y v v * * & ; . ! ! ! ! c c v v c v v v m ! M c c v x v x % V ( *.=.4.7.5.5.,...| ] 4 4 8 8 ",
"8 8 L r $ x * * : * ; ; m q m q c c c & c c z c c m c z z c x z c n S *.6.3.:.3.4.4.5.5.| ] 2 4 8 8 ",
"8 8 L r X v v * * * ; ! ! m ! q & 0 z 0 0 0 q z q z b z q z z z z n S *.6.3.3.3.4.4.5.5...j 2 4 8 8 ",
"8 8 L y y x v * * : & ! ! ! ! q 0 c 0 c q   q z q q 0 q 0 m z z z x D *.6.3.3.4.3.5.5.....l 2 4 8 8 ",
"8 8 L r z x v * * * : c ! ! c q . q . q . . . . q q q q q 0 0 z z x S *.6.3.3.3.4.4.5.5...] 1 4 8 8 ",
"8 8 i e z & x * # * ! c ! m c c . 0 . . . . . . q q q q q . z c * $ M *.6.3.3.3.4.4.5.5.:.l 1 4 8 8 ",
"8 8 i p X c * * : * - * M v c q   . . . . . . . . . . . . q q c $ $ % $.6.<.<.>.4.4.5.5.#.] j 4 8 8 ",
"8 8 F t z c v * * # * v v v c c . . . . . . . . . . . . . . & c * X % $.6.7.=.1.3.4.,.,.:.g s 4 8 8 ",
"8 8 h p y $ * * * * * * v v c . . . . . . . . . . . . . . . . v $ $ * $.<.<.>.=.4.,.5.5.-.] j 4 8 8 ",
"8 8 L y o x v * : : : ~ ! v ! ; . . . . . . . . . . . . . . & $ % % N $.<.<.1.<.:.,.>.,.#.g s 4 8 8 ",
"8 8 L a y x * * : ; ; ! ~ ! ! . . . . . . . . . . . . . . . . . % % = @.<.<.1.>.1.>.,.1.#.A s 4 8 8 ",
"8 8 L r y x v * ; ; ; ; ! ! ! . . . . . . . . . . . . . . .     % % = O.%.>.<.>.>.,.1.,.#.A s 4 8 8 ",
"8 8 L r y % x * : ; ; ; ! ! ! q . . . ; . . . . . . . . . .   $ o = S @.<.<.1.1.>.,.1.8.-.A j j 8 8 ",
"8 8 L r y x * * ; ; ; ! ! ~ ! q . ; . . . . q q . . . 0 . . $ $ % x C @.=.>.>.4.>.,.5.5.#.g s 4 8 8 ",
"8 8 L r X % % & : ; ; ; ! ! ! q . . ; . q . q q q q q q   . c o % f B @.3.7.7.3.4.4.4.7.&.l s 6 8 8 ",
"8 8 L r y x v * ; ; ; ; ! ! ! c . . ! . q q q q q q q q . z z z x y S @.3.3.4.4.4.4.7.7.&.l s 6 8 8 ",
"8 8 L r y x % * : ; ! ! ! ! ! q . q . q q q 0 0 q q 0 q q z $ x y % R 3.3.3.7.4.4.4.5.5.:.l s 4 8 8 ",
"8 8 6 i o z * * : ; ; ~ ! ! q         .   0 0 0 0 q   0 0   z X o y N D 3.6.4.4.3.4.4.5.:.k h 4 8 8 ",
"8 8 L r o o % * ; ; ; ! c ! c .             0   0   0 0   0 z o o o N @.=.7.7.4.3.4.7.5.3.l 3 6 8 8 ",
"8 8 L h y z * * ; ; ; ; ! ! & & $               z     z z c c x x N B @.=.7.7.7.7.7.8.8. .l j 6 8 8 ",
"8 8 L i e % % * : : ; ; ~ ! c & & & $ & & & $ & c $ c c c $ % v N = S @.<.1.8.8.7.7.8.8.>.A s j 8 8 ",
"8 9 L r y x * * ; : ; ; ! ! ! & & & * v * & & & c & c & $ v v V V B C @.=.<.8.1.4.4.8.5.&.] s 6 8 8 ",
"8 8 L i y % c * ; ; ; ! ! ~ ! : v * ~ * * v : v * v v * v * v V V = V o.%.%.1.>.>.>.>.1.#.g s 3 8 8 ",
"8 8 L r y x * * : ; ; ; ~ ! ~ ~ ~ : ~ ~ ~ ~ ~ v v v ~ v ~ v * V = = B X.+.%.%.%.>.;.>.>.#.@ , 3 8 8 ",
"8 8 G r X % x * : ; ; ! ~ ! ~ ~ ~ v ~ ~ ~ ~ ~ ~ : ~ v ~ v v v * - = = C / o.$.$.%.%.>.>.o.@ , 3 8 8 ",
"8 8 i r o x v * : ; ; ~ : ~ ~ ~ ~ : V : ~ v * v v * v * * * * V - % = V ^ / o.o.$.<.1.1.@.o , 3 8 8 ",
"8 7 < X % v v ~ : : ; ; * ; * v * * v * v : v v * ~ c v * * * - - - - - v ^ ^ / o.<.<.<.( N r 6 8 8 ",
"8 7 < e y x V ~ : : * * * * * & c * v v ~ v v v v v v v ~ M ~ V V V V - V V / / / $.<.<.( V h L 8 8 ",
"8 8 < r y Z V x * % * * v v v v c v c v v v v v v v v v M v M v V V S M V V V S / ( $.$.( Z I Y 8 8 ",
"8 8 3 r a Z Z V v v N N N Z n v n m v M m c m v c m v m v v n M S N S N N N N N S / ( ( / S I Y 8 8 ",
"8 8 6 < r k Z k x N N N k n y n z z m z z z b z m z v m c m x v M n n x n n n n n n S Q Q Z I U 8 8 ",
"8 8 7 3 i h k k r r r r r k u y p z t z b b z t t b z p t b p y y n n n a n n t y t n M S I U 8 8 8 ",
"8 8 5 6 3 h h i r s i h h h r i i p p u u u p p p u p p p p u u i i i i i a a F e e i I I G U 9 8 8 ",
"8 5 9 5 7 P P h 3 h 3 6 7 6 6 L G i F i F i G i F G u G G i G F F G G i < G G < < < G L G 8 8 8 8 8 ",
"8 8 Y 8 8 8 8 8 8 8 8 8 8 8 8 8 8 8 Y 2.9 8 9 9 8 8 8 8 8 8 8 8 9 8 8 8 8 8 8 8 8 8 8 8 8 8 8 8 8 8 ",
"8 9 8 8 8 8 8 8 8 8 8 8 8 8 8 8 8 8 8 8 9 8 8 8 8 8 8 8 8 8 8 8 8 8 8 8 8 8 8 8 8 8 8 8 8 8 8 8 8 8 "
};
