/* XPM */
static char *result[] = {
/* columns rows colors chars-per-pixel */
"50 50 223 2 ",
"   c #185FAA",
".  c #025FBD",
"X  c #075FBB",
"o  c #115FBD",
"O  c #065CA9",
"+  c #0C63AC",
"@  c #1D62A5",
"#  c #1363AA",
"$  c #0763B4",
"%  c #0C64B6",
"&  c #0E69B4",
"*  c #0465BB",
"=  c #0B64BC",
"-  c #0C69BC",
";  c #0669BB",
":  c #1265B3",
">  c #0F70BF",
",  c #1B75BE",
"<  c #2971AC",
"1  c #286FB1",
"2  c #2372B5",
"3  c #2D77BB",
"4  c #2876BA",
"5  c #377BB7",
"6  c #3D7AB4",
"7  c #347BBA",
"8  c #3B7BBB",
"9  c #3576B6",
"0  c #2D72AB",
"q  c #467FB5",
"w  c #025FC2",
"e  c #065FC8",
"r  c #005ED2",
"t  c #0464C4",
"y  c #0A64C2",
"u  c #056BC0",
"i  c #0B6BC3",
"p  c #0265CA",
"a  c #0A65CC",
"s  c #0469CB",
"d  c #0A6CCC",
"f  c #1B6FC3",
"g  c #146EC9",
"h  c #1166C2",
"j  c #1474C3",
"k  c #1D71C6",
"l  c #1779C7",
"z  c #1879C7",
"x  c #1373CD",
"c  c #1C75C8",
"v  c #1D7BCC",
"b  c #0463D3",
"n  c #0B64D1",
"m  c #0369D1",
"M  c #0D6AD2",
"N  c #0969DA",
"B  c #136ED7",
"V  c #1375D4",
"C  c #1C73D5",
"Z  c #167AD8",
"A  c #1873DA",
"S  c #2179C2",
"D  c #2E7DCA",
"F  c #337BC3",
"G  c #337DCB",
"H  c #257CD6",
"J  c #247EE1",
"K  c #3C83B6",
"L  c #3581BD",
"P  c #4B83B4",
"I  c #4381B9",
"U  c #4786BA",
"Y  c #5183B3",
"T  c #5089B8",
"R  c #2D81C5",
"E  c #2D83CB",
"W  c #3483C4",
"Q  c #3D86C2",
"!  c #3284CD",
"~  c #298BDD",
"^  c #2684D7",
"/  c #358AD2",
"(  c #348FDD",
")  c #3987D6",
"_  c #3C92DE",
"`  c #3A95D4",
"'  c #3897CB",
"]  c #2386E4",
"[  c #2D8FEB",
"{  c #2888E6",
"}  c #368DE4",
"|  c #3A8DE6",
" . c #348EEA",
".. c #2D92ED",
"X. c #2B94E6",
"o. c #3592E3",
"O. c #3494EB",
"+. c #3A93EC",
"@. c #3999E8",
"#. c #2D92F2",
"$. c #3294F3",
"%. c #3A94F2",
"&. c #3C9DFC",
"*. c #3A9CF4",
"=. c #3FA2F4",
"-. c #3EA3FD",
";. c #438BC2",
":. c #498AC5",
">. c #4589C7",
",. c #4990CE",
"<. c #5593C5",
"1. c #438BD6",
"2. c #4399DC",
"3. c #4592D4",
"4. c #5B9EDC",
"5. c #569ED9",
"6. c #54A3DD",
"7. c #5BA2DC",
"8. c #5DA8D8",
"9. c #49A4D3",
"0. c #62A4CE",
"q. c #63A4D6",
"w. c #61A5DF",
"e. c #69AAD9",
"r. c #7BB3DD",
"t. c #77B3DB",
"y. c #4C9EEA",
"u. c #479BEB",
"i. c #549DE4",
"p. c #5C9DE1",
"a. c #529EEE",
"s. c #589EE9",
"d. c #5297E3",
"f. c #439DFD",
"g. c #479DF7",
"h. c #609EE4",
"j. c #4CA4E4",
"k. c #45A3ED",
"l. c #4CA4EA",
"z. c #40A2E5",
"x. c #54A3E3",
"c. c #5BA2E4",
"v. c #5EABE7",
"b. c #54A2EB",
"n. c #58A3EA",
"m. c #5AAEE8",
"M. c #44A3F4",
"N. c #4CA3F3",
"B. c #42A5FD",
"V. c #4BA4FC",
"C. c #45A8FD",
"Z. c #4BA8FF",
"A. c #45A8F7",
"S. c #53A2F3",
"D. c #51A3FB",
"F. c #50A8FF",
"G. c #5DB3E7",
"H. c #61A4E2",
"J. c #63ACE4",
"K. c #6BACE2",
"L. c #6DACE9",
"P. c #63ADEA",
"I. c #72ACEB",
"U. c #71ACE6",
"Y. c #67B4E4",
"T. c #6CB3E4",
"R. c #64B1E9",
"E. c #6CB1EA",
"W. c #73B2E4",
"Q. c #7ABBE5",
"!. c #76B8E5",
"~. c #6FC6F2",
"^. c #7ECFFA",
"/. c #80B4E6",
"(. c #8DC5EB",
"). c #98C7EA",
"_. c #91D1EF",
"`. c #84CCF9",
"'. c #8CCCF9",
"]. c #8BC6F6",
"[. c #91CCF2",
"{. c #99CFF4",
"}. c #88D5FC",
"|. c #93DAFD",
" X c #9BDDFC",
".X c #98D2F5",
"XX c #ABD7FE",
"oX c #A5DCFE",
"OX c #ABDDFE",
"+X c #A7D6FF",
"@X c #B3DDFE",
"#X c #BDDFFF",
"$X c #9AE2FF",
"%X c #A5E2FF",
"&X c #ACE3FF",
"*X c #ABEDFE",
"=X c #BCE0F6",
"-X c #B4E2FF",
";X c #BCE1FD",
":X c #BDEBFF",
">X c #B4E8FD",
",X c #BCF5FF",
"<X c #B6F4FE",
"1X c #C0DFF6",
"2X c #C0DEFE",
"3X c #C3E5F6",
"4X c #C2E4FD",
"5X c #C4ECFE",
"6X c #CBECFC",
"7X c #D3EEFE",
"8X c #DCEEFB",
"9X c #C4F3FE",
"0X c #CBF3FF",
"qX c #C4F9FF",
"wX c #DFF1F7",
"eX c #D4F2FE",
"rX c #DCF3FC",
"tX c #D5F8FF",
"yX c #DEFCFF",
"uX c #E1EDF7",
"iX c #E3EEFA",
"pX c #E1F1FB",
"aX c #E0F9FE",
/* pixels */
"i ; u u u u u u u u u u u u u u u u u u u u u u u u u u u u u u u u u u u u u u u u u u u u u u u u ",
"u u u u u u u u u u u u u u u u u u u u u u u u u u u u u u u u ; u u u u u u u u u u u u u u u u u ",
"u u u u ; ; u u u u u ; u u u u u u u u ; u ; ; u ; u u u ; u u E ) u t u u u ; u u u u ; u u u u u ",
"u u u u j 3 3 7 7 8 q 6 6 2 u u u u u , 7 7 7 7 L 7 7 7 7 5 6 5 6 6 9 8 8 8 7 3 9 7 F F F H H u u u ",
"u u L < L K K K P P T Y Y Y Y P P P P P P P P P P P P P P P Y Y Y Y Y Y P P q P q :.U I F o : u u u ",
"u ; K K !.*X<X<XqX9X9X,X5X9X0X6X6X6X6X5X6X5X6X6X6X6X6X6X6X6X6X7X6XeX6X6X4X4X3X5X6X6X3XXX/.@ @ i u u ",
"u u I 6 0.%X,XqXqX0X0XqXeX0XeXeXeXeX7XeXeXeXeXeXeXrX8XeX7X8X7X8XrXrXeX7X7X6XeXeXeX6X@X).e.@ @ y u u ",
"u u K 0 T _.*X,XqXqXqXtXeXeX7XeXrXwXwXwXwXwXwXwXeXwXwX8X8X8X8X8XpXpXpX7X7XeXeXtX5X@X)./.<.@   = u u ",
"; u Q < :.0.t.{.>X9X0XtXeXrXrXwXwXwXwXpXwXwXwXpXwXwXwXwXpXuXuXuXiXiXrXeXeX0X5X>X{.W.q.4.1.o h u u u ",
"u u 8 2 >.8.e.r.).>X9X0XeXtXyXwXwXwXwXaXwXwXwXaXwXwXpXpXpXpXuXuXiXpXrX6X5X5XOX(.r.e.H.4.1.e h u u u ",
"u u F 2 3.7.8.e.t.{.>X:X0XtXaXrXrXrXpXrXrXrXrXrXrXwXtXrXrXpXaXpXpXeXeX0X:X&X(.e.q.w.v.b.1.y y u u u ",
"u u W 4 2.i.5.w.e.t.(.OX9XtXtXtXyXrXtXrXrXyXrXpXrXyXrXrXeXrXrXrXtXeX6X:X&X[.Q.q.5.6.b.l.( y i u u u ",
"u u W R _ k.y.n.v.p.W.[.&X5X9XeXeX7XeXeXeXeXeXeXeXeXeXtXeX7X7X7X6X6X:X>X.X~.8.8.6.j.z.k.~ ; - u u u ",
"u u R , ( N.N.b.n.c.H.W.(.oX:X5X6X6X6X6X6X6X6X3X6X6X6X6X6X6X4X4X=X:X-X_.Q.8.8.m.x.l.l.@.~ ; u u u u ",
"u u E j o.V.V.S.S.a.c.w.W..X>X;X3X3X3X3X3X3X3X3X3X3X3X3X3X;X4X;X@XOX>XQ.e.8.6.j.m.k.=.@.~ ; u u u ; ",
"u u / v O.&.&.V.V.S.a.c.P.'.%X;X=X=X=X#X3X=X=X=X#X3X;X;X;X;X;X-X@XOXoXK.7.6.l.l.=.=.=.=.X.* u u u u ",
"u u ! v %.f.f.f.V.D.S.n.R.'.%X;X;X;X;X;X;X;X=X#X;X;X;X;X;X;X:X-X@X&XoXE.v.n.b.A.N.=.=.-.X.; u u u u ",
"u u D k %.g.f.D.D.D.b.c.E.'.oX-X;X;X;X4X#X4X;X4X4X;X;X#X;X4X;X;X@XOXOXI.v.n.S.N.N.=.-.C...* u u u u ",
"u u G f u.f.g.D.D.S.n.x.Y.'.%X;X;X#X2X#X#X#X#X#X#X2X;X4X;X#X;X-X@X@X+XI.p.d.S.S.N.=.=.A.O.* * i u u ",
"u u G h u.D.D.D.S.S.i.5.Y.'.%X;X#X2X#X2X#X2X2X#X2X2X2X2X#X#X#X#X@XXX+XI.p.d.a.D.Z.A.=.=.[ t t x u u ",
"u u G k u.g.D.S.S.b.s.7.e.'.&X#X#X#X#X#X#X#X2X4X2X2X2X2X#X#X#X#X@X@X+XI.h.d.a.D.D.N.M.f.[ t t C u u ",
"u u G c | g.D.D.S.b.c.7.K.'.%X;X#X#X#X#X#X#X2X#X2X2X2X2X2X4X#X#X#X@XXXI.h.s.a.S.F.V.C.B.[ t s u u u ",
"u u G c } V.D.D.S.b.c.p.K.'.oX-X;X#X;X#X#X#X#X#X2X2X2X2X2X4X;X;X@X-X@XU.h.s.a.N.N.Z.C.B.[ p s u u u ",
"u u G x } V.V.V.S.a.n.c.L.'.oX-X-X;X-X;X;X;X#X#X2X2X2X2X2X#X;X#X#X-XOXU.h.n.l.a.N.Z.C.-.#.p b u u u ",
"u u D j } V.V.g.D.a.n.p.I.'.OX-X-X-X-X=X;X=X#X1X2X2X1X2X2X#X#X@X@X-XOXU.4.c.y.N.V.C.C.-.#.m m u u u ",
"u u G f | V.D.D.S.a.s.p.L.].oX@X=X=X=X=X=X=X#X=X#X1X1X1X1X#X;X;X-X>XoXT.7.x.b.l.N.V.C.B.#.p u u u ; ",
"u u G f | D.D.D.D.a.s.p.L.].oX-X=X=X=X@X=X=X#X#X1X1X1X1X3X=X;X-X-X&X%XT.7.x.x.l.M.V.C.B.#.t p u u u ",
"u u G f | g.D.D.S.a.n.c.L.'.OX-X=X=X=X=X=X=X#X3X#X1X1X#X#X@X-X>X&X>XOXe.7.6.b.l.N.N.C.B...p t u u u ",
"u u G k | D.D.D.D.S.n.c.P.'.oX-X-X=X;X=X=X;X=X=X=X=X=X;X@X-X-X-X>X&XoXK.7.c.b.l.N.V.V.M. .t y ; u u ",
"u i G k | g.D.D.S.S.b.6.P.`.oX;X=X;X#X4X#X;X;X#X;X#X;X;X=X;X@X-X-X>X%XK.7.c.b.S.N.N.V.g. .a w i u u ",
"u u G k | D.D.D.D.S.l.6.P.`.%X-X;X;X#X;X;X#X;X;X#X-X@X;X;X@X@X-X-X&XoXK.5.i.n.b.S.V.V.M.| y u u u u ",
"u u G k | V.D.D.D.l.l.6.R.`.%X-X;X@X;X;X#X-X-X;X@X-X-X-X-X&XOX%X%X%X XH.5.i.y.y.u.M.Z.Z.%.t y u u u ",
"u u G k | Z.Z.V.N.N.l.j.G.^.$X&X-X-X-X-X-X-X&X-X&X&X&X*X&X&X%X%X%X$X|.P.x.j.y.u.M.M.C.Z.$.e e - u u ",
"u u G k +.C.Z.A.A.A.z.j.G.~.}. XoXXXoXoXoX XoX X X X X X$X$X$X X|.|.}.m.b.l.N.M.M.V.C.-.$.t t ; u u ",
"u u ! v @.B.B.V.A.k.z.` ' 9.8.T.W.W.W.W.K.W.T.T.Y.Y.Y.Y.Y.T.T.P.J.P.v.2.@.l.M.M.-.-.-.-.#.t a u u u ",
"u ; ! c o.V.Z.Z.M.@.^ l & + + # # # # # # # # # # # # + + & # + O $ & - j ~ *.-.B.-.C.-.#.t t u u u ",
"u u W S _ Z.V.V.%.H g g i = $ = $ % % $ % % % $ + $ % ; = = y X X $ i t i V ] $.&.-.-.-.#.t a ; u u ",
"u u W 4 _ S.g.%.{ C a a d t w y t y y y y t y t t * * t t t a a r p n p p a V ] $.&.-.-.$.i t u u u ",
"u u W , _ u.+.J A n a n n b r t t t t p t t t t t t t t a p m m m b a p t w p Z ] $.-.B.*.d s ; u u ",
"u u W , o. .J A B r r r b b b t p t p t p t p p t p p p t t b p p m p p t w w s Z { #.-.X.d d u u u ",
"u ; R j O.J B B B r r r r b b p p p p p p u u p t p p p p s s s s s s p t w t u M Z ] ..{ u s ; u u ",
"u ; E ; i M m b r r r N N b s p p s p t p p p p p p t p p p p u t u p t t * t a s u s x x ; ; u u u ",
"u u E $ * t a t r e n n d a t t t t t t t t s t t t t t t t i t t t u t * t i i t t * i - & $ u u u ",
"u u R $ & i y y h e y h h y y a y t t t t t t y t t y y t t y i i i * i y i t * u i y $ $ & & u u u ",
"u u E & & ; $ % % - : = % : = = y y = y y o y y y y y = ; ; ; = i i % - i i = . $ i i * + , - ; u u ",
"u u W 2 F Q K >.;.:.:.U W - u u ; i F :.:.:.:.:.:.:.:.:.,.K ;.;.;.U ;.;.;.;.;.;.>.,.,.;.L U u u u u ",
"u u 3 7 j u u u l j u u u u u u u u u u u u u u u u u u ^ > u u u u u u l ` l u u x / 2.i > u u u u ",
"u u u ; u u u u u ; u u u u u u u u u u u u u u u u u u u u u u u u u u u u u u u ; u > u u u u u u ",
"u u u u u u u u u u u u ; u u u u u u u u u u u u u u u u u u u u u u u u u u u u u u ; u u u u u u ",
"u u u u u u u u u u u u u u u u u u u u u u u u u u u u u u u u u u u u u u u u u u u u u u u u u u "
};
