/* XPM */
static char *result[] = {
/* columns rows colors chars-per-pixel */
"50 50 148 2 ",
"   c #E46A5B",
".  c #DF6A67",
"X  c #DE6C69",
"o  c #D57664",
"O  c #DA7967",
"+  c #D86F76",
"@  c #D57174",
"#  c #DB7475",
"$  c #DD7B74",
"%  c #D5737F",
"&  c #DA737B",
"*  c #DD7B7A",
"=  c #E76D66",
"-  c #E1676A",
";  c #EB6E6D",
":  c #F76F6E",
">  c #EF7565",
",  c #EC736D",
"<  c #E6786E",
"1  c #F57366",
"2  c #F2726C",
"3  c #F9706F",
"4  c #EB6E72",
"5  c #F46F73",
"6  c #FB6C74",
"7  c #F66C7C",
"8  c #F86D7B",
"9  c #E47472",
"0  c #EC7373",
"q  c #EE7A76",
"w  c #EE717B",
"e  c #E37C7E",
"r  c #F47273",
"t  c #F87172",
"y  c #F67874",
"u  c #F0707B",
"i  c #FA757A",
"p  c #F37C7A",
"a  c #F97B79",
"s  c #DF817A",
"d  c #FD8277",
"f  c #F4827D",
"g  c #B57EAB",
"h  c #B87CAC",
"j  c #C57189",
"k  c #D27581",
"l  c #D77D81",
"z  c #DF7B84",
"x  c #DE768C",
"c  c #D7798A",
"v  c #DB7888",
"b  c #D47E90",
"n  c #E37685",
"m  c #E17B84",
"M  c #E2758B",
"N  c #EA748C",
"B  c #E2798B",
"V  c #EC7F8B",
"C  c #A4829B",
"Z  c #B78190",
"A  c #BD8597",
"S  c #B5809B",
"D  c #BA859D",
"F  c #B8889B",
"G  c #9D90BA",
"H  c #BB84A3",
"J  c #B08CA7",
"K  c #B281AB",
"L  c #B984AC",
"P  c #AC87B2",
"I  c #A38BB9",
"U  c #B384B0",
"Y  c #B68AB2",
"T  c #B98BB2",
"R  c #B188BA",
"E  c #A394B3",
"W  c #C38797",
"Q  c #CB889C",
"!  c #D68493",
"~  c #DC8C97",
"^  c #E48286",
"/  c #E8848F",
"(  c #FB8883",
")  c #FF8E8A",
"_  c #FD938E",
"`  c #FF9795",
"'  c #FD9B96",
"]  c #FC919C",
"[  c #F79898",
"{  c #FF9A9C",
"}  c #F6A79E",
"|  c #FAA49E",
" . c #F9AA9E",
".. c #C086A7",
"X. c #C38DA1",
"o. c #C98CAE",
"O. c #ED9DA5",
"+. c #DEAFBE",
"@. c #EBAAA1",
"#. c #EFACAD",
"$. c #F7A6A4",
"%. c #FEA5A5",
"&. c #F2ACA3",
"*. c #FCAAA5",
"=. c #F3A3A9",
"-. c #FCA6AB",
";. c #F4ABAD",
":. c #FBAAAC",
">. c #EFB1AB",
",. c #F1B1A4",
"<. c #F4B1AC",
"1. c #EFA3B1",
"2. c #EDADB3",
"3. c #EEA1BE",
"4. c #E4ADBE",
"5. c #EBADB8",
"6. c #F3A6B6",
"7. c #FBA6B0",
"8. c #F4ACB3",
"9. c #FAABB3",
"0. c #F1ACBB",
"q. c #F8ACBE",
"w. c #E2B1BF",
"e. c #EBB5BB",
"r. c #FDB1B6",
"t. c #F3B2BA",
"y. c #FFB5BA",
"u. c #FFBDBD",
"i. c #FFC2BD",
"p. c #9F93C2",
"a. c #A592CE",
"s. c #DDB3C2",
"d. c #E6A5C1",
"f. c #F9AFCD",
"g. c #E2B1C9",
"h. c #FFBEC2",
"j. c #F5C6C7",
"k. c #FFC5C5",
"l. c #F7CBC6",
"z. c #FECBC5",
"x. c #FEC6CC",
"c. c #F7CBCA",
"v. c #FECDCD",
"b. c #FFD0CC",
"n. c #FAC7D0",
"m. c #FDCCD1",
"M. c #FFCAD9",
"N. c #FED1D0",
/* pixels */
"p.p.I I I P P Y Y T T K K K g K g g h h h h h h h h g g g g g g U U K K g K g H L K K Y U R R R a.a.",
"p.p.I I I P P Y Y T T K C g K L g g U h h h h h h h h g g g U U U U K K K g g L L K L U U R R R a.a.",
"F D Q Q Q ! ! k k k l v z v B B N N N N N N N N N N N N M M x x v v % % # & & n z / / c c j j j o.o.",
"F F Q Q Q ! ! k k % k v v m B B B N N N N N N N N N N n N M B m v v % % @ & & z z / / c c j j j o.o.",
"F F Q W Q ! ! k % % k z m v B B B N N N N N N N N N N B B M B B v v % % & & & e n / / c c j j j o.o.",
"8.t.l ^ l # 9 p f = = , 2 2 t 5 8 i t 6 t 6 6 6 6 5 6 6 6 5 5 5 0 7 y i y y y 2 2 , 4 9 4 & & & 8.f.",
"r.t.% * ^ 9 # p p = = 2 r 2 6 6 t 6 6 6 6 6 6 6 6 6 6 5 5 8 5 5 y 0 y r t y y 2 2 r , 9 9 & & & q.q.",
"y.r.%.$.$.0 0 1 1 1 1 1 1 1 1 1 5 3 3 3 t t 3 3 : : t t t t t r i i r y a a a = = , , ( f [ [ [ 2.2.",
"r.r.%.%.%.0 0 2 1 1 1 1 1 1 1 1 : : : : 3 3 3 t 3 : : 5 t r t i i i i i i p a = = , , f f [ [ [ 5.2.",
"r.r.%.%.%.) ) d d > >       ; ; , ; 0 0 , 0 , , , 0 0 0 0 r w 0 4 w . - 0 0 < q q ( ( _ _ | %.| e.e.",
"r.9.%.%.%.) ) d d 1 >       , > ; , , , , 0 0 , , 0 , 0 0 0 0 w w 0 - - 0 < 0 q q ( ( _ _ %.| | e.e.",
"5.5.9.9.9.:.:.%.*.*.*.*.*.*.u.y.u.u.u.k.u.u.u.h.h.u.h.h.h.h.h.h.y.y.y.y.u.y.u.*.*.%.%.%.%.=.=.=.+.s.",
"5.5.9.9.9.:.-.-.*.*.*.*.*.*.u.u.h.u.h.u.u.h.u.u.h.u.u.h.h.h.h.h.y.y.y.r.u.y.u.*.*.%.%.%.%.=.=.=.+.+.",
"5.5.9.9.9.:.-.-.%.*.*.*.*.*.u.u.u.u.u.h.u.h.h.u.u.u.h.h.h.h.h.h.q.h.r.y.y.u.y.*.*.%.%.%.%.=.=.=.+.+.",
"5.5.6.6.q.:.-.:.-.*.;.z.b.z.v.x.v.v.v.v.m.v.v.x.v.v.n.m.m.n.n.n.h.n.v.x.z.z.x.:.9.9.7.-.=.1.1.1.g.g.",
"5.5.8.q.9.:.=.-.-.:.*.z.z.z.v.x.x.x.v.x.x.v.v.v.v.m.v.m.n.m.n.m.x.x.x.x.x.x.x.8.:.7.9.=.=.1.1.6.g.g.",
"5.5.8.6.6.:.;.=.;.<.8.z.z.v.v.v.m.v.m.v.m.v.m.m.v.m.m.m.m.m.m.M.n.x.m.m.v.x.v.8.8.9.:.7.7.6.6.6.g.g.",
"5.5.8.8.6.;.:.;.;.;.<.v.v.v.v.v.m.m.v.m.v.m.m.v.v.N.m.m.N.m.m.m.x.c.m.n.v.v.b.#.>.9.9.7.7.6.6.6.g.g.",
"8.8.7.8.;.;.$.;.;.#.>.v.v.b.v.v.v.v.m.v.m.b.b.m.m.v.m.b.b.m.m.m.c.c.b.l.z.z.z.,.<.$.$.-.-.7.9.7.g.e.",
"8.2.;.8.;.-.;.;.;.>.>.b.v.v.v.v.v.v.m.b.b.m.v.b.v.m.v.m.m.v.m.m.l.b.l.b.z.z.z.<.;.%.$.-.:.:.9.9.4.w.",
";.#.;.:.:.=.:.$.$.#.<.v.m.v.v.v.v.v.m.b.v.b.b.m.v.b.b.v.v.v.b.v.l.l.z.l.z.z.z.>.,.&.$.-.*.9.:.9.4.4.",
"2.8.8.;.;.$.:.;.;.>.#.b.b.b.z.b.v.v.v.b.v.v.v.v.v.v.m.v.v.v.N.v.l.l.z.b.z.b.z.>.>.$.*.*.*.:.:.9.4.4.",
"8.8.:.;.;.-.$.;.;.<.#.b.b.z.v.v.v.z.N.v.N.v.b.b.b.v.v.v.v.v.v.v.l.l.b.z.z.b.z.>.,.$.$.*.:.9.9.9.4.4.",
"2.1.=.=.=.-.-.-.$.@.#.x.k.k.x.v.v.v.v.b.v.v.v.v.v.b.b.v.v.v.v.v.l.l.z.b.z.b.v.#.2.$.$.-.:.<.:.<.+.+.",
"#.2.=.=.=.%.-.$.*.@.#.k.k.k.z.v.v.v.b.b.c.b.m.c.v.b.b.v.v.v.v.v.z.j.z.x.v.v.x.8.8.=.$.-.:.8.;.;.+.+.",
"8.8.r.r.9.r.:.:.r.r.<.b.N.b.v.v.v.v.b.b.b.m.c.N.m.v.b.v.v.v.v.v.c.j.m.m.M.m.m.0.t.;.:.-.;.;.;.8.4.+.",
"0.t.r.r.r.*.r.r.:.<.<.b.v.b.z.v.v.v.N.c.N.b.m.N.b.v.v.v.v.v.m.v.x.x.n.v.n.M.n.0.2.:.:.:.*.;.;.#.+.w.",
"8.;.*.$.-. . . .} @.,.i.z.k.v.m.m.m.m.m.m.m.N.c.m.N.m.m.m.m.m.m.n.x.M.n.M.M.M.0.5.7.7.:.-.;.7.:.4.4.",
";.2.*.*.*.%. .}  .@.@.z.i.z.v.v.m.m.v.m.c.m.m.N.m.m.m.m.N.m.m.m.n.n.n.M.M.M.M.d.0.7.7.-.-.:.7.7.5.w.",
";.;.*.*.*.*.| }  .,.@.i.z.z.v.v.m.N.m.N.N.N.m.m.m.b.m.m.m.m.m.m.n.n.M.M.M.M.M.0.0.9.7.-.-.7.;.;.w.w.",
";.;.*.*.*.*.*.*. .,.,.i.z.z.b.v.m.m.m.c.m.m.N.N.m.c.m.N.m.N.m.N.n.n.M.M.M.M.M.0.q.7.7.:.-.:.;.;.w.w.",
"#.;.*.,.*.*.*. .,.,.,.z.z.z.b.b.m.m.m.N.m.c.N.m.m.N.m.N.m.m.m.m.n.n.M.M.M.M.M.0.0.7.7.-.-.;.7.:.e.4.",
">.<.$.:.*.*.|  . .,.,.z.z.z.z.z.c.c.c.c.v.c.c.N.N.N.N.N.N.N.N.N.j.j.m.m.M.N.M.e.t.<.:.;.:.#.;.#.w.w.",
";.#.*.$.*.|  . . .&.&.z.z.z.z.l.c.v.c.c.c.c.c.N.N.N.N.N.N.N.N.N.j.j.m.m.M.m.N.f.t.9.:.:.:.;.;.;.w.w.",
"#.2.$.;.*.| | | | &.&.i.i.i.z.z.z.v.v.z.b.b.v.b.b.b.N.b.b.b.b.b.z.z.z.k.k.x.x.#.<.:.:.:.:.2.2.>.s.s.",
"#.>.$.*.$.| | | | &.$.i.i.k.z.z.v.z.v.z.z.z.z.b.b.b.b.b.b.b.b.z.i.z.k.z.x.x.z.>.2.:.:.<.:.#.2.2.w.g.",
"5.5.=.:.:.%.%.{ { ^ ^ z z z * * * * * * * * e & * * * * * * $ $ O O o o s s s s s ' ' %.*.9.9.8.g.g.",
"2.5.-.:.-.%.%.{ { ^ ^ * * z * e * e e $ * * * # * * * * * * $ $ O O o o s s s s s ' ' -.*.9.r.9.g.g.",
"2.2.;.:.=.%.%.{ { ^ ^ z z * * * * * * * * $ + & * * * * * * $ $ O O o o s s s s s { ' *.-.9.8.8.g.g.",
"t.t.*.-.-.-.-.- X p p 9 ; 0 r r r i r r r r 5 5 0 r 5 5 : 5 ; 2 > , < > < < < < < f p ` ` -.-.7.d.d.",
"t.q.-.-.-.*.*.. . p p ; 9 ; 0 r 7 7 5 6 4 5 6 4 5 5 5 7 5 5 ; : , > < , < < < < < p p ` ` -.-.7.d.d.",
"8.9.%.%.%.X X y y , : t : 5 6 6 6 6 6 6 6 6 6 6 6 6 6 6 6 6 : 6 2 2 , , , 0 0 0 0 2 , y p ] ] ] f.f.",
"8.8.%.-.%.. . y y ; 2 2 t 2 6 6 6 6 6 6 6 6 6 6 8 6 6 6 6 6 6 6 2 2 , 2 0 0 0 , 0 , 2 p i ] ] ] f.f.",
"O.O.@ @ @ q q y y 2 2 t t r 8 8 7 7 7 7 7 7 7 N 7 7 8 8 8 8 7 7 7 8 w w w w w w r 5 5 4 4 V V V 3.3.",
"O.O.+ @ @ q q y y 2 2 t r t 8 5 7 7 7 7 7 7 7 7 7 7 7 8 8 8 7 7 7 7 w w w w w w w : r 0 4 V V V d.3.",
"W W ~ ~ ~ l % # # e e + @ + n M M M M M M M x M M M M M M M M M x x M x x x x x x e n B m b b b ....",
"W W ~ ~ ~ l % # # e e + + + M n M M M M M x x M M M M M M M M M M x x x x x x x v n n B m b b b H H ",
"W W ~ ~ ~ * * # # e e + + + M n M M M M M M M M M M M M M M M M M M M x x x x x x e n m m b b b H H ",
"E E C C C F F Z Z A A X.X.X.H D ..D H H g H H H H g A H D H H H L ....L H g D g j F F X.X.J J J G G ",
"E E C C C F F Z Z A A X.X.X.H W H ..H D D D g H H W H H W h ..H ....H ..H H D Z g A Z H X.J J J G G "
};
