/* XPM */
static char *result[] = {
/* columns rows colors chars-per-pixel */
"50 25 60 1 ",
"  c black",
". c #010101",
"X c #020202",
"o c gray1",
"O c gray5",
"+ c #0E0E0E",
"@ c gray6",
"# c #191919",
"$ c gray10",
"% c #1B1B1B",
"& c gray11",
"* c gray14",
"= c #252525",
"- c #272727",
"; c gray16",
": c gray17",
"> c #2C2C2C",
", c #2F2F2F",
"< c gray19",
"1 c #313131",
"2 c #323232",
"3 c gray26",
"4 c #4E4E4E",
"5 c gray31",
"6 c #505050",
"7 c #515151",
"8 c #585858",
"9 c gray35",
"0 c #5A5A5A",
"q c gray36",
"w c gray37",
"e c DimGray",
"r c #6F6F6F",
"t c gray44",
"y c #717171",
"u c #727272",
"i c #747474",
"p c gray46",
"a c #7C7C7C",
"s c gray49",
"d c #7E7E7E",
"f c gray50",
"g c #808080",
"h c gray54",
"j c #929292",
"k c #939393",
"l c gray58",
"z c gray62",
"x c #A0A0A0",
"c c gray63",
"v c #AAAAAA",
"b c #ACACAC",
"n c gray68",
"m c #B4B4B4",
"M c #B7B7B7",
"N c gray72",
"B c #C0C0C0",
"V c #C1C1C1",
"C c gray76",
"Z c #C3C3C3",
/* pixels */
"ZZZZZZZZZZZZZZZZZZZZZZZZZZZZZZZZZZZZZZZZZZZZZZZZZZ",
"ZZZZZZZZZZZZZZZZZZZZZZZZZZZZZZZZZZZZZZZZZZZZZZZZZZ",
"ZZZZZZZZZZZZZZZZZZZZZZZZZZZZZZZZZZZZZZZZZZZZZZZZZZ",
"ZZZZZZZZZZZZZZZZZZZZZZZZZZZZZZZZZZZZZZZZZZZZZZZZZZ",
"VBBBVCZZZZZCVBBBVCZZZZZZVBBBBVCZZZZCBBVCZZZZZVBBVC",
"5   #sZZZZZx;   =cZZZZVv4   O3sVZZZl. #dZZZZNt  =c",
"5    <CZZZZj    =cZZZMr       O8VZZc; O8ZZZZn5 .1Z",
"5  . =xZZZn5 .  =cZZMr  .XooX. O8CZn6  <ZZZZx; $gZ",
"5 O; #sZZZx;O;  =cZZj  .-cZZc:. #sZZl. ,CZZZk  =cZ",
"5 +;  <CZZj +;  =cZn5  =cZZZZc;  <CZc; #dZZNt .1ZZ",
"5 $6X =xZn5 $6  =cZx; .1ZZZZZn6  =xZn6 O8ZZb4 $gZZ",
"5 $e6 #sZx; 1k  =cZk  $fZZZZZZk  $fZZl. ,CZk  =cZZ",
"5 $iy  <Cj +9k  =cZk  $fZZZZZZk  $gZZc; #dNt .1ZZZ",
"5 $flX =h5 $gk  =cZl. #dZZZZZNt  =cZZn6 O8b4 $gZZZ",
"5 $fn6 #q; 1Zk  =cZc; O8CZZZZNt  =cZZZl. ,j  =cZZZ",
"5 $fNy O; +0Zk  =cZn6  *zCZZCz; .1ZZZZc; #5 .1ZZZZ",
"5 $fZlX   1ZZk  =cZZlX  #sBma;  %gZZZZn6 O; $gZZZZ",
"5 $fZn6  +9ZZk  =cZZNyX        @0ZZZZZZl.   =cZZZZ",
"5 $fZNy  $gZZk  =cZZZNuoX.  .X@0ZZZZZZZc;  .1ZZZZZ",
"7o&gZZloo2ZZZloo-cZZZZZnw>oo&pcZZZZZZZZn7oo&gZZZZZ",
"ZZZZZZZZZZZZZZZZZZZZZZZZZZZZZZZZZZZZZZZZZZZZZZZZZZ",
"ZZZZZZZZZZZZZZZZZZZZZZZZZZZZZZZZZZZZZZZZZZZZZZZZZZ",
"ZZZZZZZZZZZZZZZZZZZZZZZZZZZZZZZZZZZZZZZZZZZZZZZZZZ",
"ZZZZZZZZZZZZZZZZZZZZZZZZZZZZZZZZZZZZZZZZZZZZZZZZZZ",
"ZZZZZZZZZZZZZZZZZZZZZZZZZZZZZZZZZZZZZZZZZZZZZZZZZZ"
};
