/* XPM */
static char *result[] = {
/* columns rows colors chars-per-pixel */
"50 50 247 2 ",
"   c #0C0700",
".  c #180A01",
"X  c #290A02",
"o  c #370300",
"O  c #2A1601",
"+  c #3A1503",
"@  c #311E00",
"#  c #2A1B1B",
"$  c #2C2300",
"%  c #372403",
"&  c #3E2400",
"*  c #3F2B17",
"=  c #291F20",
"-  c #2B2423",
";  c #2B2B2B",
":  c #37322D",
">  c #4E0101",
",  c #480C00",
"<  c #441C02",
"1  c #5A1000",
"2  c #680000",
"3  c #780300",
"4  c #6E1400",
"5  c #671904",
"6  c #6B1A1A",
"7  c #771818",
"8  c #562703",
"9  c #4B3007",
"0  c #4E3E00",
"q  c #4C3308",
"w  c #402A12",
"e  c #6D2C00",
"r  c #752700",
"t  c #653703",
"y  c #51342D",
"u  c #70312D",
"i  c #6E4F0F",
"p  c #7C4A01",
"a  c #725800",
"s  c #7E620D",
"d  c #544B33",
"f  c #6B5525",
"g  c #705335",
"h  c #776736",
"j  c #5D3E40",
"k  c #494847",
"l  c #534945",
"z  c #58574D",
"x  c #784848",
"c  c #69544F",
"v  c #74694B",
"b  c #696767",
"n  c #786363",
"m  c #756A67",
"M  c #6D736E",
"N  c #757575",
"B  c #7B7978",
"V  c #860703",
"C  c #8D0101",
"Z  c #970905",
"A  c #8E160B",
"S  c #A40101",
"D  c #AB0101",
"F  c #B30101",
"G  c #BC0400",
"H  c #BD0A0A",
"J  c #B0180F",
"K  c #8B2D05",
"L  c #9B2700",
"P  c #893300",
"I  c #993A00",
"U  c #A53300",
"Y  c #B63300",
"T  c #842625",
"R  c #942F28",
"E  c #8A3938",
"W  c #933737",
"Q  c #B23032",
"!  c #C40101",
"~  c #CB0100",
"^  c #C00909",
"/  c #D50402",
"(  c #DC0100",
")  c #D01414",
"_  c #E30000",
"`  c #ED0000",
"'  c #E60A06",
"]  c #F30000",
"[  c #FD0100",
"{  c #FB0B02",
"}  c #EA1E07",
"|  c #FD1700",
" . c #D32F00",
".. c #E82C00",
"X. c #FE2400",
"o. c #FA3700",
"O. c #F6221F",
"+. c #EC2C2D",
"@. c #8B5106",
"#. c #A34600",
"$. c #A74D00",
"%. c #AE4F00",
"&. c #916809",
"*. c #A37402",
"=. c #996235",
"-. c #907430",
";. c #D34A00",
":. c #D35400",
">. c #EB4805",
",. c #FA4A00",
"<. c #B23F41",
"1. c #8B4F48",
"2. c #845353",
"3. c #BA4241",
"4. c #916E49",
"5. c #866B53",
"6. c #A37752",
"7. c #826767",
"8. c #827B7A",
"9. c #957571",
"0. c #D14C4B",
"q. c #E04344",
"w. c #7F8073",
"e. c #BB8700",
"r. c #BB940D",
"t. c #988337",
"y. c #A38A34",
"u. c #AF8C33",
"i. c #B79A35",
"p. c #C48507",
"a. c #C59C01",
"s. c #F89D0D",
"d. c #D4A606",
"f. c #E8B401",
"g. c #FCB906",
"h. c #F5B30D",
"j. c #E89A38",
"k. c #CFAA35",
"l. c #D9B639",
"z. c #F0B72E",
"x. c #F7C304",
"c. c #FDC502",
"v. c #FECA00",
"b. c #FDC713",
"n. c #FCC822",
"m. c #ECC539",
"M. c #F6CD3A",
"N. c #FDD33B",
"B. c #948955",
"V. c #AB9454",
"C. c #AEA659",
"Z. c #8D8974",
"A. c #A68967",
"S. c #AD8D74",
"D. c #B7B56D",
"F. c #D19459",
"G. c #CCAB4F",
"H. c #EDB651",
"J. c #D6AE75",
"K. c #D7A679",
"L. c #E5AF6E",
"P. c #E9B268",
"I. c #E3AF73",
"U. c #E2B277",
"Y. c #CFC15D",
"T. c #E7C948",
"R. c #FBD746",
"E. c #EBC857",
"W. c #FCE35D",
"Q. c #CEC96E",
"!. c #E9CC68",
"~. c #F7E669",
"^. c #23628D",
"/. c #3479AA",
"(. c #477693",
"). c #3485BE",
"_. c #6287A2",
"`. c #7894AB",
"'. c #2892D4",
"]. c #3795D2",
"[. c #399EDE",
"{. c #249FE8",
"}. c #369FE1",
"|. c #23A2ED",
" X c #2AA2EC",
".X c #3BA3E6",
"XX c #33A2EA",
"oX c #3BA5EA",
"OX c #549CCF",
"+X c #4FA3DC",
"@X c #57A4DB",
"#X c #72A7D1",
"$X c #48A7E9",
"%X c #57A9E6",
"&X c #76B8EB",
"*X c #65B4F0",
"=X c #7DBCF1",
"-X c #838382",
";X c #8D8B84",
":X c #8A8A8A",
">X c #938D8E",
",X c #989898",
"<X c #AA9290",
"1X c #B2A695",
"2X c #9DABBA",
"3X c #A6A4A4",
"4X c #AAACAA",
"5X c #B8A8A7",
"6X c #B9A9A8",
"7X c #ADADB5",
"8X c #AAB5BC",
"9X c #B7B7B7",
"0X c #C29A89",
"qX c #DAB286",
"wX c #D7B489",
"eX c #CBAA97",
"rX c #D1AC91",
"tX c #D0B191",
"yX c #C4AEA3",
"uX c #C5B5A5",
"iX c #D8C596",
"pX c #E8C889",
"aX c #ECEC87",
"sX c #F6F68B",
"dX c #D6CBAF",
"fX c #CDC7B7",
"gX c #D0C8B4",
"hX c #8BABCB",
"jX c #99B6C9",
"kX c #8AB3D8",
"lX c #95BAD8",
"zX c #A5B9C7",
"xX c #86BAE7",
"cX c #BCCCD2",
"vX c #95C7EC",
"bX c #B2D0E6",
"nX c #C7C5C5",
"mX c #CAC9C9",
"MX c #CDD7D5",
"NX c #D3D3D3",
"BX c #DCDBDB",
"VX c #E2DDDD",
"CX c #C3E1F7",
"ZX c #E3E3E3",
"AX c #ECECEC",
"SX c #F0F0F0",
"DX c #FEFEFE",
/* pixels */
"|.|.|.|.|.|.|.|.|.|.|.|.|.|.|.|.|.|.|.|.|.|.|.|.|.|.|.|.|.|.|.|.|.|.|.|.|.|.|.|.|.|.|.|.|.|.|.|.|.|.",
"|.|.|.|.|.|.|.|.|.|.|.|.|.|.|.|.|.|.|.|.|.|. X$X$X@X@XXX|.|.|.|.|.|.|.|.|.|.|.|.|.|.|.|.|.|.|.|.|.|.",
"|.|.|.|.|.|.|.|.|.|.|.|.|.|.|.|.|.|.|.|.|.|.}.kXkX7X7X+X|.|.|.|.|.|.|. X|.|.|.|.|.|.|.|.|.|.|.|.|.|.",
"|.|.|.|.|.|.|.|.|. XXX}.$X+X}.oX|.|.|.|.XXoX%XjX2XyX6X@XoX X|.XXoX+X+X+X+X+XoXoX|.|.|.|.|.|.|.|.|.|.",
"|.|.|.|.|.|.|.|.|.oXxXxX5X5XjXkX$X|. X|.$XxXzXs.s.U.U.8XhX%X|.%XkX8XeXrXrXeXkXkXXX|.|.|.|.|.|.|.|.|.",
"|.|.|.|.|.|.|.|. X$XxXxX5XyXjXkX%X}.}..X%XxXzXs.s.U.U.7XjX%XoX#XjX8XrXrXrXrXkXkXoX X|.|.|.|.|.|.|.|.",
"|.|.|.|.|.|.|.$XxXlXuXtXs.z.P.L.U.U.U.qXqXpXU.g.g.b.b.P.L.I.qXI.P.H.b.b.b.b.wXrXjXkX$X|.|.|.|.|.|.|.",
"|.|.|.|.|. X X$XlXvXtXtXh.g.H.L.I.I.I.I.qXqXU.g.g.c.g.P.P.I.I.L.P.H.x.c.v.b.qXwXjXkX%X X|. X|.|.|.|.",
"|.|.|.|.{.#X5X5XrXqXz.z.d.a.s f f f f f -.z.z.v.c.v.v.d.i.h f i f f a &.v.x.z.n.qXtXcXbXbXvX=X|.|.|.",
"|.|.|.|.{.#X0XeXI.P.c.g.a.a.a 0 0 0 0 0 a f.f.v.v.v.v.a.e.a 0 0 0 0 0 a x.x.c.x.L.qXfXMXbXbX=X|.|.|.",
"|.|.|.|. XhXeXK.j.z.f.d.@.@.%.$.$.$.$.$.@.p a a a a a @.@.$.$.$.$.$.$.$.s s x.v.m.z.pXdXMXCXvX|.|.|.",
"|.|.|.|.{.hXrXI.s.s.d.d.t e %.:.:.:.:.:.#.9 % $ $ $ $ t p %.:.:.:.:.:.%.0 0 x.v.g.g.!.aXMXCXvX|.|.|.",
"|.|.|.|.|.#X9XeXj.j.a.a.< < L Y  ....... .#.I P r < < U U  ....... .P r % % f.x.h.h.E.pXdXCXvX|.|.|.",
"|.|.|.{.|.*XvXuXF.F.r.e.O . 4 V / [ [ [ | ,.>.;.;.8 1  .o.| [ [ { G , , $ $ f.f.h.f.T.P.dXCXvX|.|.|.",
"|.|.|.@X#XhX4X<X=.=.*.*.e r L H ' [ [ [ { o.o.....Z Z ..X.{ [ [ [ / A K e e *.e.e.p.j.H.iXcXvX|.|.|.",
"|.|.|.jX6X0XS.4.8 < 5 e ,.,.X.X.{ [ [ [ [ [ [ [ [ { [ [ [ [ [ [ [ | o.,.>.>.< + t @.*.d.L.gXjX X|.|.",
"|.|.|.2XeXS.6.4.8 8 r r o.,.X.| { ] ] ` ` ` ] [ [ [ ] ` ` ` ` ] [ { o.o.o.>.8 < t t *.p.G.gXjX X|.|.",
"|.|.|.4XqX5.# 8 I I Y Y [ [ [ [ / ! F S S S F [ [ _ ' F S S S ! _ ' [ [ +.0.g 1.v g v g v 6XjX X|.|.",
"|.|.|.4XqX5.# 8 I I Y Y [ [ [ [ / ! F S S S F ] [ _ _ D S Z S G ' ' [ [ O.W 5.aXsXsXsX~.y.v _.@X|.|.",
"|.|.|.cXgXS.@.i . X L L [ [ ~ ! W 2.7.B 8.B 7.V V 7 T 7.8.8.B 2.T J ' ] ) 6.aXsXaXB.G.T.N.m.h /.$X|.",
"|.|.|.zXgXS.&.f . X L L [ [ ~ ! W 2.7.-X8.-X7.V V T T 8.-X-X(.1.T J _ ' Q C.sXD.k : f f u.N.l.v /.oX",
"|.oX$XzXdXA.@.@.P U } } ~ / W 1.<XnXBXAXAXAXNX>X>X3X5XVXAXAXSXNX5X9.7 A R B.sXC.g f -.6.g u.N.k.k '.",
"{.$X$X8XiXA.i @.#.Y | | ~ ! E 2.yXVXAXDXDXDXAX3X3X9X9XSXDXDXDXVXzX<X6 u 3.V.sXD.x 1.*.u.V.g l.M.B.'.",
"|.OXOXZ.6.d % < 8 5 Z Z F F 2.N mXSXnX,X9XAXAXVXVXZXAXnXmXmXuXVXZX3Xy 6 ) 6.sXiXd z d 0 v c i.N.B./.",
"|.OX`.b i 9   . + + 2 2 S D 2.B NXDX8XM ,XZXAXDXDXDXDX9X4X3X4XNXDX7X: y ) E Q.sXY.d k k b z i.N.y.^.",
" XOXOXZ.6.-.a t O , S S S S 7.B NXDX4Xz -XZXAXDXDXDXDX9X3X3X,XmXDX6X; y q.W d Q.W.k.d f h -.m.N.t.^.",
"|.$X$X1XK.H.d.*.X , _ _ D S 7.B NXDX3Xk B ZXZXDXDXDXDX7X,X,X>XmXDX7X- y 0.5.: y.N.N.m.m.m.m.N.N.V.).",
"|..X.X3XK.V.*.@.3 V ] ` F D 2.N nXAX9XB ,XBXZXAXSXAXAX9X4X4X4XmXSX3X: y W Q.G.m.i.h y.m.M.M.m.k.b '.",
"|.|. X4XqX5.@ 4 ` ] [ [ G F 2.n 9XNXNXNXNXNXNXNXNXNXNXNXNXNXNXNXNX<Xy c u C.R.z.-.m y f 4.Z.w._.). X",
"|.|. X4XqX5.@ 4 ` ] [ [ G G W 2.>X5X5X5X6X6X6X5X6X6X6X6X6X6X6X6X5X<Xx j B.T.y.f f v 1.p A.gX2X{.{.|.",
"|.|.|.3XwX5.@ 4 ` ] ` ` ~ ~ F D 3 > > > > > > > > > > > > > > > > T E B.E.y.W 0.J R R p A.gXjX|.{.{.",
"|.|.|.4XwX5.@ 4 ] ` ` ` ~ ! F D 2 > > > > > > > > > > > > > > > y 1.B.!.i.g 0.+.D S P p B.dXjX|.|.|.",
"|.|.|.4XqX5.@ 4 ] ` ~ ! o o 3 C C C C C C C C C C C C C C C V E 1.A.Y.i.y k +.{ F S P p A.gXjX|.|.|.",
"|.|.|.4XqX5.O 4 ` ` ~ ! o o V C C C C C C C C C C C C C C Z W E d Q.T.g k : [ [ F S P p A.gXjX|.|.|.",
"|.|.|.4XqX5.@ 4 ` _ ~ ! = - c n n n n n n n n n n n n n m N b z C.T.-.l = X ] [ F S K p A.gXjX X|.|.",
"|.|.|.4XqX5.@ 7 ` ` ~ ! - ; b N N N N N B N N N N N N B w.M z C.T.t.z b # X [ [ F S P p A.dXjX|.|.|.",
"|.|.|.lXfXS.&.#.C Z ' ( 6 6 8.:X7XmXmXmXmXmXmXmXmXmXmXnX3XB C.R.V.m b c V V _ _ A A =.V.1XMXlX{.|.|.",
"|.|.|.lXcX1X-.&.2 3 ` ` A A 8.,XNXSXSXSXSXSXSXSXSXSXSXBX;XD.~.l.A.4Xb x F F / / K r =.G.uXbXvX|.|.|.",
"|.|.|.&XvX4XF.=.o 1 ~ ~ ^ H W 2.8.:X:X:X:X:X:X:X:X:X:XB D.~.T.f b 7.E R / / S S e e B.wX9XvX&X|.|.|.",
"|.|.|.*XvX8XwX9.. o S H ' ] Z A w ; ; ; ; ; ; ; ; k k D.~.R.l.d k c J ^ ] ` 3 3 8 q S.gXzX=X%X|.|.|.",
"|.|.|.$X*XkX6X>Xl y V V ^ ~ S A 7 6 6 6 6 6 6 6 x l v E.R.N.N.l.-.y E Q ) ! 4 5 1.v ,XcX#X*X$X|.|.|.",
"|.|.|.|.|.*XxXhX0X<X+ , V V S D ~ ( ( ( ( ( ( 0.<.h Y.R.N.N.M.N.R.u.f u 1.A 8 w 1XtXlXvX%X|.|.|.|.|.",
"|.|.|.|.|.$X*XxX1X<Xy y T R A C D G G G G J 0.1.g Q.W.N.N.N.i.-.m.M.m.d u R g g 1X6XkX*X$X|.|.|.|.|.",
"|.|.|.|.|.|.|.$XxXkXeXeX9.A.y & & & & & < w l d Q.~.N.N.N.M.h - f i.k.d 6.K.uXuXxX=X$X|.|.|.|.|.|.|.",
"|.|.|.|.|.|.|.$XxXxXyXeXS.A.y w * * * * * * ; B.W.N.y.h y.M.m.t.: : d d 0XJ.uXuXvX=X$X|.|.|.|.|.|.|.",
"|.|.|.|.|.|.|.|. X|.}.}.#X@X`.:X;X;XZ.;XZ.;XB z V.k.B.Z.B -.k.M.i.d M `.%X*X X X|.|.|.|.|.|.|.|.|.|.",
"|.|.|.|.|.|.|.|.|.|.|.|.@X%X`.,X:X;X;X;X:X;X:Xw.b d N ;X>XB g l.t.M ,X`.%X%X|.|.|.|.|.|.|.|.|.|.|.|.",
"|.|.|.|.|.|.|.|.|.|.|.{. X X X}..X[.[.[.[..X[.[.+X].].}.[.@X).(.(.OXXX X X X|.|.|.|.|.|.|.|.|.|.|.|.",
"|.|.|.|.|.|.|.|.|.|.|.|.|.|.|.|.|.|.|.|.|.|.|.|.|.|.|.|.|.|.|.{.'.{.|.|.|.|.|.|.|.|.|.|.|.|.|.|.|.|.",
"|.|.|.|.|.|.|.|.|.|.|.|.|.|.|.|.|.|.|.|.|.|.|.|.|.|.|.|.|.|.|.|.|.|.|.|.|.|.|.|.|.|.|.|.|.|.|.|.|.|."
};
