/* XPM */
static char *result[] = {
/* columns rows colors chars-per-pixel */
"50 25 17 1 ",
"  c black",
". c #1B1B1B",
"X c #343434",
"o c #353535",
"O c #494949",
"+ c #4C4C4C",
"@ c #606060",
"# c gray39",
"$ c #656565",
"% c gray40",
"& c #7B7B7B",
"* c #7E7E7E",
"= c gray50",
"- c #959595",
"; c #979797",
": c #ACACAC",
"> c #C3C3C3",
/* pixels */
">>>>>>>>>>>>>>>>>>>>>>>>>>>>>>>>>>>>>>>>>>>>>>>>>>",
">>>>>>>>>>>>>>>>>>>>>>>>>>>>>>>>>>>>>>>>>>>>>>>>>>",
">>>>>>>>>>>>>>>>>>>>>>>>>>>>>>>>>>>>>>>>>>>>>>>>>>",
">>>>>>>>>>>>>>>>>>>>>>>>>>>>>>>>>>>>>>>>>>>>>>>>>>",
">>>>>>>>>>>>>>>>>>>>>>>>>>>>>>>>>>>>>>>>>>>>>>>>>>",
"-X      o=:>>>-X       #>>>>>>>>>>>>>>>>>>>>>>>>>>",
"-X        +:>>-X       #>>>>>>>>>>>>>>>>>>>>>>>>>>",
"-X        .*>>-X       #>>>>>>>>>>>>>>>>>>>>>>>>>>",
"-X .*>:$.  #>>-X .*>>>>>>>>>>>>>>>>>>>>>>>>>>>>>>>",
"-X .*>>-X  #>>-X .*>>>>>>>>>>>>&. +:>>>>>>>>>>>>>>",
"-X .*>:O  .*>>-X .*>>>>>>>>>>>>@  .*>>>>>>>>>>>>>>",
"-X        +:>>-X      o;>>>>>>>-X +:>>>>>>>>>>>>>>",
"-X      .%:>>>-X      o;>>>>>>>>>>>>>>>>>>>>>>>>>>",
"-X      +:>>>>-X      o;>>>>>>>>>>>>>>>>>>>>>>>>>>",
"-X .*:O  +:>>>-X .*>>>>>>>>>>>>>>>>>>>>>>>>>>>>>>>",
"-X .*>-X  #>>>-X .*>>>>>>>>>>>>>>>>>>>>>>>>>>>>>>>",
"-X .*>:O  o;>>-X .*>>>>>>>>>>>>>>>>>>>>>>>>>>>>>>>",
"-X .*>>-X  +:>-X       +:>>>>>>&. +:>>>>>>>>>>>>>>",
"-X .*>>>@  .*>-X       +:>>>>>>@  .*>>>>>>>>>>>>>>",
"-X .*>>>:O  +:-X       +:>>>>>>-X +:>>>>>>>>>>>>>>",
">>>>>>>>>>>>>>>>>>>>>>>>>>>>>>>>>>>>>>>>>>>>>>>>>>",
">>>>>>>>>>>>>>>>>>>>>>>>>>>>>>>>>>>>>>>>>>>>>>>>>>",
">>>>>>>>>>>>>>>>>>>>>>>>>>>>>>>>>>>>>>>>>>>>>>>>>>",
">>>>>>>>>>>>>>>>>>>>>>>>>>>>>>>>>>>>>>>>>>>>>>>>>>",
">>>>>>>>>>>>>>>>>>>>>>>>>>>>>>>>>>>>>>>>>>>>>>>>>>"
};
