/* XPM */
static char *result[] = {
/* columns rows colors chars-per-pixel */
"50 25 104 2 ",
"   c black",
".  c #010101",
"X  c #020202",
"o  c gray1",
"O  c #060606",
"+  c #070707",
"@  c gray3",
"#  c #090909",
"$  c #0B0B0B",
"%  c #0E0E0E",
"&  c gray6",
"*  c #101010",
"=  c #111111",
"-  c gray7",
";  c gray8",
":  c #151515",
">  c #161616",
",  c gray9",
"<  c #181818",
"1  c gray10",
"2  c #1B1B1B",
"3  c gray11",
"4  c #1D1D1D",
"5  c #1E1E1E",
"6  c gray12",
"7  c gray13",
"8  c #222222",
"9  c #232323",
"0  c #272727",
"q  c #282828",
"w  c #2C2C2C",
"e  c #2D2D2D",
"r  c gray18",
"t  c #3C3C3C",
"y  c gray24",
"u  c #3F3F3F",
"i  c gray25",
"p  c #434343",
"a  c #464646",
"s  c #4B4B4B",
"d  c #4E4E4E",
"f  c #515151",
"g  c gray33",
"h  c #555555",
"j  c gray35",
"k  c #5A5A5A",
"l  c gray37",
"z  c #626262",
"x  c gray39",
"c  c #646464",
"v  c gray40",
"b  c #686868",
"n  c DimGray",
"m  c #6A6A6A",
"M  c #6C6C6C",
"N  c #6F6F6F",
"B  c #717171",
"V  c #747474",
"C  c #767676",
"Z  c #777777",
"A  c gray48",
"S  c #7E7E7E",
"D  c #808080",
"F  c #838383",
"G  c gray52",
"H  c #868686",
"J  c gray53",
"K  c #898989",
"L  c #8B8B8B",
"P  c gray55",
"I  c #8D8D8D",
"U  c #8E8E8E",
"Y  c #929292",
"T  c #959595",
"R  c #979797",
"E  c gray60",
"W  c gray61",
"Q  c gray62",
"!  c #9F9F9F",
"~  c gray63",
"^  c gray64",
"/  c #A5A5A5",
"(  c #A7A7A7",
")  c gray66",
"_  c gray67",
"`  c gray68",
"'  c #AEAEAE",
"]  c gray69",
"[  c #B1B1B1",
"{  c gray70",
"}  c #B4B4B4",
"|  c gray71",
" . c #B6B6B6",
".. c #B7B7B7",
"X. c #B9B9B9",
"o. c gray73",
"O. c #BBBBBB",
"+. c #BCBCBC",
"@. c gray74",
"#. c gray",
"$. c #C0C0C0",
"%. c #C1C1C1",
"&. c gray76",
"*. c #C3C3C3",
/* pixels */
"*.*.*.*.*.*.*.*.*.*.*.*.*.*.*.*.*.*.*.*.*.*.*.*.*.*.*.*.*.*.*.*.*.*.*.*.*.*.*.*.*.*.*.*.*.*.*.*.*.*.",
"*.*.*.*.*.*.*.*.*.*.*.*.*.*.*.*.*.*.*.*.*.*.*.*.*.*.*.*.*.*.*.*.*.*.*.*.*.*.*.*.*.*.*.*.*.*.*.*.*.*.",
"*.*.*.*.*.*.*.*.*.*.*.*.*.*.*.*.*.*.*.*.*.*.*.*.*.*.*.*.*.*.*.*.*.*.*.*.*.*.*.*.*.*.*.*.*.*.*.*.*.*.",
"*.*.*.*.*.*.*.*.*.*.*.*.*.*.*.*.*.*.*.*.*.*.*.*.*.*.*.*.*.*.*.*.*.*.*.*.*.*.*.*.*.*.*.*.*.*.*.*.*.*.",
"*.*.*.*.*.*.*.*.*.*.*.%...[ _ _ _ ` X.#.*.*.*.*.*.%...[ _ _ _ ` o.*.*.*.*.&.+.[ _ _ _ ` X.#.*.*.*.*.",
"*.*.*.*.*.*.*.*.*.*.$./ h q       % c R *.*.*.%. .! h q       % M *.*.*.$._ C q       % z P #.*.*.*.",
"*.*.*.*.*.*.*.*.*.$.Q q             * Z *.*.$./ d               5 *.*.$.Q q               ; P #.*.*.",
"*.*.*.*.*.*.*.*.*.` q   . # < < , = 2 Z *.%.^ q     X % < < , * 9 *.%.^ q   . # < < , &     ; I *.*.",
"*.*.*.*.*.*.*.*.*./     # f *.*.@.T V D *.} g     o 7 D *.*.@.U k *.{ d   . * k *.*.@.H &     3 o.*.",
"*.*.*.*.*.*.*.*.*./     % m o.*.*.*.*.*.*.` q   X 8 ~ *.*.*.*.*.*.&.~     # f *.*.*.*.@.F     & B *.",
"*.*.*.*.*.*.*.*.*.) &     % b ` X.#.*.*.%.W     - D *.*.*.*.*.*.*.O.A     - D *.*.*.*.*.( $   + a *.",
"*.*.*.*.*.*.*.*.*.@.H &       % z L o.*.| j     5 *.*.*.*.*.*.*.*.| j     5 *.*.*.*.*.*.| j     5 *.",
"*.*.*.*.*.*.*.*.*.*.@.H = $       % m o.| j     5 *.*.*.*.*.*.*.*.| j     5 *.*.*.*.*.*.} g   . 9 *.",
"*.*.*.*.*.*.*.*.*.*.*.@.T v > $     % M  .l     4 #.*.*.*.*.*.*.*. .l     4 #.*.*.*.*.*.' r   @ s *.",
"*.*.*.*.*.*.*.*.*.%.o.*.*.*...c $     5 +.S     ; I *.*.*.*.*.*.*.@.F     : Y *.*.*.*.&.) q   # f *.",
"*.*.*.*.*.*.*.*.*.{ n } #.*.*.} g     5 @.G $     1 ' #.*.*.%...| *.( $   + p } #.*.%.] N     - D *.",
"*.*.*.*.*.*.*.*.*./ + t K _ _ E q   . 9 *. .l       ; K _ _ ! h a *...x O   + t K _ ! d     o e *.*.",
"*.*.*.*.*.*.*.*.*./               . * k *.@.H &                 5 *.*.] y O               o 0 ~ *.*.",
"*.*.*.*.*.*.*.*.*.) = $       . + > k *.*.*.@.J , * O       . + q *.*.*.] u = $     . + % w ~ *.*.*.",
"*.*.*.*.*.*.*.*.*.@.T v < < < 6 d D *.*.*.*.*.*.@.U i < < < 6 d D *.*.*.*.@.T v < < 6 d D *.*.*.*.*.",
"*.*.*.*.*.*.*.*.*.*.*.*.*.*.*.*.*.*.*.*.*.*.*.*.*.*.*.*.*.*.*.*.*.*.*.*.*.*.*.*.*.*.*.*.*.*.*.*.*.*.",
"*.*.*.*.*.*.*.*.*.*.*.*.*.*.*.*.*.*.*.*.*.*.*.*.*.*.*.*.*.*.*.*.*.*.*.*.*.*.*.*.*.*.*.*.*.*.*.*.*.*.",
"*.*.*.*.*.*.*.*.*.*.*.*.*.*.*.*.*.*.*.*.*.*.*.*.*.*.*.*.*.*.*.*.*.*.*.*.*.*.*.*.*.*.*.*.*.*.*.*.*.*.",
"*.*.*.*.*.*.*.*.*.*.*.*.*.*.*.*.*.*.*.*.*.*.*.*.*.*.*.*.*.*.*.*.*.*.*.*.*.*.*.*.*.*.*.*.*.*.*.*.*.*.",
"*.*.*.*.*.*.*.*.*.*.*.*.*.*.*.*.*.*.*.*.*.*.*.*.*.*.*.*.*.*.*.*.*.*.*.*.*.*.*.*.*.*.*.*.*.*.*.*.*.*."
};
