/* XPM */
static char *result[] = {
/* columns rows colors chars-per-pixel */
"30 45 36 1 ",
"  c #585858",
". c #5F5F5F",
"X c #646464",
"o c gray40",
"O c #676767",
"+ c gray43",
"@ c gray45",
"# c gray50",
"$ c #818181",
"% c #888888",
"& c gray54",
"* c #909090",
"= c gray59",
"- c #9D9D9D",
"; c gray62",
": c #9F9F9F",
"> c gray63",
", c gray64",
"< c #A5A5A5",
"1 c gray69",
"2 c gray70",
"3 c #B4B4B4",
"4 c #B6B6B6",
"5 c #C5C5C5",
"6 c #D5D5D5",
"7 c gray84",
"8 c #D8D8D8",
"9 c #DDDDDD",
"0 c #DFDFDF",
"q c #E9E9E9",
"w c gray93",
"e c gray95",
"r c gray96",
"t c #F9F9F9",
"y c gray99",
"u c white",
/* pixels */
"                              ",
"                              ",
"                              ",
"                              ",
"                              ",
"                              ",
"                              ",
"                              ",
"                              ",
"                              ",
"              .$>>:%          ",
"             o,7uut5          ",
"           X*3ruuut5          ",
"         X*1quuuuut5          ",
"       X*1quuuuuuut5          ",
"       @8uuuuuuuuut5          ",
"       @8uuuuuuuuut5          ",
"       @8uuyw0uuuut5          ",
"       @6e92:;uuuut5          ",
"       O-<&  #uuuut5          ",
"             #uuuut5          ",
"             #uuuut5          ",
"             #uuuut5          ",
"             #uuuut5          ",
"             #uuuut5          ",
"             #uuuut5          ",
"             #uuuut5          ",
"             #uuuut5          ",
"             #uuuut5          ",
"             #uuuut5          ",
"             #uuuut5          ",
"             #uuuut5          ",
"             #uuuut5          ",
"             #uuuut5          ",
"             #uuuut5          ",
"             #uuuut5          ",
"             +44442=          ",
"                              ",
"                              ",
"                              ",
"                              ",
"                              ",
"                              ",
"                              ",
"                              "
};
