/* XPM */
static char *result[] = {
/* columns rows colors chars-per-pixel */
"30 45 70 1 ",
"  c #585858",
". c #5A5A5A",
"X c #5B5B5B",
"o c gray36",
"O c #5D5D5D",
"+ c #5F5F5F",
"@ c #606060",
"# c gray38",
"$ c #626262",
"% c #747474",
"& c #767676",
"* c #7B7B7B",
"= c gray49",
"- c #7E7E7E",
"; c gray50",
": c gray52",
"> c #868686",
", c gray53",
"< c #888888",
"1 c #939393",
"2 c gray58",
"3 c #989898",
"4 c gray60",
"5 c #9A9A9A",
"6 c #9B9B9B",
"7 c gray61",
"8 c #9D9D9D",
"9 c gray62",
"0 c #A0A0A0",
"q c gray63",
"w c gray65",
"e c #AAAAAA",
"r c gray67",
"t c #ACACAC",
"y c gray69",
"u c #B4B4B4",
"i c #B7B7B7",
"p c #B9B9B9",
"a c #BBBBBB",
"s c #BCBCBC",
"d c #C3C3C3",
"f c #C5C5C5",
"g c #C8C8C8",
"h c #CBCBCB",
"j c gray81",
"k c #D0D0D0",
"l c gray83",
"z c gray85",
"x c #DADADA",
"c c gainsboro",
"v c gray87",
"b c gray88",
"n c #E1E1E1",
"m c #E2E2E2",
"M c gray89",
"N c gray91",
"B c #E9E9E9",
"V c #EAEAEA",
"C c gray92",
"Z c #EEEEEE",
"A c gray94",
"S c #F1F1F1",
"D c gray95",
"F c gray96",
"G c #F9F9F9",
"H c #FBFBFB",
"J c gray99",
"K c #FDFDFD",
"L c #FEFEFE",
"P c white",
/* pixels */
"                              ",
"                              ",
"                              ",
"                              ",
"                              ",
"                              ",
"                              ",
"                              ",
"                              ",
"                              ",
"        4FFFFFFFFFFFFn3       ",
"        9PPPPPPPPPPPPB6       ",
"       %fPPPPPPPPPPPPB6       ",
"       &gPPPPPPPPPPPPB6       ",
"       &gPPPFNNNNNNNNc6       ",
"       ,bPPPz<#######@o       ",
"       <mPPPaX                ",
"       <mPPPp                 ",
"       <mPPPp                 ",
"       1APPPp                 ",
"       2SPPPHFFFFnu;          ",
"       2SPPPPPPPPLHZw         ",
"       2SPPPPPPPPPPLSw        ",
"       8LPPPPPPPPPPPLSw       ",
"       2vjjjjjMPPPPPPLl;      ",
"       X@+++++@-hPPPPPB5      ",
"               .*hPPPPFe      ",
"                .0PPPPFr      ",
"                 9PPPPFr      ",
"                %fPPPPV7      ",
"      >f3      %dJPPPPso      ",
"      <bGClfffkBJPPPPFt       ",
"      <mPLKJJJJLPPPPPz:       ",
"      <mPPPPPPPPPPPPx,X       ",
"      <mPPPPPPPPPPFy+X        ",
"      X=ixDPPPPFvq#O          ",
"       .O+#$$$$#@o            ",
"                              ",
"                              ",
"                              ",
"                              ",
"                              ",
"                              ",
"                              ",
"                              "
};
