/* XPM */
static char *result[] = {
/* columns rows colors chars-per-pixel */
"30 45 88 1 ",
"  c #585858",
". c #5B5B5B",
"X c #5D5D5D",
"o c #626262",
"O c #656565",
"+ c gray40",
"@ c #676767",
"# c #686868",
"$ c DimGray",
"% c #6A6A6A",
"& c #6C6C6C",
"* c #6D6D6D",
"= c gray43",
"- c #6F6F6F",
"; c gray44",
": c #717171",
"> c #727272",
", c gray45",
"< c #747474",
"1 c gray46",
"2 c #767676",
"3 c #777777",
"4 c gray47",
"5 c #797979",
"6 c gray48",
"7 c gray49",
"8 c #838383",
"9 c gray52",
"0 c #888888",
"q c gray55",
"w c #909090",
"e c gray59",
"r c gray60",
"t c #A0A0A0",
"y c gray63",
"u c #A2A2A2",
"i c gray67",
"p c #ACACAC",
"a c #B2B2B2",
"s c gray71",
"d c #B6B6B6",
"f c #B7B7B7",
"g c gray73",
"h c #BCBCBC",
"j c gray",
"k c #C0C0C0",
"l c gray76",
"z c #C3C3C3",
"x c #C6C6C6",
"c c gray78",
"v c gray79",
"b c #CBCBCB",
"n c #CDCDCD",
"m c gray81",
"M c #D0D0D0",
"N c gray82",
"B c #D2D2D2",
"V c #D5D5D5",
"C c gray84",
"Z c #D7D7D7",
"A c #D8D8D8",
"S c #DADADA",
"D c gainsboro",
"F c gray87",
"G c #DFDFDF",
"H c gray88",
"J c #E1E1E1",
"K c #E2E2E2",
"L c gray89",
"P c gray90",
"I c #E6E6E6",
"U c #E9E9E9",
"Y c gray92",
"T c #ECECEC",
"R c gray93",
"E c gray94",
"W c #F1F1F1",
"Q c #F3F3F3",
"! c gray96",
"~ c #F6F6F6",
"^ c #F8F8F8",
"/ c #F9F9F9",
"( c gray98",
") c #FBFBFB",
"_ c gray99",
"` c #FDFDFD",
"' c #FEFEFE",
"] c white",
/* pixels */
"                              ",
"                              ",
"                              ",
"                              ",
"                              ",
"                              ",
"                              ",
"                              ",
"                              ",
"                              ",
"            =hnNHHHDcy        ",
"          =kP~(_]]]'/G9       ",
"         ,C^]]]]]]]]]Uw       ",
"        ,Z_]]]]]]]]]]Uw       ",
"       ,Z_]]]](IVVVG]Uw       ",
"      +i_]]](M1:***;9to       ",
"      2K]]](m&      .o        ",
"     =x_]]]F&                 ",
"     4U]]](v                  ",
"     5R]]]!s=hNHHHZy          ",
"     7_]]]F8C~_]]]`Wm9        ",
"    +p]]]]QZ_]]]]]]])A9       ",
"    :B]]]]'_]]]]]]]]])b       ",
"    ,A]]]]]]!nagG]]]]]I9      ",
"    ,A]]]]]Ru&O@7z]]]]Wi      ",
"    ,A]]]]!ho   .0]]]]`N      ",
"    %h]]]]Ye     6E]]]]A      ",
"    #d]]]]Uw     5R]]]]A      ",
"    .0]]]]Wi     5R]]](v      ",
"     1G]]]^l     7_]]]/x      ",
"     %h]]]'L9   ,A]]]]Tr      ",
"     .0]]]])JffhZ_]]](no      ",
"      &z]]]]`~~~_]]]]Tr       ",
"      .3z]]]]]]]]]]]Rto       ",
"       .3z]]]]]]]](Fto        ",
"        .$qSE]](YIj-o         ",
"          X=<331>:#           ",
"                              ",
"                              ",
"                              ",
"                              ",
"                              ",
"                              ",
"                              ",
"                              "
};
