/* XPM */
static char *result[] = {
/* columns rows colors chars-per-pixel */
"30 45 51 1 ",
"  c #585858",
". c #606060",
"X c gray40",
"o c #686868",
"O c #6A6A6A",
"+ c #6F6F6F",
"@ c gray46",
"# c #767676",
"$ c #777777",
"% c #797979",
"& c #7C7C7C",
"* c gray49",
"= c #838383",
"- c #848484",
"; c gray52",
": c #868686",
"> c #898989",
", c gray54",
"< c gray55",
"1 c #8E8E8E",
"2 c #929292",
"3 c gray58",
"4 c gray63",
"5 c #A7A7A7",
"6 c #B1B1B1",
"7 c #B2B2B2",
"8 c gray71",
"9 c #B7B7B7",
"0 c gray75",
"q c gray77",
"w c #C5C5C5",
"e c #C8C8C8",
"r c #CACACA",
"t c #CBCBCB",
"y c gray81",
"u c gray83",
"i c gray84",
"p c #DFDFDF",
"a c #E1E1E1",
"s c #E2E2E2",
"d c #E4E4E4",
"f c gray92",
"g c #ECECEC",
"h c #EEEEEE",
"j c #EFEFEF",
"k c gray94",
"l c gray96",
"z c #F6F6F6",
"x c #F9F9F9",
"c c gray98",
"v c white",
/* pixels */
"                              ",
"                              ",
"                              ",
"                              ",
"                              ",
"                              ",
"                              ",
"                              ",
"                              ",
"                              ",
"     @8tttttttttttttttt0,     ",
"     =pvvvvvvvvvvvvvvvvg4     ",
"     =pvvvvvvvvvvvvvvvvg4     ",
"     =pvvvvvvvvvvvvvvvvg4     ",
"     $whhhhhhhhhhlvvvvxq+     ",
"     .#----------6vvvvd3      ",
"                &uvvvx0X      ",
"                2cvvvd3       ",
"               &uvvvx0X       ",
"              O7cvvvd3        ",
"              ;svvvx0X        ",
"             O7cvvvd3         ",
"             ;svvvx0X         ",
"             2cvvvj5          ",
"            &uvvvvy+          ",
"            2cvvvx9           ",
"           @evvvvj5           ",
"           >fvvvvy+           ",
"           2cvvvx9            ",
"          @evvvvj5            ",
"          >fvvvvy+            ",
"          2cvvvx9             ",
"         O8vvvvz7             ",
"         *ivvvvj5             ",
"         >fvvvva1             ",
"         <kvvvvrX             ",
"         o:<<<<%              ",
"                              ",
"                              ",
"                              ",
"                              ",
"                              ",
"                              ",
"                              ",
"                              "
};
