/* XPM */
static char *result[] = {
/* columns rows colors chars-per-pixel */
"30 45 62 1 ",
"  c #585858",
". c gray40",
"X c gray43",
"o c #747474",
"O c #7B7B7B",
"+ c #7C7C7C",
"@ c #818181",
"# c #848484",
"$ c gray52",
"% c #868686",
"& c gray54",
"* c #8E8E8E",
"= c gray56",
"- c #929292",
"; c gray58",
": c #979797",
"> c gray60",
", c #9A9A9A",
"< c gray61",
"1 c #9F9F9F",
"2 c gray63",
"3 c #A4A4A4",
"4 c #A7A7A7",
"5 c #AAAAAA",
"6 c #ACACAC",
"7 c #AEAEAE",
"8 c #AFAFAF",
"9 c #B2B2B2",
"0 c #B7B7B7",
"q c gray72",
"w c gray73",
"e c #BCBCBC",
"r c gray74",
"t c gray75",
"y c #C1C1C1",
"u c gray76",
"i c gray77",
"p c #C5C5C5",
"a c gray78",
"s c #CDCDCD",
"d c gray81",
"f c #D2D2D2",
"g c #D5D5D5",
"h c #D8D8D8",
"j c #DADADA",
"k c #DDDDDD",
"l c #DFDFDF",
"z c #E2E2E2",
"x c gray89",
"c c gray90",
"v c gray91",
"b c gray92",
"n c gray93",
"m c #EEEEEE",
"M c #EFEFEF",
"N c gray94",
"B c #F1F1F1",
"V c #F3F3F3",
"C c gray96",
"Z c #F8F8F8",
"A c gray98",
"S c white",
/* pixels */
"                              ",
"                              ",
"                              ",
"                              ",
"                              ",
"                              ",
"                              ",
"                              ",
"                              ",
"                              ",
"           O,4666<$.          ",
"         #4dmASSSMhw*.        ",
"        #fASSSSSSSSSz<.       ",
"       #fASSSSSSSSSSSz<.      ",
"       0ASSSZbuykCSSSSf+      ",
"      OgSSSSi:XX&pCSSSM=      ",
"      1bSSSZ;    -xSSSS>      ",
"      1bSSSv&    XsSSSS>      ",
"      -xSSSM=    OgSSSZ;      ",
"      XsSSSSio  XrCSSSj@      ",
"       2nSSSZa<,rnSSSz<.      ",
"       X8nSSSSMmASSSz<.       ",
"        X>lSSSSSSSSz<.        ",
"        #4lSSSSSSSSzw*.       ",
"       #fASSSZVASSSSSz<.      ",
"      #fASSSz914ycASSSz%      ",
"      0ASSSz<.  X-jSSSSeX     ",
"     OgSSSS7.     7CSSSv&     ",
"     1bSSSZ;      1bSSSN=     ",
"     1bSSSZ;      4BSSSN=     ",
"     -xSSSS7.    XpASSSN=     ",
"     XsSSSSz5$. OqnSSSSv&     ",
"      2nSSSSMhw6dCSSSSZqX     ",
"      XpASSSSSSSSSSSSZto      ",
"       #rnSSSSSSSSSSZto       ",
"        X>ykCSSSZVbu3o        ",
"          X&266631:X          ",
"                              ",
"                              ",
"                              ",
"                              ",
"                              ",
"                              ",
"                              ",
"                              "
};
