/* XPM */
static char *result[] = {
/* columns rows colors chars-per-pixel */
"30 45 23 1 ",
"  c #585858",
". c gray43",
"X c #7B7B7B",
"o c #838383",
"O c gray54",
"+ c #8B8B8B",
"@ c #A0A0A0",
"# c #A9A9A9",
"$ c gray68",
"% c #BCBCBC",
"& c gray74",
"* c gray75",
"= c gray80",
"- c gray82",
"; c gray83",
": c gainsboro",
"> c #DFDFDF",
", c #E2E2E2",
"< c #E7E7E7",
"1 c #EEEEEE",
"2 c #EFEFEF",
"3 c #F8F8F8",
"4 c white",
/* pixels */
"                              ",
"                              ",
"                              ",
"                              ",
"                              ",
"                              ",
"                              ",
"                              ",
"                              ",
"                              ",
"          .$;14442*O          ",
"         o1444444442#         ",
"       .&444444444443%        ",
"       +44444444444442#       ",
"      o1444442==:44444,O      ",
"      +44444,O  .&44442#      ",
"     X:44442#    X:4444=      ",
"     X:4444,O    .&4444,O     ",
"     X:4444,O     +44442#     ",
"     X:4444,O    .&44442#     ",
"     .&44443%    o144443%     ",
"     .&444443-O o1444443%     ",
"      X:4444444444444443%     ",
"       +4444444444444443%     ",
"       .&44444444,&44442#     ",
"         X:44443-O+44442#     ",
"           .@@O   +4444,O     ",
"                 X:4444=      ",
"                 o14443%      ",
"                X:44442#      ",
"       .O      X:44443%       ",
"       +42====;144444,O       ",
"       +4444444444442#        ",
"       +444444444442#         ",
"       +4444444443-O          ",
"       .$;14443<>#            ",
"                              ",
"                              ",
"                              ",
"                              ",
"                              ",
"                              ",
"                              ",
"                              ",
"                              "
};
