/* XPM */
static char *result[] = {
/* columns rows colors chars-per-pixel */
"30 45 82 1 ",
"  c #585858",
". c #5A5A5A",
"X c #5B5B5B",
"o c gray36",
"O c gray38",
"+ c #626262",
"@ c gray39",
"# c #646464",
"$ c gray40",
"% c #686868",
"& c DimGray",
"* c #6A6A6A",
"= c gray42",
"- c #6C6C6C",
"; c #6D6D6D",
": c gray43",
"> c #6F6F6F",
", c gray44",
"< c #717171",
"1 c #727272",
"2 c #767676",
"3 c #777777",
"4 c #7B7B7B",
"5 c #7C7C7C",
"6 c #808080",
"7 c #848484",
"8 c gray54",
"9 c gray59",
"0 c gray61",
"q c gray62",
"w c #A0A0A0",
"e c gray63",
"r c #A2A2A2",
"t c gray64",
"y c #A9A9A9",
"u c #AEAEAE",
"i c #B1B1B1",
"p c #B4B4B4",
"a c gray71",
"s c #B7B7B7",
"d c gray73",
"f c #BBBBBB",
"g c gray74",
"h c gray75",
"j c #C1C1C1",
"k c gray77",
"l c gray78",
"z c #CDCDCD",
"x c gray81",
"c c #D2D2D2",
"v c gray83",
"b c #D5D5D5",
"n c #D7D7D7",
"m c #D8D8D8",
"M c gray85",
"N c #DADADA",
"B c gainsboro",
"V c gray87",
"C c gray88",
"Z c #E2E2E2",
"A c gray89",
"S c gray90",
"D c #E6E6E6",
"F c gray91",
"G c #E9E9E9",
"H c #EAEAEA",
"J c #EEEEEE",
"K c #EFEFEF",
"L c gray94",
"P c #F1F1F1",
"I c gray95",
"U c #F3F3F3",
"Y c gray96",
"T c #F6F6F6",
"R c gray97",
"E c #F8F8F8",
"W c #F9F9F9",
"Q c gray98",
"! c #FBFBFB",
"~ c gray99",
"^ c #FEFEFE",
"/ c white",
/* pixels */
"                              ",
"                              ",
"                              ",
"                              ",
"                              ",
"                              ",
"                              ",
"                              ",
"                              ",
"           *12333>$.          ",
"         :2lF~///Bs4o         ",
"        :M~////////J7o        ",
"       :M~//////////J6X       ",
"      @n~////RTT^////B2.      ",
"      eU////LhssS~////a#      ",
"      b~///!rO  8K////B*      ",
"     *G////D-    V^////5.     ",
"     fR////j$    pT////u+     ",
"     hE////<     9P////a#     ",
"     c~///!,     8K////v&     ",
"     b~///H;      D////m*     ",
"     D////H;      D////H;     ",
"     D////H;      D////H;     ",
"     D////H;      D////H;     ",
"     D////H;      D////D-     ",
"     D////J:     @F////v&     ",
"     Z^////<     0I////z%     ",
"     zQ////5.    fR////tO     ",
"     pT////a#    hE///!,      ",
"     8K////B2.  *m~///D-      ",
"      V^////g3;1lW///!j$      ",
"      yY/////BbF~////C=       ",
"       n~///////////LwO       ",
"       8CE^////////LwO        ",
"        8kGY^///!TAqO         ",
"          8iNCCCxd$           ",
"                              ",
"                              ",
"                              ",
"                              ",
"                              ",
"                              ",
"                              ",
"                              ",
"                              "
};
