/* XPM */
static char *result[] = {
/* columns rows colors chars-per-pixel */
"30 45 72 1 ",
"  c #585858",
". c gray35",
"X c #5D5D5D",
"o c #5F5F5F",
"O c gray38",
"+ c #626262",
"@ c gray39",
"# c #646464",
"$ c #656565",
"% c #686868",
"& c gray42",
"* c #6C6C6C",
"= c gray44",
"- c gray45",
"; c gray46",
": c #767676",
"> c #797979",
", c gray48",
"< c #7B7B7B",
"1 c #808080",
"2 c #818181",
"3 c gray51",
"4 c #868686",
"5 c gray54",
"6 c gray58",
"7 c gray59",
"8 c #9A9A9A",
"9 c gray66",
"0 c gray67",
"q c #ACACAC",
"w c #AFAFAF",
"e c gray69",
"r c #B2B2B2",
"t c #B6B6B6",
"y c gray72",
"u c gray73",
"i c #BCBCBC",
"p c gray76",
"a c #C5C5C5",
"s c #C6C6C6",
"d c gray78",
"f c #C8C8C8",
"g c gray79",
"h c #CBCBCB",
"j c #D0D0D0",
"k c gray82",
"l c #D2D2D2",
"z c #D5D5D5",
"x c gray84",
"c c #D8D8D8",
"v c gainsboro",
"b c #E1E1E1",
"n c #E2E2E2",
"m c gray89",
"M c #E4E4E4",
"N c #E9E9E9",
"B c gray92",
"V c gray93",
"C c #EFEFEF",
"Z c #F1F1F1",
"A c gray95",
"S c #F3F3F3",
"D c #F4F4F4",
"F c #F6F6F6",
"G c gray97",
"H c #F8F8F8",
"J c #F9F9F9",
"K c gray98",
"L c #FBFBFB",
"P c gray99",
"I c #FEFEFE",
"U c white",
/* pixels */
"                              ",
"                              ",
"                              ",
"                              ",
"                              ",
"                              ",
"                              ",
"                              ",
"                              ",
"           -<23333:&.         ",
"        %,2lBIUUUUvu2*.       ",
"       %rNIUUUUUUUUUCi=.      ",
"       8GUUUUUUUUUUUUUyo      ",
"       8GUUUKSAAIUUUUUC;.     ",
"       8GKScaewwlFIUUUUro     ",
"       8Bdeo     hPUUUUj+     ",
"       5qo       5FUUUUx+     ",
"                  ZUUUUN#     ",
"                 -DUUUUm@     ",
"                 gLUUUUto     ",
"                >mIUUUK$      ",
"               >mIUUUUfO      ",
"             %1MIUUUUN#       ",
"            -rJUUUUUN7X       ",
"           >kPUUUUKc6X        ",
"          >mIUUUUKdO          ",
"         >mIUUUUNsO           ",
"        >mIUUUKc6X            ",
"       %nIUUUKdO              ",
"       0HUUUUfO               ",
"       bIUUUU4<<<<<<<<<*.     ",
"      -DUUUUUCVVVVVVVVVto     ",
"      pLUUUUUUUUUUUUUUUN#     ",
"      pLUUUUUUUUUUUUUUUN#     ",
"      pLUUUUUUUUUUUUUUUN#     ",
"      9lzzzzzzzzzzzzzzzaO     ",
"                              ",
"                              ",
"                              ",
"                              ",
"                              ",
"                              ",
"                              ",
"                              ",
"                              "
};
