/* XPM */
static char *result[] = {
/* columns rows colors chars-per-pixel */
"30 45 71 1 ",
"  c #585858",
". c gray35",
"X c #5A5A5A",
"o c #5B5B5B",
"O c gray36",
"+ c #5D5D5D",
"@ c #5F5F5F",
"# c #606060",
"$ c #767676",
"% c gray47",
"& c #7B7B7B",
"* c gray50",
"= c #838383",
"- c gray52",
"; c #888888",
": c gray54",
"> c #8B8B8B",
", c gray55",
"< c gray58",
"1 c #959595",
"2 c gray59",
"3 c #979797",
"4 c #989898",
"5 c gray60",
"6 c #9A9A9A",
"7 c #9B9B9B",
"8 c gray62",
"9 c gray63",
"0 c gray64",
"q c #A5A5A5",
"w c #A7A7A7",
"e c #A9A9A9",
"r c gray67",
"t c #AFAFAF",
"y c #B4B4B4",
"u c #B6B6B6",
"i c gray72",
"p c gray73",
"a c #BCBCBC",
"s c #C6C6C6",
"d c gray78",
"f c #CBCBCB",
"g c gray80",
"h c #D0D0D0",
"j c gray82",
"k c #D2D2D2",
"l c gray83",
"z c #D5D5D5",
"x c #D8D8D8",
"c c #DFDFDF",
"v c gray88",
"b c #E1E1E1",
"n c #E2E2E2",
"m c gray89",
"M c gray90",
"N c #E7E7E7",
"B c #E9E9E9",
"V c #EAEAEA",
"C c gray92",
"Z c gray93",
"A c #EFEFEF",
"S c #F1F1F1",
"D c gray95",
"F c #F3F3F3",
"G c gray96",
"H c #F9F9F9",
"J c gray98",
"K c gray99",
"L c #FDFDFD",
"P c #FEFEFE",
"I c white",
/* pixels */
"                              ",
"                              ",
"                              ",
"                              ",
"                              ",
"                              ",
"                              ",
"                              ",
"                              ",
"                              ",
"         o6euuuuy4*           ",
"       OeiBGIIIIPNly*         ",
"       @GIIIIIIIIIILj*        ",
"       #IIIIIIIIIIIILh        ",
"       #IPSnbfmIIIIIIJ2       ",
"       @Ad2::%,qDIIIIKd       ",
"       o1$     o7IIIILz       ",
"                #IIIIPv       ",
"                #IIIILk       ",
"               o8IIIIJ;       ",
"             o6rBIIIPV        ",
"        X=uuuiBGIIIPZ<        ",
"        oqIIIIIIIPAd<         ",
"        oqIIIIIIIPDu*         ",
"        oqIIIIIIIIPNk2        ",
"        o0nnnnmIIIIIPM2       ",
"        .%::::,0gIIIIPn       ",
"               .&gIIIIH*      ",
"                oqIIIIKy      ",
"                +aIIIIKd      ",
"      Ow*      X-BIIIIKt      ",
"      @Fly55556rxIIIIPC$      ",
"      #IIPBBBBBGIIIIIKp       ",
"      #IIIIIIIIIIIIIKs$       ",
"      #IIIIIIIIIIIPAs$        ",
"      o0fmDIIIIPSnc1$         ",
"       .%>3999992:;           ",
"                              ",
"                              ",
"                              ",
"                              ",
"                              ",
"                              ",
"                              ",
"                              "
};
