/* XPM */
static char *result[] = {
/* columns rows colors chars-per-pixel */
"30 45 51 1 ",
"  c #585858",
". c #5D5D5D",
"X c gray38",
"o c #626262",
"O c #656565",
"+ c gray40",
"@ c gray43",
"# c #717171",
"$ c gray47",
"% c #7B7B7B",
"& c gray49",
"* c gray50",
"= c #808080",
"- c gray51",
"; c #838383",
": c #868686",
"> c gray55",
", c #8E8E8E",
"< c gray59",
"1 c #979797",
"2 c gray60",
"3 c #9D9D9D",
"4 c #A2A2A2",
"5 c #A7A7A7",
"6 c #AAAAAA",
"7 c gray67",
"8 c #AEAEAE",
"9 c #B4B4B4",
"0 c #C1C1C1",
"q c gray76",
"w c #C3C3C3",
"e c #CACACA",
"r c gray81",
"t c #D0D0D0",
"y c #D5D5D5",
"u c #D8D8D8",
"i c gray87",
"p c gray89",
"a c #E6E6E6",
"s c #E7E7E7",
"d c gray92",
"f c gray93",
"g c #EFEFEF",
"h c #F1F1F1",
"j c gray95",
"k c #F4F4F4",
"l c gray96",
"z c #F9F9F9",
"x c gray99",
"c c #FEFEFE",
"v c white",
/* pixels */
"                              ",
"                              ",
"                              ",
"                              ",
"                              ",
"                              ",
"                              ",
"                              ",
"                              ",
"                              ",
"               5tyyyy$        ",
"               rcvvvv;        ",
"              5gvvvvv;        ",
"              rcvvvvv;        ",
"             5gvvvvvv;        ",
"            =icvvvvvv;        ",
"            qzvvvvvvv;        ",
"           5gvvvvvvvv;        ",
"          =icvvefvvvv;        ",
"          qzvvh9svvvv;        ",
"         5gvvv31svvvv;        ",
"        2acvve#,svvvv;        ",
"       =uxvvh>.,svvvv;        ",
"       qzvvv3X ,svvvv;        ",
"      5gvvve#  ,svvvv;        ",
"     5dcvvp:.  ,svvvv;        ",
"    2acvvv0<,,,wkvvvv7,,+     ",
"    8jvvvvfsssslcvvvvfss&     ",
"    8jvvvvvvvvvvvvvvvvvv;     ",
"    8jvvvvvvvvvvvvvvvvvv;     ",
"    8jvvvvvvvvvvvvvvvvvv;     ",
"    @*---------6fvvvv4--o     ",
"               ,svvvv;        ",
"               ,svvvv;        ",
"               ,svvvv;        ",
"               ,svvvv;        ",
"               O%----o        ",
"                              ",
"                              ",
"                              ",
"                              ",
"                              ",
"                              ",
"                              ",
"                              "
};
